G04 ---------------------------- Layer name :TOP SILK LAYER*
G04 EasyEDA v5.5.14, Thu, 21 Jun 2018 15:21:40 GMT*
G04 9a38f802714640338dee6b1ee23c8345*
G04 Gerber Generator version 0.2*
G04 Scale: 100 percent, Rotated: No, Reflected: No *
G04 Dimensions in millimeters *
G04 leading zeros omitted , absolute positions ,3 integer and 3 decimal *
%FSLAX33Y33*%
%MOMM*%
G90*
G71D02*

%ADD10C,0.254000*%
%ADD37C,0.200000*%
%ADD38C,0.203200*%
%ADD39C,0.202999*%
%ADD40C,0.330200*%
%ADD41C,0.299999*%
%ADD42C,0.399999*%
%ADD43C,0.177800*%
%ADD44C,0.101600*%

%LPD*%
G54D10*
G01X24643Y19136D02*
G01X18745Y19136D01*
G01X18745Y13238D01*
G01X24643Y13238D01*
G01X24643Y19136D01*
G01X23211Y32105D02*
G01X19906Y32105D01*
G01X19906Y27305D01*
G01X23716Y27305D01*
G01X23716Y32105D01*
G01X23211Y32105D01*
G01X28839Y31617D02*
G01X27061Y31617D01*
G01X27061Y29077D01*
G01X28839Y29077D01*
G01X30363Y29077D02*
G01X32141Y29077D01*
G01X32141Y31617D01*
G01X30363Y31617D01*
G01X37571Y23413D02*
G01X37571Y25191D01*
G01X35031Y25191D01*
G01X35031Y23413D01*
G01X35031Y21889D02*
G01X35031Y20111D01*
G01X37571Y20111D01*
G01X37571Y21889D01*
G01X28837Y25321D02*
G01X27059Y25321D01*
G01X27059Y22781D01*
G01X28837Y22781D01*
G01X30361Y22781D02*
G01X32139Y22781D01*
G01X32139Y25321D01*
G01X30361Y25321D01*
G01X28837Y28321D02*
G01X27059Y28321D01*
G01X27059Y25781D01*
G01X28837Y25781D01*
G01X30361Y25781D02*
G01X32139Y25781D01*
G01X32139Y28321D01*
G01X30361Y28321D01*
G01X5961Y33609D02*
G01X4704Y32352D01*
G01X6500Y30553D01*
G01X7757Y31810D01*
G01X8837Y32890D02*
G01X10091Y34147D01*
G01X8296Y35943D01*
G01X7038Y34686D01*
G01X12037Y19570D02*
G01X10259Y19570D01*
G01X10259Y17030D01*
G01X12037Y17030D01*
G01X13561Y17030D02*
G01X15339Y17030D01*
G01X15339Y19570D01*
G01X13561Y19570D01*
G01X6619Y13761D02*
G01X6619Y15539D01*
G01X4079Y15539D01*
G01X4079Y13761D01*
G01X4079Y12237D02*
G01X4079Y10459D01*
G01X6619Y10459D01*
G01X6619Y12237D01*
G01X27469Y40112D02*
G01X27469Y41890D01*
G01X24929Y41890D01*
G01X24929Y40112D01*
G01X24929Y38588D02*
G01X24929Y36810D01*
G01X27469Y36810D01*
G01X27469Y38588D01*
G01X11882Y24851D02*
G01X11882Y24190D01*
G01X11882Y24851D01*
G01X11882Y24190D01*
G01X11067Y24190D01*
G01X11067Y27111D02*
G01X11882Y27111D01*
G01X11882Y26451D01*
G54D37*
G01X10333Y25951D02*
G01X10333Y25351D01*
G54D10*
G01X11450Y6520D02*
G01X10790Y6520D01*
G01X11450Y6520D01*
G01X10790Y6520D01*
G01X10790Y7335D01*
G01X13711Y7335D02*
G01X13711Y6520D01*
G01X13051Y6520D01*
G54D37*
G01X12550Y8069D02*
G01X11951Y8069D01*
G54D10*
G01X5128Y19636D02*
G01X5128Y17858D01*
G01X7668Y17858D01*
G01X7668Y19636D01*
G01X7668Y21160D02*
G01X7668Y22938D01*
G01X5128Y22938D01*
G01X5128Y21160D01*
G01X7663Y41429D02*
G01X9441Y41429D01*
G01X9441Y43969D01*
G01X7663Y43969D01*
G01X6139Y43969D02*
G01X4361Y43969D01*
G01X4361Y41429D01*
G01X6139Y41429D01*
G54D38*
G01X17569Y43129D02*
G01X17569Y45669D01*
G01X37889Y45669D01*
G01X37889Y43129D01*
G01X35984Y43129D01*
G54D39*
G01X17569Y43129D02*
G01X35984Y43129D01*
G54D10*
G01X12489Y22165D02*
G01X15080Y22165D01*
G01X15080Y20183D01*
G01X12489Y20183D01*
G54D40*
G01X14572Y20234D02*
G01X14572Y22114D01*
G54D10*
G01X10864Y20183D02*
G01X8822Y20183D01*
G01X8822Y22185D01*
G01X10864Y22185D01*
G01X23165Y38710D02*
G01X23165Y36119D01*
G01X21183Y36119D01*
G01X21183Y38710D01*
G54D40*
G01X21234Y36627D02*
G01X23114Y36627D01*
G54D10*
G01X21183Y40335D02*
G01X21183Y42377D01*
G01X23185Y42377D01*
G01X23185Y40335D01*
G01X3404Y2537D02*
G01X46076Y2537D01*
G01X46076Y2537D02*
G01X46076Y48257D01*
G01X3404Y2537D02*
G01X3404Y48257D01*
G01X3404Y48257D02*
G01X46076Y48257D01*
G54D43*
G01X25692Y20627D02*
G01X25649Y20713D01*
G01X25565Y20800D01*
G01X25479Y20840D01*
G01X25306Y20840D01*
G01X25222Y20800D01*
G01X25136Y20713D01*
G01X25093Y20627D01*
G01X25049Y20497D01*
G01X25049Y20284D01*
G01X25093Y20154D01*
G01X25136Y20071D01*
G01X25222Y19984D01*
G01X25306Y19941D01*
G01X25479Y19941D01*
G01X25565Y19984D01*
G01X25649Y20071D01*
G01X25692Y20154D01*
G01X25977Y20840D02*
G01X25977Y19941D01*
G01X25977Y20840D02*
G01X26360Y20840D01*
G01X26490Y20800D01*
G01X26533Y20756D01*
G01X26576Y20670D01*
G01X26576Y20541D01*
G01X26533Y20457D01*
G01X26490Y20414D01*
G01X26360Y20370D01*
G01X25977Y20370D01*
G01X26858Y20840D02*
G01X26858Y20198D01*
G01X26901Y20071D01*
G01X26988Y19984D01*
G01X27115Y19941D01*
G01X27201Y19941D01*
G01X27330Y19984D01*
G01X27417Y20071D01*
G01X27457Y20198D01*
G01X27457Y20840D01*
G01X19251Y34292D02*
G01X19251Y33390D01*
G01X19251Y34292D02*
G01X19634Y34292D01*
G01X19764Y34249D01*
G01X19807Y34206D01*
G01X19850Y34119D01*
G01X19850Y34036D01*
G01X19807Y33949D01*
G01X19764Y33906D01*
G01X19634Y33863D01*
G01X19251Y33863D01*
G01X19550Y33863D02*
G01X19850Y33390D01*
G01X20432Y34292D02*
G01X20432Y33390D01*
G01X20132Y34292D02*
G01X20731Y34292D01*
G01X21659Y34076D02*
G01X21615Y34163D01*
G01X21529Y34249D01*
G01X21445Y34292D01*
G01X21273Y34292D01*
G01X21186Y34249D01*
G01X21102Y34163D01*
G01X21059Y34076D01*
G01X21016Y33949D01*
G01X21016Y33733D01*
G01X21059Y33606D01*
G01X21102Y33520D01*
G01X21186Y33434D01*
G01X21273Y33390D01*
G01X21445Y33390D01*
G01X21529Y33434D01*
G01X21615Y33520D01*
G01X21659Y33606D01*
G01X32549Y30922D02*
G01X32549Y29832D01*
G01X32549Y30922D02*
G01X33017Y30922D01*
G01X33172Y30871D01*
G01X33225Y30820D01*
G01X33276Y30716D01*
G01X33276Y30612D01*
G01X33225Y30508D01*
G01X33172Y30455D01*
G01X33017Y30404D01*
G01X32549Y30404D01*
G01X32913Y30404D02*
G01X33276Y29832D01*
G01X34348Y30922D02*
G01X33827Y29832D01*
G01X33619Y30922D02*
G01X34348Y30922D01*
G01X35299Y26949D02*
G01X35299Y25860D01*
G01X35299Y26949D02*
G01X35767Y26949D01*
G01X35922Y26899D01*
G01X35975Y26848D01*
G01X36026Y26744D01*
G01X36026Y26640D01*
G01X35975Y26535D01*
G01X35922Y26482D01*
G01X35767Y26431D01*
G01X35299Y26431D01*
G01X35663Y26431D02*
G01X36026Y25860D01*
G01X36422Y26690D02*
G01X36422Y26744D01*
G01X36473Y26848D01*
G01X36526Y26899D01*
G01X36630Y26949D01*
G01X36836Y26949D01*
G01X36940Y26899D01*
G01X36994Y26848D01*
G01X37044Y26744D01*
G01X37044Y26640D01*
G01X36994Y26535D01*
G01X36889Y26378D01*
G01X36369Y25860D01*
G01X37098Y25860D01*
G01X32501Y24627D02*
G01X32501Y23537D01*
G01X32501Y24627D02*
G01X32968Y24627D01*
G01X33123Y24576D01*
G01X33177Y24525D01*
G01X33227Y24421D01*
G01X33227Y24317D01*
G01X33177Y24213D01*
G01X33123Y24160D01*
G01X32968Y24109D01*
G01X32501Y24109D01*
G01X32864Y24109D02*
G01X33227Y23537D01*
G01X34195Y24627D02*
G01X33675Y24627D01*
G01X33624Y24160D01*
G01X33675Y24213D01*
G01X33832Y24264D01*
G01X33987Y24264D01*
G01X34142Y24213D01*
G01X34246Y24109D01*
G01X34299Y23954D01*
G01X34299Y23850D01*
G01X34246Y23692D01*
G01X34142Y23588D01*
G01X33987Y23537D01*
G01X33832Y23537D01*
G01X33675Y23588D01*
G01X33624Y23641D01*
G01X33570Y23746D01*
G01X32549Y27572D02*
G01X32549Y26482D01*
G01X32549Y27572D02*
G01X33017Y27572D01*
G01X33172Y27521D01*
G01X33225Y27470D01*
G01X33276Y27366D01*
G01X33276Y27262D01*
G01X33225Y27158D01*
G01X33172Y27105D01*
G01X33017Y27054D01*
G01X32549Y27054D01*
G01X32913Y27054D02*
G01X33276Y26482D01*
G01X34244Y27417D02*
G01X34190Y27521D01*
G01X34035Y27572D01*
G01X33931Y27572D01*
G01X33776Y27521D01*
G01X33672Y27366D01*
G01X33619Y27105D01*
G01X33619Y26845D01*
G01X33672Y26637D01*
G01X33776Y26533D01*
G01X33931Y26482D01*
G01X33984Y26482D01*
G01X34139Y26533D01*
G01X34244Y26637D01*
G01X34294Y26795D01*
G01X34294Y26845D01*
G01X34244Y27000D01*
G01X34139Y27105D01*
G01X33984Y27158D01*
G01X33931Y27158D01*
G01X33776Y27105D01*
G01X33672Y27000D01*
G01X33619Y26845D01*
G01X4950Y35275D02*
G01X5720Y34505D01*
G01X4950Y35275D02*
G01X5280Y35606D01*
G01X5425Y35679D01*
G01X5499Y35681D01*
G01X5609Y35643D01*
G01X5682Y35570D01*
G01X5720Y35460D01*
G01X5720Y35385D01*
G01X5646Y35239D01*
G01X5316Y34909D01*
G01X5573Y35165D02*
G01X6234Y35018D01*
G01X6074Y36399D02*
G01X6219Y35518D01*
G01X6771Y36069D01*
G01X6074Y36399D02*
G01X6844Y35629D01*
G01X10599Y15999D02*
G01X10599Y14910D01*
G01X10599Y15999D02*
G01X11067Y15999D01*
G01X11222Y15949D01*
G01X11275Y15898D01*
G01X11326Y15794D01*
G01X11326Y15690D01*
G01X11275Y15585D01*
G01X11222Y15532D01*
G01X11067Y15481D01*
G01X10599Y15481D01*
G01X10963Y15481D02*
G01X11326Y14910D01*
G01X11930Y15999D02*
G01X11773Y15949D01*
G01X11722Y15845D01*
G01X11722Y15740D01*
G01X11773Y15636D01*
G01X11877Y15585D01*
G01X12085Y15532D01*
G01X12240Y15481D01*
G01X12344Y15377D01*
G01X12398Y15273D01*
G01X12398Y15118D01*
G01X12344Y15014D01*
G01X12294Y14961D01*
G01X12136Y14910D01*
G01X11930Y14910D01*
G01X11773Y14961D01*
G01X11722Y15014D01*
G01X11669Y15118D01*
G01X11669Y15273D01*
G01X11722Y15377D01*
G01X11826Y15481D01*
G01X11981Y15532D01*
G01X12189Y15585D01*
G01X12294Y15636D01*
G01X12344Y15740D01*
G01X12344Y15845D01*
G01X12294Y15949D01*
G01X12136Y15999D01*
G01X11930Y15999D01*
G01X2400Y11849D02*
G01X3489Y11849D01*
G01X2400Y11849D02*
G01X2400Y12317D01*
G01X2450Y12471D01*
G01X2501Y12525D01*
G01X2605Y12576D01*
G01X2709Y12576D01*
G01X2814Y12525D01*
G01X2867Y12471D01*
G01X2918Y12317D01*
G01X2918Y11849D01*
G01X2918Y12212D02*
G01X3489Y12576D01*
G01X2605Y12919D02*
G01X2554Y13023D01*
G01X2400Y13180D01*
G01X3489Y13180D01*
G01X2659Y13574D02*
G01X2605Y13574D01*
G01X2501Y13627D01*
G01X2450Y13678D01*
G01X2400Y13782D01*
G01X2400Y13990D01*
G01X2450Y14095D01*
G01X2501Y14145D01*
G01X2605Y14199D01*
G01X2709Y14199D01*
G01X2814Y14145D01*
G01X2971Y14041D01*
G01X3489Y13523D01*
G01X3489Y14249D01*
G01X27899Y36799D02*
G01X28989Y36799D01*
G01X27899Y36799D02*
G01X27899Y37266D01*
G01X27950Y37421D01*
G01X28001Y37475D01*
G01X28105Y37526D01*
G01X28209Y37526D01*
G01X28313Y37475D01*
G01X28367Y37421D01*
G01X28418Y37266D01*
G01X28418Y36799D01*
G01X28418Y37162D02*
G01X28989Y37526D01*
G01X28105Y37868D02*
G01X28054Y37973D01*
G01X27899Y38130D01*
G01X28989Y38130D01*
G01X27899Y39095D02*
G01X27899Y38577D01*
G01X28367Y38524D01*
G01X28313Y38577D01*
G01X28263Y38732D01*
G01X28263Y38887D01*
G01X28313Y39044D01*
G01X28418Y39149D01*
G01X28573Y39199D01*
G01X28677Y39199D01*
G01X28834Y39149D01*
G01X28938Y39044D01*
G01X28989Y38887D01*
G01X28989Y38732D01*
G01X28938Y38577D01*
G01X28885Y38524D01*
G01X28781Y38473D01*
G01X10214Y28820D02*
G01X10110Y28769D01*
G01X10006Y28665D01*
G01X9953Y28561D01*
G01X9902Y28406D01*
G01X9902Y28147D01*
G01X9953Y27989D01*
G01X10006Y27885D01*
G01X10110Y27781D01*
G01X10214Y27730D01*
G01X10423Y27730D01*
G01X10524Y27781D01*
G01X10628Y27885D01*
G01X10682Y27989D01*
G01X10733Y28147D01*
G01X10733Y28406D01*
G01X10682Y28561D01*
G01X10628Y28665D01*
G01X10524Y28769D01*
G01X10423Y28820D01*
G01X10214Y28820D01*
G01X10369Y27939D02*
G01X10682Y27626D01*
G01X11129Y28561D02*
G01X11129Y28614D01*
G01X11180Y28718D01*
G01X11233Y28769D01*
G01X11337Y28820D01*
G01X11543Y28820D01*
G01X11647Y28769D01*
G01X11700Y28718D01*
G01X11751Y28614D01*
G01X11751Y28510D01*
G01X11700Y28406D01*
G01X11596Y28249D01*
G01X11076Y27730D01*
G01X11805Y27730D01*
G01X11612Y10699D02*
G01X11508Y10649D01*
G01X11404Y10545D01*
G01X11350Y10440D01*
G01X11299Y10285D01*
G01X11299Y10026D01*
G01X11350Y9869D01*
G01X11404Y9765D01*
G01X11508Y9661D01*
G01X11612Y9610D01*
G01X11820Y9610D01*
G01X11922Y9661D01*
G01X12026Y9765D01*
G01X12079Y9869D01*
G01X12130Y10026D01*
G01X12130Y10285D01*
G01X12079Y10440D01*
G01X12026Y10545D01*
G01X11922Y10649D01*
G01X11820Y10699D01*
G01X11612Y10699D01*
G01X11767Y9818D02*
G01X12079Y9506D01*
G01X12473Y10494D02*
G01X12577Y10545D01*
G01X12735Y10699D01*
G01X12735Y9610D01*
G01X14299Y34449D02*
G01X15026Y33360D01*
G01X15026Y34449D02*
G01X14299Y33360D01*
G01X15422Y34190D02*
G01X15422Y34244D01*
G01X15473Y34348D01*
G01X15526Y34399D01*
G01X15630Y34449D01*
G01X15836Y34449D01*
G01X15940Y34399D01*
G01X15994Y34348D01*
G01X16044Y34244D01*
G01X16044Y34140D01*
G01X15994Y34035D01*
G01X15890Y33878D01*
G01X15369Y33360D01*
G01X16098Y33360D01*
G01X11349Y12168D02*
G01X12439Y12895D01*
G01X11349Y12895D02*
G01X12439Y12168D01*
G01X11555Y13238D02*
G01X11504Y13342D01*
G01X11349Y13499D01*
G01X12439Y13499D01*
G01X2449Y20168D02*
G01X3539Y20168D01*
G01X2449Y20168D02*
G01X2449Y20636D01*
G01X2500Y20791D01*
G01X2551Y20844D01*
G01X2655Y20895D01*
G01X2759Y20895D01*
G01X2864Y20844D01*
G01X2917Y20791D01*
G01X2968Y20636D01*
G01X2968Y20168D01*
G01X2968Y20532D02*
G01X3539Y20895D01*
G01X2655Y21238D02*
G01X2604Y21342D01*
G01X2449Y21499D01*
G01X3539Y21499D01*
G01X1999Y41751D02*
G01X3089Y41751D01*
G01X1999Y41751D02*
G01X1999Y42218D01*
G01X2050Y42373D01*
G01X2101Y42427D01*
G01X2205Y42478D01*
G01X2309Y42478D01*
G01X2414Y42427D01*
G01X2467Y42373D01*
G01X2518Y42218D01*
G01X2518Y41751D01*
G01X2518Y42114D02*
G01X3089Y42478D01*
G01X1999Y42925D02*
G01X1999Y43496D01*
G01X2414Y43186D01*
G01X2414Y43341D01*
G01X2467Y43445D01*
G01X2518Y43496D01*
G01X2673Y43549D01*
G01X2777Y43549D01*
G01X2934Y43496D01*
G01X3038Y43392D01*
G01X3089Y43237D01*
G01X3089Y43082D01*
G01X3038Y42925D01*
G01X2985Y42874D01*
G01X2881Y42820D01*
G01X35349Y42481D02*
G01X35349Y41392D01*
G01X35349Y42481D02*
G01X35817Y42481D01*
G01X35972Y42431D01*
G01X36025Y42380D01*
G01X36076Y42276D01*
G01X36076Y42118D01*
G01X36025Y42014D01*
G01X35972Y41963D01*
G01X35817Y41910D01*
G01X35349Y41910D01*
G01X36419Y42276D02*
G01X36523Y42326D01*
G01X36680Y42481D01*
G01X36680Y41392D01*
G01X14079Y23863D02*
G01X14026Y23967D01*
G01X13922Y24071D01*
G01X13820Y24122D01*
G01X13612Y24122D01*
G01X13508Y24071D01*
G01X13404Y23967D01*
G01X13350Y23863D01*
G01X13299Y23708D01*
G01X13299Y23449D01*
G01X13350Y23291D01*
G01X13404Y23187D01*
G01X13508Y23083D01*
G01X13612Y23032D01*
G01X13820Y23032D01*
G01X13922Y23083D01*
G01X14026Y23187D01*
G01X14079Y23291D01*
G01X14526Y24122D02*
G01X15098Y24122D01*
G01X14785Y23708D01*
G01X14940Y23708D01*
G01X15044Y23655D01*
G01X15098Y23604D01*
G01X15149Y23449D01*
G01X15149Y23345D01*
G01X15098Y23187D01*
G01X14994Y23083D01*
G01X14836Y23032D01*
G01X14681Y23032D01*
G01X14526Y23083D01*
G01X14473Y23137D01*
G01X14422Y23241D01*
G01X19859Y37430D02*
G01X19754Y37377D01*
G01X19650Y37273D01*
G01X19599Y37171D01*
G01X19599Y36963D01*
G01X19650Y36859D01*
G01X19754Y36754D01*
G01X19859Y36701D01*
G01X20013Y36650D01*
G01X20273Y36650D01*
G01X20430Y36701D01*
G01X20534Y36754D01*
G01X20638Y36859D01*
G01X20689Y36963D01*
G01X20689Y37171D01*
G01X20638Y37273D01*
G01X20534Y37377D01*
G01X20430Y37430D01*
G01X19599Y38032D02*
G01X19650Y37877D01*
G01X19754Y37824D01*
G01X19859Y37824D01*
G01X19963Y37877D01*
G01X20013Y37981D01*
G01X20067Y38187D01*
G01X20118Y38344D01*
G01X20222Y38449D01*
G01X20326Y38499D01*
G01X20481Y38499D01*
G01X20585Y38449D01*
G01X20638Y38395D01*
G01X20689Y38240D01*
G01X20689Y38032D01*
G01X20638Y37877D01*
G01X20585Y37824D01*
G01X20481Y37773D01*
G01X20326Y37773D01*
G01X20222Y37824D01*
G01X20118Y37928D01*
G01X20067Y38085D01*
G01X20013Y38291D01*
G01X19963Y38395D01*
G01X19859Y38449D01*
G01X19754Y38449D01*
G01X19650Y38395D01*
G01X19599Y38240D01*
G01X19599Y38032D01*
G01X43500Y43398D02*
G01X43500Y42621D01*
G01X43551Y42463D01*
G01X43655Y42359D01*
G01X43812Y42308D01*
G01X43917Y42308D01*
G01X44072Y42359D01*
G01X44176Y42463D01*
G01X44226Y42621D01*
G01X44226Y43398D01*
G01X44674Y43398D02*
G01X45245Y43398D01*
G01X44933Y42984D01*
G01X45090Y42984D01*
G01X45194Y42931D01*
G01X45245Y42880D01*
G01X45298Y42725D01*
G01X45298Y42621D01*
G01X45245Y42463D01*
G01X45141Y42359D01*
G01X44986Y42308D01*
G01X44831Y42308D01*
G01X44674Y42359D01*
G01X44623Y42412D01*
G01X44569Y42517D01*
G54D44*
G01X18720Y1991D02*
G01X18685Y2062D01*
G01X18616Y2131D01*
G01X18545Y2166D01*
G01X18408Y2166D01*
G01X18339Y2131D01*
G01X18268Y2062D01*
G01X18235Y1991D01*
G01X18199Y1889D01*
G01X18199Y1714D01*
G01X18235Y1610D01*
G01X18268Y1541D01*
G01X18339Y1473D01*
G01X18408Y1437D01*
G01X18545Y1437D01*
G01X18616Y1473D01*
G01X18685Y1541D01*
G01X18720Y1610D01*
G01X18949Y2166D02*
G01X18949Y1437D01*
G01X18949Y2166D02*
G01X19398Y2166D01*
G01X18949Y1818D02*
G01X19226Y1818D01*
G01X18949Y1437D02*
G01X19398Y1437D01*
G01X15151Y2166D02*
G01X15151Y1437D01*
G01X15151Y2166D02*
G01X15464Y2166D01*
G01X15568Y2131D01*
G01X15601Y2095D01*
G01X15637Y2026D01*
G01X15637Y1958D01*
G01X15601Y1889D01*
G01X15568Y1854D01*
G01X15464Y1818D01*
G01X15151Y1818D01*
G01X15393Y1818D02*
G01X15637Y1437D01*
G01X16350Y2062D02*
G01X16282Y2131D01*
G01X16178Y2166D01*
G01X16038Y2166D01*
G01X15934Y2131D01*
G01X15865Y2062D01*
G01X15865Y1991D01*
G01X15901Y1922D01*
G01X15934Y1889D01*
G01X16002Y1854D01*
G01X16211Y1785D01*
G01X16282Y1750D01*
G01X16315Y1714D01*
G01X16350Y1645D01*
G01X16350Y1541D01*
G01X16282Y1473D01*
G01X16178Y1437D01*
G01X16038Y1437D01*
G01X15934Y1473D01*
G01X15865Y1541D01*
G01X16820Y2166D02*
G01X16820Y1437D01*
G01X16579Y2166D02*
G01X17064Y2166D01*
G01X23025Y2166D02*
G01X23025Y1437D01*
G01X23025Y2166D02*
G01X23267Y2166D01*
G01X23371Y2131D01*
G01X23442Y2062D01*
G01X23475Y1991D01*
G01X23511Y1889D01*
G01X23511Y1714D01*
G01X23475Y1610D01*
G01X23442Y1541D01*
G01X23371Y1473D01*
G01X23267Y1437D01*
G01X23025Y1437D01*
G01X23739Y2166D02*
G01X23739Y1437D01*
G01X23968Y2166D02*
G01X23968Y1437D01*
G01X23968Y2166D02*
G01X24453Y1437D01*
G01X24453Y2166D02*
G01X24453Y1437D01*
G01X20739Y2166D02*
G01X20739Y1437D01*
G01X20739Y2166D02*
G01X20981Y2166D01*
G01X21085Y2131D01*
G01X21156Y2062D01*
G01X21189Y1991D01*
G01X21225Y1889D01*
G01X21225Y1714D01*
G01X21189Y1610D01*
G01X21156Y1541D01*
G01X21085Y1473D01*
G01X20981Y1437D01*
G01X20739Y1437D01*
G01X21971Y1991D02*
G01X21938Y2062D01*
G01X21870Y2131D01*
G01X21799Y2166D01*
G01X21661Y2166D01*
G01X21590Y2131D01*
G01X21522Y2062D01*
G01X21489Y1991D01*
G01X21453Y1889D01*
G01X21453Y1714D01*
G01X21489Y1610D01*
G01X21522Y1541D01*
G01X21590Y1473D01*
G01X21661Y1437D01*
G01X21799Y1437D01*
G01X21870Y1473D01*
G01X21938Y1541D01*
G01X21971Y1610D01*
G01X26086Y1991D02*
G01X26051Y2062D01*
G01X25982Y2131D01*
G01X25911Y2166D01*
G01X25774Y2166D01*
G01X25705Y2131D01*
G01X25634Y2062D01*
G01X25601Y1991D01*
G01X25565Y1889D01*
G01X25565Y1714D01*
G01X25601Y1610D01*
G01X25634Y1541D01*
G01X25705Y1473D01*
G01X25774Y1437D01*
G01X25911Y1437D01*
G01X25982Y1473D01*
G01X26051Y1541D01*
G01X26086Y1610D01*
G01X26315Y2166D02*
G01X26315Y1437D01*
G01X26315Y1437D02*
G01X26729Y1437D01*
G01X26957Y2166D02*
G01X26957Y1437D01*
G01X27442Y2166D02*
G01X26957Y1681D01*
G01X27130Y1854D02*
G01X27442Y1437D01*
G01X27851Y2166D02*
G01X28128Y1437D01*
G01X28405Y2166D02*
G01X28128Y1437D01*
G01X29154Y1991D02*
G01X29119Y2062D01*
G01X29050Y2131D01*
G01X28982Y2166D01*
G01X28842Y2166D01*
G01X28773Y2131D01*
G01X28702Y2062D01*
G01X28669Y1991D01*
G01X28634Y1889D01*
G01X28634Y1714D01*
G01X28669Y1610D01*
G01X28702Y1541D01*
G01X28773Y1473D01*
G01X28842Y1437D01*
G01X28982Y1437D01*
G01X29050Y1473D01*
G01X29119Y1541D01*
G01X29154Y1610D01*
G01X29901Y1991D02*
G01X29868Y2062D01*
G01X29797Y2131D01*
G01X29728Y2166D01*
G01X29591Y2166D01*
G01X29520Y2131D01*
G01X29452Y2062D01*
G01X29416Y1991D01*
G01X29383Y1889D01*
G01X29383Y1714D01*
G01X29416Y1610D01*
G01X29452Y1541D01*
G01X29520Y1473D01*
G01X29591Y1437D01*
G01X29728Y1437D01*
G01X29797Y1473D01*
G01X29868Y1541D01*
G01X29901Y1610D01*
G01X30899Y2166D02*
G01X30899Y1437D01*
G01X30899Y2166D02*
G01X31212Y2166D01*
G01X31316Y2131D01*
G01X31349Y2095D01*
G01X31385Y2026D01*
G01X31385Y1958D01*
G01X31349Y1889D01*
G01X31316Y1854D01*
G01X31212Y1818D01*
G01X30899Y1818D02*
G01X31212Y1818D01*
G01X31316Y1785D01*
G01X31349Y1750D01*
G01X31385Y1681D01*
G01X31385Y1577D01*
G01X31349Y1508D01*
G01X31316Y1473D01*
G01X31212Y1437D01*
G01X30899Y1437D01*
G01X31613Y2166D02*
G01X31613Y1437D01*
G01X31613Y1437D02*
G01X32030Y1437D01*
G01X33452Y1991D02*
G01X33417Y2062D01*
G01X33348Y2131D01*
G01X33277Y2166D01*
G01X33140Y2166D01*
G01X33071Y2131D01*
G01X33000Y2062D01*
G01X32967Y1991D01*
G01X32931Y1889D01*
G01X32931Y1714D01*
G01X32967Y1610D01*
G01X33000Y1541D01*
G01X33071Y1473D01*
G01X33140Y1437D01*
G01X33277Y1437D01*
G01X33348Y1473D01*
G01X33417Y1541D01*
G01X33452Y1610D01*
G01X33452Y1714D01*
G01X33277Y1714D02*
G01X33452Y1714D01*
G01X33681Y2166D02*
G01X33681Y1437D01*
G01X33681Y2166D02*
G01X34163Y1437D01*
G01X34163Y2166D02*
G01X34163Y1437D01*
G01X34392Y2166D02*
G01X34392Y1437D01*
G01X34392Y2166D02*
G01X34636Y2166D01*
G01X34740Y2131D01*
G01X34808Y2062D01*
G01X34844Y1991D01*
G01X34877Y1889D01*
G01X34877Y1714D01*
G01X34844Y1610D01*
G01X34808Y1541D01*
G01X34740Y1473D01*
G01X34636Y1437D01*
G01X34392Y1437D01*
G54D38*
G01X28753Y11013D02*
G01X28707Y11107D01*
G01X28613Y11201D01*
G01X28519Y11249D01*
G01X28331Y11249D01*
G01X28237Y11201D01*
G01X28143Y11107D01*
G01X28098Y11013D01*
G01X28049Y10874D01*
G01X28049Y10640D01*
G01X28098Y10498D01*
G01X28143Y10404D01*
G01X28237Y10310D01*
G01X28331Y10264D01*
G01X28519Y10264D01*
G01X28613Y10310D01*
G01X28707Y10404D01*
G01X28753Y10498D01*
G01X28753Y10640D01*
G01X28519Y10640D02*
G01X28753Y10640D01*
G01X29063Y10640D02*
G01X29627Y10640D01*
G01X29627Y10734D01*
G01X29579Y10825D01*
G01X29533Y10874D01*
G01X29439Y10919D01*
G01X29297Y10919D01*
G01X29203Y10874D01*
G01X29111Y10780D01*
G01X29063Y10640D01*
G01X29063Y10546D01*
G01X29111Y10404D01*
G01X29203Y10310D01*
G01X29297Y10264D01*
G01X29439Y10264D01*
G01X29533Y10310D01*
G01X29627Y10404D01*
G01X29937Y10640D02*
G01X30498Y10640D01*
G01X30498Y10734D01*
G01X30452Y10825D01*
G01X30404Y10874D01*
G01X30310Y10919D01*
G01X30170Y10919D01*
G01X30076Y10874D01*
G01X29982Y10780D01*
G01X29937Y10640D01*
G01X29937Y10546D01*
G01X29982Y10404D01*
G01X30076Y10310D01*
G01X30170Y10264D01*
G01X30310Y10264D01*
G01X30404Y10310D01*
G01X30498Y10404D01*
G01X30808Y11249D02*
G01X30808Y10264D01*
G01X31278Y10919D02*
G01X30808Y10452D01*
G01X30996Y10640D02*
G01X31324Y10264D01*
G01X32149Y10780D02*
G01X32103Y10874D01*
G01X31961Y10919D01*
G01X31821Y10919D01*
G01X31682Y10874D01*
G01X31633Y10780D01*
G01X31682Y10686D01*
G01X31776Y10640D01*
G01X32009Y10592D01*
G01X32103Y10546D01*
G01X32149Y10452D01*
G01X32149Y10404D01*
G01X32103Y10310D01*
G01X31961Y10264D01*
G01X31821Y10264D01*
G01X31682Y10310D01*
G01X31633Y10404D01*
G01X32459Y10919D02*
G01X32459Y9936D01*
G01X32459Y10780D02*
G01X32553Y10874D01*
G01X32647Y10919D01*
G01X32787Y10919D01*
G01X32881Y10874D01*
G01X32975Y10780D01*
G01X33023Y10640D01*
G01X33023Y10546D01*
G01X32975Y10404D01*
G01X32881Y10310D01*
G01X32787Y10264D01*
G01X32647Y10264D01*
G01X32553Y10310D01*
G01X32459Y10404D01*
G01X33566Y10919D02*
G01X33472Y10874D01*
G01X33378Y10780D01*
G01X33333Y10640D01*
G01X33333Y10546D01*
G01X33378Y10404D01*
G01X33472Y10310D01*
G01X33566Y10264D01*
G01X33706Y10264D01*
G01X33800Y10310D01*
G01X33894Y10404D01*
G01X33942Y10546D01*
G01X33942Y10640D01*
G01X33894Y10780D01*
G01X33800Y10874D01*
G01X33706Y10919D01*
G01X33566Y10919D01*
G01X34252Y10919D02*
G01X34252Y10264D01*
G01X34252Y10640D02*
G01X34298Y10780D01*
G01X34392Y10874D01*
G01X34486Y10919D01*
G01X34626Y10919D01*
G01X35078Y11249D02*
G01X35078Y10452D01*
G01X35123Y10310D01*
G01X35217Y10264D01*
G01X35311Y10264D01*
G01X34935Y10919D02*
G01X35266Y10919D01*
G01X37000Y11107D02*
G01X36906Y11201D01*
G01X36767Y11249D01*
G01X36579Y11249D01*
G01X36437Y11201D01*
G01X36343Y11107D01*
G01X36343Y11013D01*
G01X36391Y10919D01*
G01X36437Y10874D01*
G01X36531Y10825D01*
G01X36812Y10734D01*
G01X36906Y10686D01*
G01X36952Y10640D01*
G01X37000Y10546D01*
G01X37000Y10404D01*
G01X36906Y10310D01*
G01X36767Y10264D01*
G01X36579Y10264D01*
G01X36437Y10310D01*
G01X36343Y10404D01*
G01X37310Y10919D02*
G01X37310Y10264D01*
G01X37310Y10734D02*
G01X37450Y10874D01*
G01X37544Y10919D01*
G01X37686Y10919D01*
G01X37778Y10874D01*
G01X37826Y10734D01*
G01X37826Y10264D01*
G01X37826Y10734D02*
G01X37966Y10874D01*
G01X38060Y10919D01*
G01X38202Y10919D01*
G01X38296Y10874D01*
G01X38342Y10734D01*
G01X38342Y10264D01*
G01X39215Y10919D02*
G01X39215Y10264D01*
G01X39215Y10780D02*
G01X39121Y10874D01*
G01X39027Y10919D01*
G01X38885Y10919D01*
G01X38791Y10874D01*
G01X38697Y10780D01*
G01X38651Y10640D01*
G01X38651Y10546D01*
G01X38697Y10404D01*
G01X38791Y10310D01*
G01X38885Y10264D01*
G01X39027Y10264D01*
G01X39121Y10310D01*
G01X39215Y10404D01*
G01X39523Y10919D02*
G01X39523Y10264D01*
G01X39523Y10640D02*
G01X39571Y10780D01*
G01X39665Y10874D01*
G01X39759Y10919D01*
G01X39899Y10919D01*
G01X40351Y11249D02*
G01X40351Y10452D01*
G01X40396Y10310D01*
G01X40490Y10264D01*
G01X40584Y10264D01*
G01X40208Y10919D02*
G01X40536Y10919D01*
G01X41616Y11249D02*
G01X41849Y10264D01*
G01X42085Y11249D02*
G01X41849Y10264D01*
G01X42085Y11249D02*
G01X42319Y10264D01*
G01X42555Y11249D02*
G01X42319Y10264D01*
G01X43427Y10919D02*
G01X43427Y10264D01*
G01X43427Y10780D02*
G01X43333Y10874D01*
G01X43239Y10919D01*
G01X43099Y10919D01*
G01X43005Y10874D01*
G01X42911Y10780D01*
G01X42863Y10640D01*
G01X42863Y10546D01*
G01X42911Y10404D01*
G01X43005Y10310D01*
G01X43099Y10264D01*
G01X43239Y10264D01*
G01X43333Y10310D01*
G01X43427Y10404D01*
G01X43876Y11249D02*
G01X43876Y10452D01*
G01X43924Y10310D01*
G01X44018Y10264D01*
G01X44112Y10264D01*
G01X43736Y10919D02*
G01X44064Y10919D01*
G01X44984Y10780D02*
G01X44890Y10874D01*
G01X44796Y10919D01*
G01X44656Y10919D01*
G01X44562Y10874D01*
G01X44468Y10780D01*
G01X44422Y10640D01*
G01X44422Y10546D01*
G01X44468Y10404D01*
G01X44562Y10310D01*
G01X44656Y10264D01*
G01X44796Y10264D01*
G01X44890Y10310D01*
G01X44984Y10404D01*
G01X45294Y11249D02*
G01X45294Y10264D01*
G01X45294Y10734D02*
G01X45433Y10874D01*
G01X45527Y10919D01*
G01X45669Y10919D01*
G01X45763Y10874D01*
G01X45809Y10734D01*
G01X45809Y10264D01*
G01X43949Y20742D02*
G01X44932Y20742D01*
G01X43949Y20742D02*
G01X43949Y21166D01*
G01X43995Y21306D01*
G01X44043Y21351D01*
G01X44135Y21399D01*
G01X44229Y21399D01*
G01X44323Y21351D01*
G01X44371Y21306D01*
G01X44417Y21166D01*
G01X44417Y20742D01*
G01X44417Y21072D02*
G01X44932Y21399D01*
G01X44277Y21709D02*
G01X44747Y21709D01*
G01X44887Y21755D01*
G01X44932Y21849D01*
G01X44932Y21991D01*
G01X44887Y22085D01*
G01X44747Y22225D01*
G01X44277Y22225D02*
G01X44932Y22225D01*
G01X44417Y23050D02*
G01X44323Y23005D01*
G01X44277Y22863D01*
G01X44277Y22723D01*
G01X44323Y22581D01*
G01X44417Y22535D01*
G01X44511Y22581D01*
G01X44559Y22675D01*
G01X44605Y22911D01*
G01X44653Y23005D01*
G01X44747Y23050D01*
G01X44793Y23050D01*
G01X44887Y23005D01*
G01X44932Y22863D01*
G01X44932Y22723D01*
G01X44887Y22581D01*
G01X44793Y22535D01*
G01X43949Y23360D02*
G01X44932Y23360D01*
G01X44277Y24232D02*
G01X44932Y24232D01*
G01X44417Y24232D02*
G01X44323Y24138D01*
G01X44277Y24046D01*
G01X44277Y23904D01*
G01X44323Y23810D01*
G01X44417Y23716D01*
G01X44559Y23670D01*
G01X44653Y23670D01*
G01X44793Y23716D01*
G01X44887Y23810D01*
G01X44932Y23904D01*
G01X44932Y24046D01*
G01X44887Y24138D01*
G01X44793Y24232D01*
G01X44277Y24541D02*
G01X44932Y24541D01*
G01X44465Y24541D02*
G01X44323Y24684D01*
G01X44277Y24778D01*
G01X44277Y24917D01*
G01X44323Y25011D01*
G01X44465Y25057D01*
G01X44932Y25057D01*
G01X43949Y26091D02*
G01X44932Y26464D01*
G01X43949Y26840D02*
G01X44932Y26464D01*
G01X44277Y27384D02*
G01X44323Y27290D01*
G01X44417Y27198D01*
G01X44559Y27150D01*
G01X44653Y27150D01*
G01X44793Y27198D01*
G01X44887Y27290D01*
G01X44932Y27384D01*
G01X44932Y27526D01*
G01X44887Y27620D01*
G01X44793Y27714D01*
G01X44653Y27760D01*
G01X44559Y27760D01*
G01X44417Y27714D01*
G01X44323Y27620D01*
G01X44277Y27526D01*
G01X44277Y27384D01*
G01X44417Y28585D02*
G01X44323Y28539D01*
G01X44277Y28397D01*
G01X44277Y28257D01*
G01X44323Y28118D01*
G01X44417Y28070D01*
G01X44511Y28118D01*
G01X44559Y28209D01*
G01X44605Y28445D01*
G01X44653Y28539D01*
G01X44747Y28585D01*
G01X44793Y28585D01*
G01X44887Y28539D01*
G01X44932Y28397D01*
G01X44932Y28257D01*
G01X44887Y28118D01*
G01X44793Y28070D01*
G01X43949Y29037D02*
G01X44747Y29037D01*
G01X44887Y29083D01*
G01X44932Y29177D01*
G01X44932Y29271D01*
G01X44277Y28895D02*
G01X44277Y29223D01*
G01X44277Y29581D02*
G01X44932Y29581D01*
G01X44559Y29581D02*
G01X44417Y29627D01*
G01X44323Y29721D01*
G01X44277Y29815D01*
G01X44277Y29954D01*
G01X44559Y30264D02*
G01X44559Y30828D01*
G01X44465Y30828D01*
G01X44371Y30782D01*
G01X44323Y30734D01*
G01X44277Y30640D01*
G01X44277Y30500D01*
G01X44323Y30406D01*
G01X44417Y30312D01*
G01X44559Y30264D01*
G01X44653Y30264D01*
G01X44793Y30312D01*
G01X44887Y30406D01*
G01X44932Y30500D01*
G01X44932Y30640D01*
G01X44887Y30734D01*
G01X44793Y30828D01*
G01X43949Y31278D02*
G01X44747Y31278D01*
G01X44887Y31326D01*
G01X44932Y31420D01*
G01X44932Y31514D01*
G01X44277Y31138D02*
G01X44277Y31466D01*
G01X44417Y32339D02*
G01X44323Y32291D01*
G01X44277Y32151D01*
G01X44277Y32009D01*
G01X44323Y31869D01*
G01X44417Y31824D01*
G01X44511Y31869D01*
G01X44559Y31963D01*
G01X44605Y32197D01*
G01X44653Y32291D01*
G01X44747Y32339D01*
G01X44793Y32339D01*
G01X44887Y32291D01*
G01X44932Y32151D01*
G01X44932Y32009D01*
G01X44887Y31869D01*
G01X44793Y31824D01*
G01X44277Y32883D02*
G01X44323Y32789D01*
G01X44417Y32695D01*
G01X44559Y32649D01*
G01X44653Y32649D01*
G01X44793Y32695D01*
G01X44887Y32789D01*
G01X44932Y32883D01*
G01X44932Y33023D01*
G01X44887Y33117D01*
G01X44793Y33210D01*
G01X44653Y33259D01*
G01X44559Y33259D01*
G01X44417Y33210D01*
G01X44323Y33117D01*
G01X44277Y33023D01*
G01X44277Y32883D01*
G01X44277Y33569D02*
G01X44932Y33848D01*
G01X44277Y34130D02*
G01X44932Y33848D01*
G01X44747Y34534D02*
G01X44793Y34488D01*
G01X44747Y34440D01*
G01X44699Y34488D01*
G01X44747Y34534D01*
G01X44841Y34534D01*
G01X44932Y34440D01*
G01X44183Y35613D02*
G01X44135Y35613D01*
G01X44043Y35659D01*
G01X43995Y35707D01*
G01X43949Y35801D01*
G01X43949Y35987D01*
G01X43995Y36081D01*
G01X44043Y36129D01*
G01X44135Y36175D01*
G01X44229Y36175D01*
G01X44323Y36129D01*
G01X44465Y36035D01*
G01X44932Y35565D01*
G01X44932Y36223D01*
G01X43949Y36815D02*
G01X43995Y36673D01*
G01X44135Y36579D01*
G01X44371Y36533D01*
G01X44511Y36533D01*
G01X44747Y36579D01*
G01X44887Y36673D01*
G01X44932Y36815D01*
G01X44932Y36906D01*
G01X44887Y37048D01*
G01X44747Y37142D01*
G01X44511Y37188D01*
G01X44371Y37188D01*
G01X44135Y37142D01*
G01X43995Y37048D01*
G01X43949Y36906D01*
G01X43949Y36815D01*
G01X44135Y37498D02*
G01X44089Y37592D01*
G01X43949Y37732D01*
G01X44932Y37732D01*
G01X43949Y38278D02*
G01X43995Y38136D01*
G01X44089Y38090D01*
G01X44183Y38090D01*
G01X44277Y38136D01*
G01X44323Y38230D01*
G01X44371Y38417D01*
G01X44417Y38560D01*
G01X44511Y38651D01*
G01X44605Y38699D01*
G01X44747Y38699D01*
G01X44841Y38651D01*
G01X44887Y38605D01*
G01X44932Y38466D01*
G01X44932Y38278D01*
G01X44887Y38136D01*
G01X44841Y38090D01*
G01X44747Y38042D01*
G01X44605Y38042D01*
G01X44511Y38090D01*
G01X44417Y38184D01*
G01X44371Y38324D01*
G01X44323Y38511D01*
G01X44277Y38605D01*
G01X44183Y38651D01*
G01X44089Y38651D01*
G01X43995Y38605D01*
G01X43949Y38466D01*
G01X43949Y38278D01*
G01X18632Y46546D02*
G01X18559Y46508D01*
G01X18485Y46436D01*
G01X18449Y46363D01*
G01X18449Y46216D01*
G01X18485Y46144D01*
G01X18559Y46071D01*
G01X18632Y46033D01*
G01X18742Y45997D01*
G01X18922Y45997D01*
G01X19034Y46033D01*
G01X19105Y46071D01*
G01X19178Y46144D01*
G01X19214Y46216D01*
G01X19214Y46363D01*
G01X19178Y46436D01*
G01X19105Y46508D01*
G01X19034Y46546D01*
G01X18922Y46546D01*
G01X18922Y46363D02*
G01X18922Y46546D01*
G01X18449Y46784D02*
G01X19214Y46784D01*
G01X18449Y46784D02*
G01X19214Y47298D01*
G01X18449Y47298D02*
G01X19214Y47298D01*
G01X18449Y47536D02*
G01X19214Y47536D01*
G01X18449Y47536D02*
G01X18449Y47793D01*
G01X18485Y47902D01*
G01X18559Y47976D01*
G01X18632Y48011D01*
G01X18742Y48049D01*
G01X18922Y48049D01*
G01X19034Y48011D01*
G01X19105Y47976D01*
G01X19178Y47902D01*
G01X19214Y47793D01*
G01X19214Y47536D01*
G01X20999Y46287D02*
G01X21767Y46287D01*
G01X20999Y46287D02*
G01X20999Y46615D01*
G01X21035Y46724D01*
G01X21073Y46762D01*
G01X21144Y46798D01*
G01X21218Y46798D01*
G01X21292Y46762D01*
G01X21327Y46724D01*
G01X21365Y46615D01*
G01X21365Y46287D02*
G01X21365Y46615D01*
G01X21401Y46724D01*
G01X21436Y46762D01*
G01X21510Y46798D01*
G01X21619Y46798D01*
G01X21693Y46762D01*
G01X21728Y46724D01*
G01X21767Y46615D01*
G01X21767Y46287D01*
G01X20999Y47113D02*
G01X20999Y47514D01*
G01X21292Y47295D01*
G01X21292Y47405D01*
G01X21327Y47476D01*
G01X21365Y47514D01*
G01X21474Y47549D01*
G01X21546Y47549D01*
G01X21657Y47514D01*
G01X21728Y47440D01*
G01X21767Y47331D01*
G01X21767Y47222D01*
G01X21728Y47113D01*
G01X21693Y47074D01*
G01X21619Y47039D01*
G01X26011Y46298D02*
G01X26778Y46298D01*
G01X26011Y46298D02*
G01X26011Y46629D01*
G01X26049Y46738D01*
G01X26085Y46773D01*
G01X26158Y46812D01*
G01X26229Y46812D01*
G01X26303Y46773D01*
G01X26341Y46738D01*
G01X26377Y46629D01*
G01X26377Y46298D02*
G01X26377Y46629D01*
G01X26412Y46738D01*
G01X26450Y46773D01*
G01X26521Y46812D01*
G01X26633Y46812D01*
G01X26704Y46773D01*
G01X26742Y46738D01*
G01X26778Y46629D01*
G01X26778Y46298D01*
G01X26011Y47416D02*
G01X26521Y47050D01*
G01X26521Y47599D01*
G01X26011Y47416D02*
G01X26778Y47416D01*
G01X28510Y46348D02*
G01X29277Y46348D01*
G01X28510Y46348D02*
G01X28510Y46678D01*
G01X28549Y46788D01*
G01X28584Y46823D01*
G01X28658Y46861D01*
G01X28731Y46861D01*
G01X28803Y46823D01*
G01X28841Y46788D01*
G01X28876Y46678D01*
G01X28876Y46348D02*
G01X28876Y46678D01*
G01X28912Y46788D01*
G01X28950Y46823D01*
G01X29023Y46861D01*
G01X29133Y46861D01*
G01X29204Y46823D01*
G01X29242Y46788D01*
G01X29277Y46678D01*
G01X29277Y46348D01*
G01X28693Y47138D02*
G01X28658Y47138D01*
G01X28584Y47174D01*
G01X28549Y47212D01*
G01X28510Y47283D01*
G01X28510Y47430D01*
G01X28549Y47504D01*
G01X28584Y47539D01*
G01X28658Y47575D01*
G01X28731Y47575D01*
G01X28803Y47539D01*
G01X28912Y47466D01*
G01X29277Y47100D01*
G01X29277Y47613D01*
G01X31162Y46448D02*
G01X31929Y46448D01*
G01X31162Y46448D02*
G01X31162Y46779D01*
G01X31197Y46888D01*
G01X31235Y46923D01*
G01X31307Y46961D01*
G01X31380Y46961D01*
G01X31454Y46923D01*
G01X31489Y46888D01*
G01X31528Y46779D01*
G01X31528Y46448D02*
G01X31528Y46779D01*
G01X31563Y46888D01*
G01X31599Y46923D01*
G01X31672Y46961D01*
G01X31782Y46961D01*
G01X31855Y46923D01*
G01X31891Y46888D01*
G01X31929Y46779D01*
G01X31929Y46448D01*
G01X31307Y47200D02*
G01X31271Y47274D01*
G01X31162Y47383D01*
G01X31929Y47383D01*
G01X36199Y45938D02*
G01X36967Y46230D01*
G01X36199Y46522D02*
G01X36967Y46230D01*
G01X36382Y47309D02*
G01X36311Y47274D01*
G01X36238Y47200D01*
G01X36199Y47129D01*
G01X36199Y46982D01*
G01X36238Y46908D01*
G01X36311Y46837D01*
G01X36382Y46799D01*
G01X36492Y46763D01*
G01X36674Y46763D01*
G01X36784Y46799D01*
G01X36857Y46837D01*
G01X36931Y46908D01*
G01X36967Y46982D01*
G01X36967Y47129D01*
G01X36931Y47200D01*
G01X36857Y47274D01*
G01X36784Y47309D01*
G01X36382Y48099D02*
G01X36311Y48061D01*
G01X36238Y47990D01*
G01X36199Y47916D01*
G01X36199Y47769D01*
G01X36238Y47698D01*
G01X36311Y47624D01*
G01X36382Y47589D01*
G01X36492Y47551D01*
G01X36674Y47551D01*
G01X36784Y47589D01*
G01X36857Y47624D01*
G01X36931Y47698D01*
G01X36967Y47769D01*
G01X36967Y47916D01*
G01X36931Y47990D01*
G01X36857Y48061D01*
G01X36784Y48099D01*
G01X23549Y46287D02*
G01X24317Y46287D01*
G01X23549Y46798D02*
G01X24317Y46798D01*
G01X23915Y46287D02*
G01X23915Y46798D01*
G01X23659Y47549D02*
G01X23585Y47476D01*
G01X23549Y47367D01*
G01X23549Y47219D01*
G01X23585Y47110D01*
G01X23659Y47039D01*
G01X23732Y47039D01*
G01X23806Y47074D01*
G01X23842Y47110D01*
G01X23877Y47184D01*
G01X23951Y47402D01*
G01X23989Y47476D01*
G01X24024Y47511D01*
G01X24098Y47549D01*
G01X24207Y47549D01*
G01X24278Y47476D01*
G01X24317Y47367D01*
G01X24317Y47219D01*
G01X24278Y47110D01*
G01X24207Y47039D01*
G54D41*
G75*
G01X17544Y19887D02*
G3X17544Y19884I-150J-1D01*
G01*
G54D42*
G75*
G01X19695Y18386D02*
G3X19695Y18383I-200J-1D01*
G01*
G75*
G01X19499Y32499D02*
G3X19499Y32496I-200J-1D01*
G01*
G54D10*
G75*
G01X17246Y30725D02*
G03X17246Y30725I-1999J0D01*
G01*
G75*
G01X16947Y12875D02*
G03X16947Y12875I-1999J0D01*
G01*
M00*
M02*
