G04 ---------------------------- Layer name :TOP LAYER*
G04 EasyEDA v5.5.14, Thu, 21 Jun 2018 15:21:40 GMT*
G04 9a38f802714640338dee6b1ee23c8345*
G04 Gerber Generator version 0.2*
G04 Scale: 100 percent, Rotated: No, Reflected: No *
G04 Dimensions in millimeters *
G04 leading zeros omitted , absolute positions ,3 integer and 3 decimal *
%FSLAX33Y33*%
%MOMM*%
G90*
G71D02*

%ADD11C,0.699999*%
%ADD12C,0.449999*%
%ADD13C,1.599997*%
%ADD14C,0.599999*%
%ADD15C,0.999998*%
%ADD16C,0.776998*%
%ADD17C,0.499999*%
%ADD18C,0.450012*%
%ADD19C,0.849986*%
%ADD20C,0.989990*%
%ADD21C,0.900024*%
%ADD22R,1.600200X1.800860*%
%ADD23R,1.800860X1.600200*%
%ADD24R,1.250010X0.699999*%
%ADD25R,0.699999X1.250010*%
%ADD26R,1.816100X1.358900*%
%ADD27R,1.358900X1.816100*%
%ADD28R,1.524000X1.524000*%
%ADD29C,1.524000*%
%ADD30R,1.574800X1.574800*%
%ADD31C,1.574800*%
%ADD32C,1.930400*%
%ADD33C,2.321560*%
%ADD34C,1.999996*%

%LPD*%
G36*
G01X0Y0D02*
G01X0Y49899D01*
G01X47349Y49899D01*
G01X47349Y0D01*
G01X0Y0D01*
G37*

%LPC*%
G36*
G01X22514Y39658D02*
G01X22854Y39658D01*
G01X22870Y39659D01*
G01X22886Y39659D01*
G01X22902Y39660D01*
G01X22918Y39662D01*
G01X22934Y39664D01*
G01X22950Y39666D01*
G01X22966Y39669D01*
G01X22982Y39672D01*
G01X22998Y39676D01*
G01X23013Y39680D01*
G01X23029Y39684D01*
G01X23044Y39689D01*
G01X23059Y39694D01*
G01X23075Y39700D01*
G01X23090Y39706D01*
G01X23104Y39713D01*
G01X23119Y39719D01*
G01X23133Y39727D01*
G01X23148Y39734D01*
G01X23162Y39742D01*
G01X23176Y39751D01*
G01X23189Y39760D01*
G01X23202Y39769D01*
G01X23216Y39778D01*
G01X23228Y39788D01*
G01X23241Y39798D01*
G01X23253Y39809D01*
G01X23265Y39819D01*
G01X23277Y39830D01*
G01X23288Y39842D01*
G01X23300Y39854D01*
G01X23310Y39866D01*
G01X23321Y39878D01*
G01X23331Y39891D01*
G01X23341Y39903D01*
G01X23350Y39916D01*
G01X23359Y39930D01*
G01X23368Y39943D01*
G01X23376Y39957D01*
G01X23385Y39971D01*
G01X23392Y39985D01*
G01X23399Y40000D01*
G01X23406Y40015D01*
G01X23413Y40029D01*
G01X23419Y40044D01*
G01X23425Y40059D01*
G01X23430Y40075D01*
G01X23435Y40090D01*
G01X23439Y40106D01*
G01X23443Y40121D01*
G01X23447Y40137D01*
G01X23450Y40153D01*
G01X23453Y40169D01*
G01X23455Y40185D01*
G01X23457Y40201D01*
G01X23459Y40217D01*
G01X23460Y40233D01*
G01X23460Y40249D01*
G01X23461Y40265D01*
G01X23461Y40719D01*
G01X22514Y40719D01*
G01X22514Y39658D01*
G37*
G36*
G01X21495Y39658D02*
G01X21834Y39658D01*
G01X21834Y40719D01*
G01X20888Y40719D01*
G01X20888Y40265D01*
G01X20888Y40249D01*
G01X20888Y40233D01*
G01X20890Y40217D01*
G01X20891Y40201D01*
G01X20893Y40185D01*
G01X20895Y40169D01*
G01X20898Y40153D01*
G01X20901Y40137D01*
G01X20905Y40121D01*
G01X20909Y40106D01*
G01X20913Y40090D01*
G01X20918Y40075D01*
G01X20924Y40059D01*
G01X20929Y40044D01*
G01X20935Y40029D01*
G01X20942Y40015D01*
G01X20949Y40000D01*
G01X20956Y39985D01*
G01X20964Y39971D01*
G01X20972Y39957D01*
G01X20980Y39943D01*
G01X20989Y39930D01*
G01X20998Y39916D01*
G01X21007Y39903D01*
G01X21017Y39891D01*
G01X21027Y39878D01*
G01X21038Y39866D01*
G01X21049Y39854D01*
G01X21060Y39842D01*
G01X21071Y39830D01*
G01X21083Y39819D01*
G01X21095Y39809D01*
G01X21107Y39798D01*
G01X21120Y39788D01*
G01X21133Y39778D01*
G01X21146Y39769D01*
G01X21159Y39760D01*
G01X21173Y39751D01*
G01X21186Y39742D01*
G01X21200Y39734D01*
G01X21215Y39727D01*
G01X21229Y39719D01*
G01X21244Y39713D01*
G01X21259Y39706D01*
G01X21274Y39700D01*
G01X21289Y39694D01*
G01X21304Y39689D01*
G01X21319Y39684D01*
G01X21335Y39680D01*
G01X21351Y39676D01*
G01X21366Y39672D01*
G01X21382Y39669D01*
G01X21398Y39666D01*
G01X21414Y39664D01*
G01X21430Y39662D01*
G01X21446Y39660D01*
G01X21462Y39659D01*
G01X21478Y39659D01*
G01X21495Y39658D01*
G37*
G36*
G01X9357Y23743D02*
G01X9670Y23743D01*
G01X9670Y23744D01*
G01X9670Y24526D01*
G01X8750Y24526D01*
G01X8750Y24351D01*
G01X8751Y24334D01*
G01X8751Y24318D01*
G01X8752Y24302D01*
G01X8754Y24286D01*
G01X8756Y24270D01*
G01X8758Y24254D01*
G01X8761Y24238D01*
G01X8764Y24222D01*
G01X8768Y24206D01*
G01X8772Y24191D01*
G01X8776Y24175D01*
G01X8781Y24160D01*
G01X8786Y24145D01*
G01X8792Y24129D01*
G01X8798Y24114D01*
G01X8805Y24100D01*
G01X8811Y24085D01*
G01X8819Y24071D01*
G01X8826Y24056D01*
G01X8834Y24042D01*
G01X8843Y24029D01*
G01X8852Y24015D01*
G01X8861Y24002D01*
G01X8870Y23989D01*
G01X8880Y23976D01*
G01X8890Y23963D01*
G01X8901Y23951D01*
G01X8911Y23939D01*
G01X8922Y23927D01*
G01X8934Y23916D01*
G01X8946Y23904D01*
G01X8958Y23894D01*
G01X8970Y23883D01*
G01X8983Y23873D01*
G01X8995Y23863D01*
G01X9008Y23854D01*
G01X9022Y23845D01*
G01X9035Y23836D01*
G01X9049Y23828D01*
G01X9063Y23820D01*
G01X9077Y23812D01*
G01X9092Y23805D01*
G01X9107Y23798D01*
G01X9121Y23791D01*
G01X9136Y23785D01*
G01X9151Y23779D01*
G01X9167Y23774D01*
G01X9182Y23769D01*
G01X9198Y23765D01*
G01X9213Y23761D01*
G01X9229Y23757D01*
G01X9245Y23754D01*
G01X9261Y23751D01*
G01X9277Y23749D01*
G01X9293Y23747D01*
G01X9309Y23745D01*
G01X9325Y23744D01*
G01X9341Y23744D01*
G01X9357Y23743D01*
G37*
G36*
G01X10295Y23743D02*
G01X10607Y23743D01*
G01X10623Y23744D01*
G01X10639Y23744D01*
G01X10655Y23745D01*
G01X10672Y23747D01*
G01X10688Y23749D01*
G01X10704Y23751D01*
G01X10720Y23754D01*
G01X10735Y23757D01*
G01X10751Y23761D01*
G01X10767Y23765D01*
G01X10782Y23769D01*
G01X10798Y23774D01*
G01X10813Y23779D01*
G01X10828Y23785D01*
G01X10843Y23791D01*
G01X10858Y23798D01*
G01X10873Y23805D01*
G01X10887Y23812D01*
G01X10901Y23820D01*
G01X10915Y23828D01*
G01X10929Y23836D01*
G01X10943Y23845D01*
G01X10956Y23854D01*
G01X10969Y23863D01*
G01X10982Y23873D01*
G01X10994Y23883D01*
G01X11007Y23894D01*
G01X11019Y23904D01*
G01X11031Y23916D01*
G01X11042Y23927D01*
G01X11053Y23939D01*
G01X11064Y23951D01*
G01X11074Y23963D01*
G01X11084Y23976D01*
G01X11094Y23989D01*
G01X11104Y24002D01*
G01X11113Y24015D01*
G01X11122Y24029D01*
G01X11130Y24042D01*
G01X11138Y24056D01*
G01X11146Y24071D01*
G01X11153Y24085D01*
G01X11160Y24100D01*
G01X11166Y24114D01*
G01X11172Y24129D01*
G01X11178Y24145D01*
G01X11183Y24160D01*
G01X11188Y24175D01*
G01X11193Y24191D01*
G01X11197Y24206D01*
G01X11200Y24222D01*
G01X11204Y24238D01*
G01X11206Y24254D01*
G01X11209Y24270D01*
G01X11211Y24286D01*
G01X11212Y24302D01*
G01X11213Y24318D01*
G01X11214Y24334D01*
G01X11214Y24351D01*
G01X11214Y24526D01*
G01X10295Y24526D01*
G01X10295Y23744D01*
G01X10295Y23743D01*
G37*
G36*
G01X22514Y41627D02*
G01X23461Y41627D01*
G01X23461Y42081D01*
G01X23460Y42098D01*
G01X23460Y42114D01*
G01X23459Y42130D01*
G01X23457Y42146D01*
G01X23455Y42162D01*
G01X23453Y42178D01*
G01X23450Y42194D01*
G01X23447Y42210D01*
G01X23443Y42226D01*
G01X23439Y42241D01*
G01X23435Y42257D01*
G01X23430Y42272D01*
G01X23425Y42287D01*
G01X23419Y42303D01*
G01X23413Y42317D01*
G01X23406Y42332D01*
G01X23399Y42347D01*
G01X23392Y42361D01*
G01X23385Y42376D01*
G01X23376Y42390D01*
G01X23368Y42403D01*
G01X23359Y42417D01*
G01X23350Y42430D01*
G01X23341Y42443D01*
G01X23331Y42456D01*
G01X23321Y42469D01*
G01X23310Y42481D01*
G01X23300Y42493D01*
G01X23288Y42505D01*
G01X23277Y42516D01*
G01X23265Y42527D01*
G01X23253Y42538D01*
G01X23241Y42549D01*
G01X23228Y42559D01*
G01X23216Y42569D01*
G01X23202Y42578D01*
G01X23189Y42587D01*
G01X23176Y42596D01*
G01X23162Y42604D01*
G01X23148Y42612D01*
G01X23133Y42620D01*
G01X23119Y42627D01*
G01X23104Y42634D01*
G01X23090Y42641D01*
G01X23075Y42647D01*
G01X23059Y42652D01*
G01X23044Y42658D01*
G01X23029Y42663D01*
G01X23013Y42667D01*
G01X22998Y42671D01*
G01X22982Y42675D01*
G01X22966Y42678D01*
G01X22950Y42681D01*
G01X22934Y42683D01*
G01X22918Y42685D01*
G01X22902Y42687D01*
G01X22886Y42688D01*
G01X22870Y42688D01*
G01X22854Y42688D01*
G01X22514Y42688D01*
G01X22514Y41627D01*
G37*
G36*
G01X20888Y41627D02*
G01X21834Y41627D01*
G01X21834Y42688D01*
G01X21495Y42688D01*
G01X21478Y42688D01*
G01X21462Y42688D01*
G01X21446Y42687D01*
G01X21430Y42685D01*
G01X21414Y42683D01*
G01X21398Y42681D01*
G01X21382Y42678D01*
G01X21366Y42675D01*
G01X21351Y42671D01*
G01X21335Y42667D01*
G01X21319Y42663D01*
G01X21304Y42658D01*
G01X21289Y42652D01*
G01X21274Y42647D01*
G01X21259Y42641D01*
G01X21244Y42634D01*
G01X21229Y42627D01*
G01X21215Y42620D01*
G01X21200Y42612D01*
G01X21186Y42604D01*
G01X21173Y42596D01*
G01X21159Y42587D01*
G01X21146Y42578D01*
G01X21133Y42569D01*
G01X21120Y42559D01*
G01X21107Y42549D01*
G01X21095Y42538D01*
G01X21083Y42527D01*
G01X21071Y42516D01*
G01X21060Y42505D01*
G01X21049Y42493D01*
G01X21038Y42481D01*
G01X21027Y42469D01*
G01X21017Y42456D01*
G01X21007Y42443D01*
G01X20998Y42430D01*
G01X20989Y42417D01*
G01X20980Y42403D01*
G01X20972Y42390D01*
G01X20964Y42376D01*
G01X20956Y42361D01*
G01X20949Y42347D01*
G01X20942Y42332D01*
G01X20935Y42317D01*
G01X20929Y42303D01*
G01X20924Y42287D01*
G01X20918Y42272D01*
G01X20913Y42257D01*
G01X20909Y42241D01*
G01X20905Y42226D01*
G01X20901Y42210D01*
G01X20898Y42194D01*
G01X20895Y42178D01*
G01X20893Y42162D01*
G01X20891Y42146D01*
G01X20890Y42130D01*
G01X20888Y42114D01*
G01X20888Y42098D01*
G01X20888Y42081D01*
G01X20888Y41627D01*
G37*
G36*
G01X18445Y43063D02*
G01X18445Y44005D01*
G01X17503Y44005D01*
G01X17529Y43922D01*
G01X17583Y43794D01*
G01X17649Y43672D01*
G01X17728Y43557D01*
G01X17817Y43450D01*
G01X17917Y43353D01*
G01X18025Y43267D01*
G01X18142Y43191D01*
G01X18266Y43128D01*
G01X18395Y43077D01*
G01X18445Y43063D01*
G37*
G36*
G01X41955Y43942D02*
G01X42182Y43948D01*
G01X42408Y43976D01*
G01X42630Y44027D01*
G01X42846Y44099D01*
G01X43053Y44193D01*
G01X43250Y44307D01*
G01X43435Y44440D01*
G01X43606Y44590D01*
G01X43761Y44757D01*
G01X43898Y44939D01*
G01X44017Y45133D01*
G01X44116Y45338D01*
G01X44194Y45552D01*
G01X44250Y45773D01*
G01X44284Y45998D01*
G01X44295Y46225D01*
G01X44284Y46452D01*
G01X44250Y46677D01*
G01X44194Y46898D01*
G01X44116Y47112D01*
G01X44017Y47317D01*
G01X43898Y47511D01*
G01X43761Y47693D01*
G01X43606Y47860D01*
G01X43435Y48010D01*
G01X43250Y48143D01*
G01X43053Y48257D01*
G01X42846Y48351D01*
G01X42630Y48423D01*
G01X42408Y48474D01*
G01X42182Y48502D01*
G01X41955Y48508D01*
G01X41728Y48491D01*
G01X41504Y48451D01*
G01X41284Y48389D01*
G01X41072Y48306D01*
G01X40870Y48202D01*
G01X40679Y48079D01*
G01X40501Y47937D01*
G01X40338Y47778D01*
G01X40191Y47604D01*
G01X40063Y47416D01*
G01X39954Y47216D01*
G01X39866Y47006D01*
G01X39799Y46788D01*
G01X39754Y46565D01*
G01X39731Y46339D01*
G01X39731Y46111D01*
G01X39754Y45885D01*
G01X39799Y45662D01*
G01X39866Y45444D01*
G01X39954Y45234D01*
G01X40063Y45034D01*
G01X40191Y44846D01*
G01X40338Y44672D01*
G01X40501Y44513D01*
G01X40679Y44371D01*
G01X40870Y44247D01*
G01X41072Y44144D01*
G01X41284Y44060D01*
G01X41504Y43999D01*
G01X41728Y43959D01*
G01X41955Y43942D01*
G37*
G36*
G01X34366Y5839D02*
G01X35379Y5839D01*
G01X35332Y5967D01*
G01X35264Y6108D01*
G01X35183Y6242D01*
G01X35088Y6367D01*
G01X34981Y6482D01*
G01X34864Y6586D01*
G01X34737Y6677D01*
G01X34601Y6755D01*
G01X34458Y6820D01*
G01X34366Y6851D01*
G01X34366Y5839D01*
G37*
G36*
G01X41955Y2286D02*
G01X42182Y2292D01*
G01X42408Y2320D01*
G01X42630Y2371D01*
G01X42846Y2443D01*
G01X43053Y2537D01*
G01X43250Y2651D01*
G01X43435Y2784D01*
G01X43606Y2934D01*
G01X43761Y3101D01*
G01X43898Y3283D01*
G01X44017Y3477D01*
G01X44116Y3682D01*
G01X44194Y3896D01*
G01X44250Y4117D01*
G01X44284Y4342D01*
G01X44295Y4569D01*
G01X44284Y4796D01*
G01X44250Y5021D01*
G01X44194Y5242D01*
G01X44116Y5456D01*
G01X44017Y5661D01*
G01X43898Y5855D01*
G01X43761Y6037D01*
G01X43606Y6204D01*
G01X43435Y6354D01*
G01X43250Y6487D01*
G01X43053Y6601D01*
G01X42846Y6695D01*
G01X42630Y6767D01*
G01X42408Y6818D01*
G01X42182Y6846D01*
G01X41955Y6852D01*
G01X41728Y6835D01*
G01X41504Y6795D01*
G01X41284Y6733D01*
G01X41072Y6650D01*
G01X40870Y6546D01*
G01X40679Y6423D01*
G01X40501Y6281D01*
G01X40338Y6122D01*
G01X40191Y5948D01*
G01X40063Y5760D01*
G01X39954Y5560D01*
G01X39866Y5350D01*
G01X39799Y5132D01*
G01X39754Y4909D01*
G01X39731Y4683D01*
G01X39731Y4455D01*
G01X39754Y4229D01*
G01X39799Y4006D01*
G01X39866Y3788D01*
G01X39954Y3578D01*
G01X40063Y3378D01*
G01X40191Y3190D01*
G01X40338Y3016D01*
G01X40501Y2857D01*
G01X40679Y2715D01*
G01X40870Y2591D01*
G01X41072Y2488D01*
G01X41284Y2404D01*
G01X41504Y2343D01*
G01X41728Y2303D01*
G01X41955Y2286D01*
G37*
G36*
G01X10048Y2617D02*
G01X31151Y2617D01*
G01X31170Y2617D01*
G01X31189Y2618D01*
G01X31209Y2619D01*
G01X31228Y2620D01*
G01X31247Y2622D01*
G01X31266Y2625D01*
G01X31286Y2628D01*
G01X31305Y2631D01*
G01X31324Y2635D01*
G01X31343Y2639D01*
G01X31361Y2644D01*
G01X31380Y2649D01*
G01X31399Y2655D01*
G01X31417Y2661D01*
G01X31435Y2667D01*
G01X31453Y2674D01*
G01X31471Y2681D01*
G01X31489Y2689D01*
G01X31507Y2697D01*
G01X31524Y2705D01*
G01X31541Y2714D01*
G01X31558Y2724D01*
G01X31575Y2733D01*
G01X31592Y2743D01*
G01X31608Y2754D01*
G01X31624Y2765D01*
G01X31640Y2776D01*
G01X31655Y2788D01*
G01X31671Y2799D01*
G01X31686Y2812D01*
G01X31700Y2824D01*
G01X31715Y2837D01*
G01X31729Y2851D01*
G01X31743Y2864D01*
G01X31941Y3065D01*
G01X31954Y3079D01*
G01X31967Y3093D01*
G01X31979Y3107D01*
G01X31992Y3122D01*
G01X32004Y3136D01*
G01X32015Y3152D01*
G01X32026Y3167D01*
G01X32037Y3183D01*
G01X32048Y3199D01*
G01X32058Y3215D01*
G01X32068Y3231D01*
G01X32077Y3248D01*
G01X32086Y3264D01*
G01X32095Y3281D01*
G01X32103Y3299D01*
G01X32111Y3316D01*
G01X32118Y3334D01*
G01X32125Y3351D01*
G01X32132Y3369D01*
G01X32138Y3387D01*
G01X32144Y3405D01*
G01X32149Y3424D01*
G01X32154Y3442D01*
G01X32159Y3461D01*
G01X32163Y3479D01*
G01X32167Y3498D01*
G01X32170Y3517D01*
G01X32173Y3535D01*
G01X32175Y3554D01*
G01X32177Y3573D01*
G01X32179Y3592D01*
G01X32180Y3611D01*
G01X32180Y3630D01*
G01X32181Y3650D01*
G01X32181Y4026D01*
G01X32197Y4036D01*
G01X32324Y4127D01*
G01X32441Y4231D01*
G01X32548Y4346D01*
G01X32613Y4432D01*
G01X32630Y4407D01*
G01X32731Y4287D01*
G01X32843Y4178D01*
G01X32966Y4080D01*
G01X33098Y3995D01*
G01X33237Y3923D01*
G01X33383Y3866D01*
G01X33401Y3861D01*
G01X33401Y4874D01*
G01X32839Y4874D01*
G01X32846Y4893D01*
G01X32885Y5045D01*
G01X32908Y5200D01*
G01X32916Y5356D01*
G01X32908Y5513D01*
G01X32885Y5668D01*
G01X32846Y5820D01*
G01X32839Y5839D01*
G01X33401Y5839D01*
G01X33401Y6852D01*
G01X33383Y6847D01*
G01X33237Y6789D01*
G01X33098Y6718D01*
G01X32966Y6633D01*
G01X32843Y6535D01*
G01X32731Y6426D01*
G01X32630Y6306D01*
G01X32613Y6281D01*
G01X32548Y6367D01*
G01X32441Y6482D01*
G01X32324Y6586D01*
G01X32197Y6677D01*
G01X32061Y6755D01*
G01X31918Y6820D01*
G01X31769Y6870D01*
G01X31617Y6905D01*
G01X31461Y6924D01*
G01X31304Y6928D01*
G01X31148Y6916D01*
G01X30994Y6889D01*
G01X30843Y6847D01*
G01X30697Y6789D01*
G01X30558Y6718D01*
G01X30426Y6633D01*
G01X30303Y6535D01*
G01X30191Y6426D01*
G01X30090Y6306D01*
G01X30073Y6281D01*
G01X30008Y6367D01*
G01X29901Y6482D01*
G01X29784Y6586D01*
G01X29657Y6677D01*
G01X29521Y6755D01*
G01X29378Y6820D01*
G01X29229Y6870D01*
G01X29077Y6905D01*
G01X28921Y6924D01*
G01X28764Y6928D01*
G01X28608Y6916D01*
G01X28601Y6915D01*
G01X26906Y8753D01*
G01X26906Y9274D01*
G01X27541Y9910D01*
G01X27555Y9924D01*
G01X27568Y9939D01*
G01X27581Y9954D01*
G01X27594Y9969D01*
G01X27607Y9984D01*
G01X27619Y9999D01*
G01X27631Y10015D01*
G01X27642Y10031D01*
G01X27653Y10048D01*
G01X27664Y10064D01*
G01X27674Y10081D01*
G01X27685Y10098D01*
G01X27694Y10115D01*
G01X27703Y10133D01*
G01X27712Y10150D01*
G01X27721Y10168D01*
G01X27729Y10186D01*
G01X27737Y10204D01*
G01X27744Y10223D01*
G01X27751Y10241D01*
G01X27758Y10260D01*
G01X27764Y10278D01*
G01X27770Y10297D01*
G01X27775Y10316D01*
G01X27780Y10335D01*
G01X27784Y10355D01*
G01X27788Y10374D01*
G01X27792Y10393D01*
G01X27795Y10413D01*
G01X27798Y10432D01*
G01X27800Y10452D01*
G01X27802Y10472D01*
G01X27804Y10491D01*
G01X27805Y10511D01*
G01X27805Y10531D01*
G01X27806Y10551D01*
G01X27806Y12024D01*
G01X28139Y12358D01*
G01X28153Y12372D01*
G01X28167Y12386D01*
G01X28180Y12401D01*
G01X28193Y12416D01*
G01X28205Y12432D01*
G01X28218Y12447D01*
G01X28229Y12463D01*
G01X28241Y12479D01*
G01X28252Y12495D01*
G01X28263Y12512D01*
G01X28273Y12529D01*
G01X28284Y12546D01*
G01X28293Y12563D01*
G01X28303Y12580D01*
G01X28312Y12598D01*
G01X28320Y12616D01*
G01X28328Y12634D01*
G01X28336Y12652D01*
G01X28343Y12671D01*
G01X28350Y12689D01*
G01X28357Y12708D01*
G01X28363Y12727D01*
G01X28369Y12745D01*
G01X28374Y12764D01*
G01X28379Y12784D01*
G01X28384Y12803D01*
G01X28388Y12822D01*
G01X28391Y12842D01*
G01X28394Y12861D01*
G01X28397Y12881D01*
G01X28400Y12900D01*
G01X28402Y12920D01*
G01X28403Y12940D01*
G01X28404Y12960D01*
G01X28405Y12979D01*
G01X28405Y12999D01*
G01X28405Y13205D01*
G01X33751Y13205D01*
G01X33772Y13205D01*
G01X33793Y13206D01*
G01X33814Y13207D01*
G01X33835Y13209D01*
G01X33856Y13211D01*
G01X33877Y13213D01*
G01X33898Y13216D01*
G01X33919Y13219D01*
G01X33940Y13223D01*
G01X33960Y13228D01*
G01X33981Y13232D01*
G01X34002Y13237D01*
G01X34022Y13243D01*
G01X34042Y13249D01*
G01X34062Y13255D01*
G01X34082Y13262D01*
G01X34102Y13269D01*
G01X34122Y13277D01*
G01X34141Y13285D01*
G01X34161Y13294D01*
G01X34180Y13302D01*
G01X34199Y13312D01*
G01X34218Y13321D01*
G01X34236Y13332D01*
G01X34254Y13342D01*
G01X34273Y13353D01*
G01X34290Y13364D01*
G01X34308Y13376D01*
G01X34325Y13388D01*
G01X34343Y13400D01*
G01X34359Y13413D01*
G01X34376Y13426D01*
G01X34392Y13440D01*
G01X34408Y13453D01*
G01X34424Y13467D01*
G01X34439Y13482D01*
G01X34455Y13497D01*
G01X35813Y14855D01*
G01X35854Y14869D01*
G01X35955Y14914D01*
G01X36050Y14969D01*
G01X36140Y15034D01*
G01X36222Y15107D01*
G01X36298Y15188D01*
G01X36364Y15276D01*
G01X36422Y15370D01*
G01X36470Y15469D01*
G01X36507Y15573D01*
G01X36535Y15680D01*
G01X36551Y15789D01*
G01X36557Y15899D01*
G01X36551Y16010D01*
G01X36535Y16119D01*
G01X36507Y16226D01*
G01X36470Y16329D01*
G01X36422Y16429D01*
G01X36364Y16523D01*
G01X36298Y16611D01*
G01X36222Y16692D01*
G01X36140Y16765D01*
G01X36050Y16829D01*
G01X35955Y16885D01*
G01X35854Y16930D01*
G01X35749Y16965D01*
G01X35642Y16990D01*
G01X35532Y17003D01*
G01X35422Y17006D01*
G01X35312Y16998D01*
G01X35203Y16979D01*
G01X35097Y16949D01*
G01X34994Y16908D01*
G01X34896Y16858D01*
G01X34803Y16798D01*
G01X34717Y16729D01*
G01X34638Y16652D01*
G01X34567Y16568D01*
G01X34505Y16477D01*
G01X34452Y16380D01*
G01X34409Y16278D01*
G01X34404Y16262D01*
G01X33338Y15196D01*
G01X28582Y15196D01*
G01X28582Y15750D01*
G01X28581Y15769D01*
G01X28581Y15788D01*
G01X28580Y15807D01*
G01X28578Y15826D01*
G01X28576Y15845D01*
G01X28574Y15864D01*
G01X28571Y15883D01*
G01X28568Y15902D01*
G01X28564Y15921D01*
G01X28560Y15939D01*
G01X28555Y15958D01*
G01X28550Y15976D01*
G01X28545Y15994D01*
G01X28539Y16013D01*
G01X28533Y16031D01*
G01X28526Y16048D01*
G01X28519Y16066D01*
G01X28512Y16084D01*
G01X28504Y16101D01*
G01X28496Y16118D01*
G01X28487Y16135D01*
G01X28478Y16152D01*
G01X28468Y16169D01*
G01X28459Y16185D01*
G01X28449Y16201D01*
G01X28438Y16217D01*
G01X28427Y16233D01*
G01X28416Y16248D01*
G01X28404Y16263D01*
G01X28392Y16278D01*
G01X28380Y16293D01*
G01X28367Y16307D01*
G01X28355Y16321D01*
G01X28341Y16335D01*
G01X28328Y16348D01*
G01X28314Y16361D01*
G01X28281Y16392D01*
G01X28266Y16405D01*
G01X28252Y16418D01*
G01X28237Y16430D01*
G01X28221Y16442D01*
G01X28206Y16453D01*
G01X28190Y16465D01*
G01X28174Y16475D01*
G01X28158Y16486D01*
G01X28141Y16496D01*
G01X28124Y16506D01*
G01X28107Y16515D01*
G01X28090Y16524D01*
G01X28073Y16532D01*
G01X28055Y16540D01*
G01X28037Y16548D01*
G01X28019Y16555D01*
G01X28001Y16562D01*
G01X27983Y16569D01*
G01X27965Y16575D01*
G01X27946Y16580D01*
G01X27927Y16585D01*
G01X27909Y16590D01*
G01X27890Y16594D01*
G01X27871Y16598D01*
G01X27852Y16601D01*
G01X27832Y16604D01*
G01X27813Y16607D01*
G01X27794Y16609D01*
G01X27775Y16611D01*
G01X27755Y16612D01*
G01X27736Y16612D01*
G01X27716Y16613D01*
G01X26986Y16613D01*
G01X26998Y16618D01*
G01X27009Y16623D01*
G01X27037Y16636D01*
G01X27047Y16641D01*
G01X27074Y16656D01*
G01X27083Y16662D01*
G01X27108Y16677D01*
G01X27118Y16683D01*
G01X27130Y16691D01*
G01X27486Y16691D01*
G01X27486Y16698D01*
G01X27484Y16709D01*
G01X27479Y16738D01*
G01X27477Y16749D01*
G01X27470Y16779D01*
G01X27467Y16790D01*
G01X27459Y16819D01*
G01X27456Y16829D01*
G01X27446Y16858D01*
G01X27442Y16868D01*
G01X27431Y16897D01*
G01X27426Y16908D01*
G01X27414Y16935D01*
G01X27409Y16945D01*
G01X27396Y16972D01*
G01X27392Y16979D01*
G01X27395Y16986D01*
G01X27409Y17013D01*
G01X27414Y17023D01*
G01X27426Y17050D01*
G01X27431Y17060D01*
G01X27442Y17090D01*
G01X27446Y17100D01*
G01X27456Y17129D01*
G01X27459Y17139D01*
G01X27467Y17168D01*
G01X27470Y17179D01*
G01X27477Y17209D01*
G01X27479Y17220D01*
G01X27484Y17249D01*
G01X27486Y17260D01*
G01X27489Y17291D01*
G01X27491Y17302D01*
G01X27493Y17332D01*
G01X27493Y17343D01*
G01X27494Y17373D01*
G01X27494Y17385D01*
G01X27493Y17415D01*
G01X27493Y17426D01*
G01X27491Y17456D01*
G01X27489Y17467D01*
G01X27486Y17498D01*
G01X27484Y17509D01*
G01X27479Y17538D01*
G01X27477Y17549D01*
G01X27470Y17579D01*
G01X27467Y17590D01*
G01X27459Y17619D01*
G01X27456Y17629D01*
G01X27446Y17658D01*
G01X27442Y17668D01*
G01X27431Y17697D01*
G01X27426Y17708D01*
G01X27414Y17735D01*
G01X27409Y17745D01*
G01X27396Y17772D01*
G01X27392Y17779D01*
G01X27395Y17786D01*
G01X27409Y17813D01*
G01X27414Y17823D01*
G01X27426Y17850D01*
G01X27431Y17861D01*
G01X27442Y17890D01*
G01X27446Y17900D01*
G01X27456Y17929D01*
G01X27459Y17939D01*
G01X27467Y17968D01*
G01X27470Y17979D01*
G01X27477Y18009D01*
G01X27479Y18020D01*
G01X27484Y18049D01*
G01X27486Y18060D01*
G01X27489Y18091D01*
G01X27491Y18102D01*
G01X27493Y18132D01*
G01X27493Y18143D01*
G01X27494Y18173D01*
G01X27494Y18185D01*
G01X27493Y18215D01*
G01X27493Y18226D01*
G01X27491Y18256D01*
G01X27489Y18267D01*
G01X27486Y18298D01*
G01X27484Y18309D01*
G01X27479Y18338D01*
G01X27477Y18349D01*
G01X27470Y18379D01*
G01X27467Y18390D01*
G01X27459Y18419D01*
G01X27456Y18429D01*
G01X27446Y18458D01*
G01X27442Y18468D01*
G01X27431Y18498D01*
G01X27426Y18508D01*
G01X27414Y18535D01*
G01X27409Y18545D01*
G01X27396Y18572D01*
G01X27392Y18579D01*
G01X27395Y18586D01*
G01X27409Y18613D01*
G01X27414Y18623D01*
G01X27426Y18650D01*
G01X27431Y18661D01*
G01X27442Y18690D01*
G01X27446Y18700D01*
G01X27456Y18729D01*
G01X27459Y18740D01*
G01X27467Y18768D01*
G01X27470Y18779D01*
G01X27477Y18810D01*
G01X27479Y18821D01*
G01X27484Y18849D01*
G01X27486Y18860D01*
G01X27489Y18891D01*
G01X27491Y18902D01*
G01X27492Y18915D01*
G01X28794Y20217D01*
G01X32549Y20217D01*
G01X32569Y20218D01*
G01X32588Y20218D01*
G01X32607Y20219D01*
G01X32626Y20221D01*
G01X32645Y20223D01*
G01X32664Y20225D01*
G01X32683Y20228D01*
G01X32702Y20232D01*
G01X32721Y20235D01*
G01X32740Y20240D01*
G01X32759Y20244D01*
G01X32777Y20249D01*
G01X32796Y20255D01*
G01X32814Y20261D01*
G01X32832Y20267D01*
G01X32850Y20274D01*
G01X32868Y20281D01*
G01X32886Y20288D01*
G01X32903Y20296D01*
G01X32920Y20305D01*
G01X32937Y20313D01*
G01X32954Y20323D01*
G01X32971Y20332D01*
G01X32987Y20342D01*
G01X33004Y20352D01*
G01X33020Y20363D01*
G01X33035Y20374D01*
G01X33051Y20385D01*
G01X33066Y20397D01*
G01X33081Y20409D01*
G01X33096Y20422D01*
G01X33110Y20435D01*
G01X33124Y20448D01*
G01X33138Y20461D01*
G01X33622Y20945D01*
G01X33632Y20946D01*
G01X33742Y20959D01*
G01X33849Y20984D01*
G01X33954Y21019D01*
G01X34054Y21064D01*
G01X34150Y21120D01*
G01X34240Y21184D01*
G01X34322Y21257D01*
G01X34397Y21338D01*
G01X34464Y21426D01*
G01X34522Y21520D01*
G01X34569Y21620D01*
G01X34607Y21723D01*
G01X34634Y21830D01*
G01X34651Y21939D01*
G01X34656Y22050D01*
G01X34651Y22160D01*
G01X34634Y22269D01*
G01X34607Y22376D01*
G01X34569Y22480D01*
G01X34522Y22579D01*
G01X34483Y22643D01*
G01X35250Y22643D01*
G01X35239Y22640D01*
G01X35224Y22635D01*
G01X35208Y22631D01*
G01X35193Y22625D01*
G01X35178Y22620D01*
G01X35163Y22613D01*
G01X35148Y22607D01*
G01X35134Y22600D01*
G01X35119Y22593D01*
G01X35105Y22585D01*
G01X35091Y22577D01*
G01X35077Y22569D01*
G01X35063Y22560D01*
G01X35050Y22551D01*
G01X35037Y22541D01*
G01X35024Y22532D01*
G01X35012Y22522D01*
G01X34999Y22511D01*
G01X34987Y22500D01*
G01X34976Y22489D01*
G01X34964Y22478D01*
G01X34953Y22466D01*
G01X34942Y22454D01*
G01X34932Y22442D01*
G01X34922Y22429D01*
G01X34912Y22416D01*
G01X34902Y22403D01*
G01X34893Y22390D01*
G01X34884Y22376D01*
G01X34876Y22362D01*
G01X34868Y22348D01*
G01X34860Y22334D01*
G01X34853Y22320D01*
G01X34846Y22305D01*
G01X34840Y22290D01*
G01X34834Y22275D01*
G01X34828Y22260D01*
G01X34823Y22245D01*
G01X34818Y22229D01*
G01X34813Y22214D01*
G01X34809Y22198D01*
G01X34806Y22183D01*
G01X34802Y22167D01*
G01X34800Y22151D01*
G01X34797Y22135D01*
G01X34795Y22119D01*
G01X34794Y22103D01*
G01X34793Y22087D01*
G01X34792Y22070D01*
G01X34792Y22054D01*
G01X34792Y21654D01*
G01X35849Y21654D01*
G01X35849Y22641D01*
G01X36273Y22641D01*
G01X36317Y22640D01*
G01X36332Y22641D01*
G01X36750Y22641D01*
G01X36750Y21654D01*
G01X37807Y21654D01*
G01X37807Y22054D01*
G01X37807Y22070D01*
G01X37806Y22087D01*
G01X37805Y22103D01*
G01X37803Y22119D01*
G01X37801Y22135D01*
G01X37799Y22151D01*
G01X37796Y22167D01*
G01X37793Y22183D01*
G01X37789Y22198D01*
G01X37785Y22214D01*
G01X37781Y22229D01*
G01X37776Y22245D01*
G01X37771Y22260D01*
G01X37765Y22275D01*
G01X37759Y22290D01*
G01X37753Y22305D01*
G01X37746Y22320D01*
G01X37738Y22334D01*
G01X37731Y22348D01*
G01X37723Y22362D01*
G01X37714Y22376D01*
G01X37706Y22390D01*
G01X37697Y22403D01*
G01X37687Y22416D01*
G01X37677Y22429D01*
G01X37667Y22442D01*
G01X37657Y22454D01*
G01X37646Y22466D01*
G01X37635Y22478D01*
G01X37623Y22489D01*
G01X37612Y22500D01*
G01X37600Y22511D01*
G01X37587Y22522D01*
G01X37575Y22532D01*
G01X37562Y22541D01*
G01X37549Y22551D01*
G01X37535Y22560D01*
G01X37522Y22569D01*
G01X37508Y22577D01*
G01X37494Y22585D01*
G01X37480Y22593D01*
G01X37465Y22600D01*
G01X37451Y22607D01*
G01X37436Y22613D01*
G01X37421Y22620D01*
G01X37406Y22625D01*
G01X37390Y22631D01*
G01X37375Y22635D01*
G01X37360Y22640D01*
G01X37344Y22644D01*
G01X37328Y22648D01*
G01X37312Y22651D01*
G01X37310Y22651D01*
G01X37312Y22652D01*
G01X37328Y22655D01*
G01X37344Y22658D01*
G01X37360Y22662D01*
G01X37375Y22667D01*
G01X37390Y22672D01*
G01X37406Y22677D01*
G01X37421Y22683D01*
G01X37436Y22689D01*
G01X37451Y22695D01*
G01X37465Y22702D01*
G01X37480Y22709D01*
G01X37494Y22717D01*
G01X37508Y22725D01*
G01X37522Y22733D01*
G01X37535Y22742D01*
G01X37549Y22751D01*
G01X37562Y22761D01*
G01X37575Y22771D01*
G01X37587Y22781D01*
G01X37600Y22791D01*
G01X37612Y22802D01*
G01X37623Y22813D01*
G01X37635Y22825D01*
G01X37646Y22836D01*
G01X37657Y22848D01*
G01X37667Y22861D01*
G01X37677Y22873D01*
G01X37687Y22886D01*
G01X37697Y22899D01*
G01X37706Y22912D01*
G01X37714Y22926D01*
G01X37723Y22940D01*
G01X37731Y22954D01*
G01X37738Y22968D01*
G01X37746Y22983D01*
G01X37753Y22997D01*
G01X37759Y23012D01*
G01X37765Y23027D01*
G01X37771Y23042D01*
G01X37776Y23057D01*
G01X37781Y23073D01*
G01X37785Y23088D01*
G01X37789Y23104D01*
G01X39104Y23104D01*
G01X39104Y15933D01*
G01X39102Y15930D01*
G01X39059Y15828D01*
G01X39027Y15722D01*
G01X39005Y15614D01*
G01X38994Y15504D01*
G01X38994Y15394D01*
G01X39005Y15284D01*
G01X39027Y15176D01*
G01X39059Y15071D01*
G01X39102Y14969D01*
G01X39155Y14872D01*
G01X39217Y14781D01*
G01X39288Y14696D01*
G01X39367Y14619D01*
G01X39453Y14550D01*
G01X39546Y14491D01*
G01X39644Y14440D01*
G01X39747Y14400D01*
G01X39853Y14370D01*
G01X39962Y14351D01*
G01X40072Y14343D01*
G01X40182Y14345D01*
G01X40292Y14359D01*
G01X40399Y14384D01*
G01X40504Y14419D01*
G01X40605Y14464D01*
G01X40700Y14519D01*
G01X40790Y14584D01*
G01X40872Y14657D01*
G01X40948Y14738D01*
G01X41014Y14826D01*
G01X41072Y14920D01*
G01X41120Y15019D01*
G01X41157Y15123D01*
G01X41185Y15230D01*
G01X41201Y15339D01*
G01X41207Y15449D01*
G01X41201Y15560D01*
G01X41185Y15669D01*
G01X41157Y15776D01*
G01X41120Y15879D01*
G01X41095Y15931D01*
G01X41095Y23999D01*
G01X41095Y24021D01*
G01X41094Y24042D01*
G01X41093Y24063D01*
G01X41091Y24084D01*
G01X41089Y24105D01*
G01X41087Y24126D01*
G01X41084Y24147D01*
G01X41081Y24168D01*
G01X41077Y24188D01*
G01X41073Y24209D01*
G01X41068Y24230D01*
G01X41063Y24250D01*
G01X41057Y24271D01*
G01X41051Y24291D01*
G01X41045Y24311D01*
G01X41038Y24331D01*
G01X41031Y24351D01*
G01X41023Y24371D01*
G01X41015Y24390D01*
G01X41007Y24410D01*
G01X40998Y24429D01*
G01X40988Y24448D01*
G01X40979Y24466D01*
G01X40969Y24485D01*
G01X40958Y24503D01*
G01X40947Y24521D01*
G01X40936Y24539D01*
G01X40924Y24557D01*
G01X40912Y24574D01*
G01X40900Y24591D01*
G01X40887Y24608D01*
G01X40874Y24625D01*
G01X40861Y24641D01*
G01X40847Y24657D01*
G01X40833Y24673D01*
G01X40818Y24688D01*
G01X40803Y24703D01*
G01X40703Y24803D01*
G01X40688Y24818D01*
G01X40673Y24833D01*
G01X40657Y24847D01*
G01X40641Y24861D01*
G01X40625Y24874D01*
G01X40608Y24887D01*
G01X40591Y24900D01*
G01X40574Y24912D01*
G01X40557Y24924D01*
G01X40539Y24936D01*
G01X40521Y24947D01*
G01X40503Y24958D01*
G01X40485Y24969D01*
G01X40466Y24979D01*
G01X40448Y24988D01*
G01X40429Y24998D01*
G01X40409Y25007D01*
G01X40390Y25015D01*
G01X40371Y25023D01*
G01X40351Y25031D01*
G01X40331Y25038D01*
G01X40311Y25045D01*
G01X40291Y25051D01*
G01X40271Y25057D01*
G01X40250Y25063D01*
G01X40230Y25068D01*
G01X40209Y25073D01*
G01X40188Y25077D01*
G01X40168Y25081D01*
G01X40147Y25084D01*
G01X40126Y25087D01*
G01X40105Y25089D01*
G01X40084Y25091D01*
G01X40063Y25093D01*
G01X40042Y25094D01*
G01X40021Y25095D01*
G01X39999Y25095D01*
G01X37754Y25095D01*
G01X37753Y25099D01*
G01X37746Y25114D01*
G01X37738Y25128D01*
G01X37731Y25142D01*
G01X37723Y25156D01*
G01X37714Y25170D01*
G01X37706Y25184D01*
G01X37697Y25197D01*
G01X37687Y25210D01*
G01X37677Y25223D01*
G01X37667Y25236D01*
G01X37657Y25248D01*
G01X37646Y25260D01*
G01X37635Y25272D01*
G01X37623Y25283D01*
G01X37612Y25294D01*
G01X37600Y25305D01*
G01X37587Y25316D01*
G01X37575Y25326D01*
G01X37562Y25335D01*
G01X37549Y25345D01*
G01X37535Y25354D01*
G01X37522Y25363D01*
G01X37508Y25371D01*
G01X37494Y25379D01*
G01X37480Y25387D01*
G01X37465Y25394D01*
G01X37451Y25401D01*
G01X37436Y25407D01*
G01X37421Y25414D01*
G01X37406Y25419D01*
G01X37390Y25425D01*
G01X37375Y25429D01*
G01X37360Y25434D01*
G01X37344Y25438D01*
G01X37328Y25442D01*
G01X37312Y25445D01*
G01X37296Y25448D01*
G01X37280Y25450D01*
G01X37264Y25452D01*
G01X37248Y25453D01*
G01X37232Y25454D01*
G01X37216Y25455D01*
G01X37200Y25455D01*
G01X36357Y25455D01*
G01X36347Y25456D01*
G01X36322Y25456D01*
G01X36298Y25457D01*
G01X32405Y25457D01*
G01X32405Y28938D01*
G01X33447Y28938D01*
G01X33471Y28938D01*
G01X33496Y28939D01*
G01X33520Y28940D01*
G01X33545Y28941D01*
G01X33569Y28943D01*
G01X33594Y28946D01*
G01X33618Y28948D01*
G01X33643Y28952D01*
G01X33667Y28955D01*
G01X33691Y28959D01*
G01X33715Y28964D01*
G01X33739Y28969D01*
G01X33763Y28974D01*
G01X33787Y28980D01*
G01X33811Y28986D01*
G01X33835Y28992D01*
G01X33858Y28999D01*
G01X33882Y29007D01*
G01X33905Y29015D01*
G01X33928Y29023D01*
G01X33951Y29031D01*
G01X33974Y29040D01*
G01X33997Y29050D01*
G01X34019Y29060D01*
G01X34042Y29070D01*
G01X34064Y29080D01*
G01X34086Y29091D01*
G01X34108Y29103D01*
G01X34129Y29114D01*
G01X34151Y29127D01*
G01X34172Y29139D01*
G01X34193Y29152D01*
G01X34213Y29165D01*
G01X34234Y29179D01*
G01X34254Y29193D01*
G01X34274Y29207D01*
G01X34294Y29221D01*
G01X34313Y29236D01*
G01X34333Y29252D01*
G01X34352Y29267D01*
G01X34370Y29283D01*
G01X34389Y29300D01*
G01X34407Y29316D01*
G01X34425Y29333D01*
G01X34442Y29350D01*
G01X37594Y32505D01*
G01X37611Y32523D01*
G01X37628Y32540D01*
G01X37645Y32559D01*
G01X37661Y32577D01*
G01X37677Y32596D01*
G01X37693Y32614D01*
G01X37708Y32634D01*
G01X37723Y32653D01*
G01X37737Y32673D01*
G01X37752Y32693D01*
G01X37766Y32713D01*
G01X37779Y32734D01*
G01X37792Y32754D01*
G01X37805Y32775D01*
G01X37818Y32796D01*
G01X37830Y32818D01*
G01X37841Y32839D01*
G01X37853Y32861D01*
G01X37864Y32883D01*
G01X37874Y32905D01*
G01X37884Y32928D01*
G01X37894Y32950D01*
G01X37904Y32973D01*
G01X37913Y32996D01*
G01X37921Y33019D01*
G01X37929Y33042D01*
G01X37937Y33065D01*
G01X37944Y33088D01*
G01X37951Y33112D01*
G01X37958Y33136D01*
G01X37964Y33159D01*
G01X37970Y33183D01*
G01X37975Y33207D01*
G01X37980Y33231D01*
G01X37985Y33255D01*
G01X37989Y33280D01*
G01X37992Y33304D01*
G01X37995Y33328D01*
G01X37998Y33353D01*
G01X38001Y33377D01*
G01X38002Y33401D01*
G01X38004Y33426D01*
G01X38005Y33451D01*
G01X38006Y33475D01*
G01X38006Y33500D01*
G01X38006Y43515D01*
G01X38008Y43531D01*
G01X38010Y43547D01*
G01X38012Y43563D01*
G01X38013Y43579D01*
G01X38013Y43595D01*
G01X38014Y43611D01*
G01X38014Y44212D01*
G01X38016Y44232D01*
G01X38019Y44259D01*
G01X38020Y44268D01*
G01X38021Y44276D01*
G01X38022Y44302D01*
G01X38024Y44329D01*
G01X38025Y44337D01*
G01X38025Y44346D01*
G01X38026Y44372D01*
G01X38026Y44399D01*
G01X38026Y46979D01*
G01X38026Y47004D01*
G01X38025Y47028D01*
G01X38024Y47053D01*
G01X38023Y47078D01*
G01X38021Y47102D01*
G01X38018Y47126D01*
G01X38016Y47151D01*
G01X38013Y47175D01*
G01X38009Y47199D01*
G01X38005Y47224D01*
G01X38000Y47248D01*
G01X37995Y47272D01*
G01X37990Y47296D01*
G01X37984Y47320D01*
G01X37978Y47344D01*
G01X37972Y47367D01*
G01X37965Y47391D01*
G01X37957Y47414D01*
G01X37950Y47437D01*
G01X37941Y47461D01*
G01X37933Y47484D01*
G01X37924Y47506D01*
G01X37914Y47529D01*
G01X37905Y47552D01*
G01X37894Y47574D01*
G01X37884Y47596D01*
G01X37873Y47618D01*
G01X37862Y47640D01*
G01X37850Y47662D01*
G01X37838Y47683D01*
G01X37825Y47704D01*
G01X37812Y47725D01*
G01X37799Y47746D01*
G01X37786Y47766D01*
G01X37772Y47786D01*
G01X37757Y47806D01*
G01X37743Y47826D01*
G01X37728Y47846D01*
G01X37713Y47865D01*
G01X37697Y47884D01*
G01X37681Y47902D01*
G01X37665Y47921D01*
G01X37648Y47939D01*
G01X37631Y47957D01*
G01X37614Y47974D01*
G01X37594Y47995D01*
G01X37576Y48012D01*
G01X37558Y48029D01*
G01X37540Y48045D01*
G01X37522Y48062D01*
G01X37503Y48078D01*
G01X37484Y48093D01*
G01X37465Y48108D01*
G01X37446Y48123D01*
G01X37426Y48138D01*
G01X37406Y48152D01*
G01X37386Y48166D01*
G01X37365Y48180D01*
G01X37344Y48193D01*
G01X37324Y48206D01*
G01X37302Y48218D01*
G01X37281Y48230D01*
G01X37259Y48242D01*
G01X37238Y48253D01*
G01X37216Y48264D01*
G01X37194Y48275D01*
G01X37171Y48285D01*
G01X37149Y48295D01*
G01X37126Y48304D01*
G01X37103Y48313D01*
G01X37080Y48322D01*
G01X37057Y48330D01*
G01X37034Y48338D01*
G01X37010Y48345D01*
G01X36987Y48352D01*
G01X36963Y48359D01*
G01X36939Y48365D01*
G01X36915Y48371D01*
G01X36891Y48376D01*
G01X36867Y48381D01*
G01X36843Y48385D01*
G01X36819Y48389D01*
G01X36795Y48393D01*
G01X36770Y48396D01*
G01X36746Y48399D01*
G01X36721Y48401D01*
G01X36697Y48403D01*
G01X36673Y48405D01*
G01X36648Y48406D01*
G01X36623Y48406D01*
G01X36599Y48407D01*
G01X12596Y48407D01*
G01X12571Y48406D01*
G01X12547Y48406D01*
G01X12522Y48405D01*
G01X12498Y48403D01*
G01X12473Y48401D01*
G01X12449Y48399D01*
G01X12424Y48396D01*
G01X12400Y48393D01*
G01X12376Y48389D01*
G01X12352Y48385D01*
G01X12327Y48381D01*
G01X12303Y48376D01*
G01X12279Y48371D01*
G01X12255Y48365D01*
G01X12232Y48359D01*
G01X12208Y48352D01*
G01X12184Y48345D01*
G01X12161Y48338D01*
G01X12138Y48330D01*
G01X12115Y48322D01*
G01X12092Y48313D01*
G01X12069Y48304D01*
G01X12046Y48295D01*
G01X12024Y48285D01*
G01X12001Y48275D01*
G01X11979Y48264D01*
G01X11957Y48253D01*
G01X11935Y48242D01*
G01X11914Y48230D01*
G01X11892Y48218D01*
G01X11871Y48206D01*
G01X11850Y48193D01*
G01X11830Y48180D01*
G01X11809Y48166D01*
G01X11789Y48152D01*
G01X11769Y48138D01*
G01X11749Y48123D01*
G01X11730Y48108D01*
G01X11710Y48093D01*
G01X11691Y48078D01*
G01X11673Y48062D01*
G01X11654Y48045D01*
G01X11636Y48029D01*
G01X11618Y48012D01*
G01X11601Y47995D01*
G01X9745Y46139D01*
G01X9751Y46250D01*
G01X9740Y46478D01*
G01X9706Y46703D01*
G01X9650Y46923D01*
G01X9572Y47137D01*
G01X9473Y47342D01*
G01X9354Y47537D01*
G01X9217Y47718D01*
G01X9062Y47885D01*
G01X8891Y48036D01*
G01X8706Y48169D01*
G01X8509Y48282D01*
G01X8302Y48376D01*
G01X8086Y48448D01*
G01X7864Y48499D01*
G01X7638Y48527D01*
G01X7411Y48533D01*
G01X7184Y48516D01*
G01X6960Y48477D01*
G01X6740Y48415D01*
G01X6528Y48332D01*
G01X6326Y48228D01*
G01X6135Y48104D01*
G01X5957Y47962D01*
G01X5794Y47803D01*
G01X5647Y47629D01*
G01X5519Y47441D01*
G01X5410Y47241D01*
G01X5322Y47031D01*
G01X5255Y46814D01*
G01X5210Y46591D01*
G01X5187Y46364D01*
G01X5187Y46137D01*
G01X5210Y45910D01*
G01X5255Y45687D01*
G01X5322Y45469D01*
G01X5410Y45260D01*
G01X5519Y45060D01*
G01X5647Y44872D01*
G01X5794Y44697D01*
G01X5957Y44538D01*
G01X6135Y44396D01*
G01X6326Y44273D01*
G01X6528Y44169D01*
G01X6740Y44086D01*
G01X6960Y44024D01*
G01X7048Y44009D01*
G01X7041Y44001D01*
G01X7031Y43989D01*
G01X7021Y43976D01*
G01X7011Y43963D01*
G01X7001Y43950D01*
G01X6992Y43937D01*
G01X6984Y43923D01*
G01X6975Y43909D01*
G01X6967Y43895D01*
G01X6959Y43881D01*
G01X6952Y43867D01*
G01X6945Y43852D01*
G01X6939Y43837D01*
G01X6933Y43822D01*
G01X6927Y43807D01*
G01X6922Y43792D01*
G01X6917Y43776D01*
G01X6912Y43761D01*
G01X6908Y43745D01*
G01X6905Y43729D01*
G01X6902Y43714D01*
G01X6901Y43711D01*
G01X6901Y43714D01*
G01X6898Y43729D01*
G01X6894Y43745D01*
G01X6890Y43761D01*
G01X6885Y43776D01*
G01X6881Y43792D01*
G01X6875Y43807D01*
G01X6870Y43822D01*
G01X6864Y43837D01*
G01X6857Y43852D01*
G01X6850Y43867D01*
G01X6843Y43881D01*
G01X6835Y43895D01*
G01X6827Y43909D01*
G01X6819Y43923D01*
G01X6810Y43937D01*
G01X6801Y43950D01*
G01X6792Y43963D01*
G01X6782Y43976D01*
G01X6772Y43989D01*
G01X6761Y44001D01*
G01X6750Y44013D01*
G01X6739Y44025D01*
G01X6728Y44036D01*
G01X6716Y44047D01*
G01X6704Y44058D01*
G01X6692Y44068D01*
G01X6679Y44079D01*
G01X6666Y44088D01*
G01X6653Y44098D01*
G01X6640Y44107D01*
G01X6626Y44116D01*
G01X6612Y44124D01*
G01X6598Y44132D01*
G01X6584Y44140D01*
G01X6570Y44147D01*
G01X6555Y44154D01*
G01X6540Y44160D01*
G01X6525Y44166D01*
G01X6510Y44172D01*
G01X6495Y44177D01*
G01X6480Y44182D01*
G01X6464Y44187D01*
G01X6448Y44191D01*
G01X6433Y44194D01*
G01X6417Y44198D01*
G01X6401Y44200D01*
G01X6385Y44203D01*
G01X6369Y44205D01*
G01X6353Y44206D01*
G01X6337Y44207D01*
G01X6320Y44208D01*
G01X6304Y44208D01*
G01X4704Y44208D01*
G01X4688Y44208D01*
G01X4672Y44207D01*
G01X4656Y44206D01*
G01X4640Y44205D01*
G01X4624Y44203D01*
G01X4608Y44200D01*
G01X4592Y44198D01*
G01X4576Y44194D01*
G01X4560Y44191D01*
G01X4544Y44187D01*
G01X4529Y44182D01*
G01X4513Y44177D01*
G01X4498Y44172D01*
G01X4483Y44166D01*
G01X4468Y44160D01*
G01X4453Y44154D01*
G01X4439Y44147D01*
G01X4424Y44140D01*
G01X4410Y44132D01*
G01X4396Y44124D01*
G01X4382Y44116D01*
G01X4369Y44107D01*
G01X4355Y44098D01*
G01X4342Y44088D01*
G01X4329Y44079D01*
G01X4317Y44068D01*
G01X4304Y44058D01*
G01X4292Y44047D01*
G01X4281Y44036D01*
G01X4269Y44025D01*
G01X4258Y44013D01*
G01X4247Y44001D01*
G01X4237Y43989D01*
G01X4227Y43976D01*
G01X4217Y43963D01*
G01X4207Y43950D01*
G01X4198Y43937D01*
G01X4190Y43923D01*
G01X4181Y43909D01*
G01X4173Y43895D01*
G01X4165Y43881D01*
G01X4158Y43867D01*
G01X4151Y43852D01*
G01X4145Y43837D01*
G01X4139Y43822D01*
G01X4133Y43807D01*
G01X4128Y43792D01*
G01X4123Y43776D01*
G01X4118Y43761D01*
G01X4114Y43745D01*
G01X4111Y43729D01*
G01X4108Y43714D01*
G01X4105Y43698D01*
G01X4102Y43682D01*
G01X4101Y43666D01*
G01X4099Y43650D01*
G01X4098Y43633D01*
G01X4097Y43617D01*
G01X4097Y43601D01*
G01X4097Y41800D01*
G01X4097Y41792D01*
G01X4097Y40433D01*
G01X4051Y40283D01*
G01X4019Y40126D01*
G01X4003Y39967D01*
G01X4003Y39807D01*
G01X4019Y39647D01*
G01X4051Y39490D01*
G01X4098Y39337D01*
G01X4160Y39189D01*
G01X4237Y39049D01*
G01X4327Y38916D01*
G01X4430Y38794D01*
G01X4545Y38682D01*
G01X4670Y38582D01*
G01X4805Y38495D01*
G01X4947Y38422D01*
G01X5097Y38363D01*
G01X5251Y38320D01*
G01X5409Y38292D01*
G01X5568Y38280D01*
G01X5728Y38284D01*
G01X5887Y38304D01*
G01X6044Y38340D01*
G01X6195Y38391D01*
G01X6341Y38457D01*
G01X6480Y38537D01*
G01X6610Y38630D01*
G01X6730Y38736D01*
G01X6839Y38854D01*
G01X6928Y38971D01*
G01X6965Y38916D01*
G01X7068Y38794D01*
G01X7183Y38682D01*
G01X7308Y38582D01*
G01X7442Y38495D01*
G01X7585Y38422D01*
G01X7734Y38363D01*
G01X7888Y38320D01*
G01X8046Y38292D01*
G01X8206Y38280D01*
G01X8366Y38284D01*
G01X8525Y38304D01*
G01X8681Y38340D01*
G01X8833Y38391D01*
G01X8979Y38457D01*
G01X9118Y38537D01*
G01X9248Y38630D01*
G01X9368Y38736D01*
G01X9477Y38854D01*
G01X9534Y38929D01*
G01X9542Y38916D01*
G01X9645Y38794D01*
G01X9760Y38682D01*
G01X9885Y38582D01*
G01X10020Y38495D01*
G01X10163Y38422D01*
G01X10312Y38363D01*
G01X10323Y38360D01*
G01X10323Y39387D01*
G01X9772Y39387D01*
G01X9781Y39413D01*
G01X9821Y39568D01*
G01X9845Y39727D01*
G01X9853Y39887D01*
G01X9845Y40047D01*
G01X9821Y40205D01*
G01X9781Y40360D01*
G01X9772Y40387D01*
G01X10323Y40387D01*
G01X10323Y41413D01*
G01X10312Y41410D01*
G01X10163Y41351D01*
G01X10020Y41278D01*
G01X9885Y41191D01*
G01X9760Y41092D01*
G01X9705Y41038D01*
G01X9705Y41792D01*
G01X9705Y41800D01*
G01X9705Y42119D01*
G01X13179Y45593D01*
G01X18121Y45593D01*
G01X18025Y45531D01*
G01X17917Y45444D01*
G01X17817Y45347D01*
G01X17728Y45241D01*
G01X17649Y45126D01*
G01X17583Y45004D01*
G01X17529Y44876D01*
G01X17503Y44792D01*
G01X18445Y44792D01*
G01X18445Y45593D01*
G01X19233Y45593D01*
G01X19233Y44792D01*
G01X20043Y44792D01*
G01X20028Y44743D01*
G01X20000Y44607D01*
G01X19987Y44468D01*
G01X19987Y44329D01*
G01X20000Y44191D01*
G01X20028Y44055D01*
G01X20043Y44005D01*
G01X19233Y44005D01*
G01X19233Y43062D01*
G01X19349Y43101D01*
G01X19475Y43158D01*
G01X19596Y43227D01*
G01X19709Y43309D01*
G01X19813Y43401D01*
G01X19907Y43502D01*
G01X19991Y43613D01*
G01X20064Y43732D01*
G01X20109Y43826D01*
G01X20123Y43794D01*
G01X20189Y43672D01*
G01X20268Y43557D01*
G01X20357Y43450D01*
G01X20457Y43353D01*
G01X20565Y43267D01*
G01X20682Y43191D01*
G01X20806Y43128D01*
G01X20935Y43077D01*
G01X21069Y43039D01*
G01X21206Y43015D01*
G01X21344Y43005D01*
G01X21483Y43008D01*
G01X21621Y43025D01*
G01X21757Y43056D01*
G01X21889Y43101D01*
G01X22015Y43158D01*
G01X22136Y43227D01*
G01X22249Y43309D01*
G01X22353Y43401D01*
G01X22447Y43502D01*
G01X22531Y43613D01*
G01X22604Y43732D01*
G01X22649Y43826D01*
G01X22663Y43794D01*
G01X22729Y43672D01*
G01X22808Y43557D01*
G01X22897Y43450D01*
G01X22997Y43353D01*
G01X23105Y43267D01*
G01X23222Y43191D01*
G01X23346Y43128D01*
G01X23475Y43077D01*
G01X23609Y43039D01*
G01X23746Y43015D01*
G01X23884Y43005D01*
G01X24023Y43008D01*
G01X24161Y43025D01*
G01X24297Y43056D01*
G01X24429Y43101D01*
G01X24555Y43158D01*
G01X24676Y43227D01*
G01X24789Y43309D01*
G01X24893Y43401D01*
G01X24987Y43502D01*
G01X25071Y43613D01*
G01X25144Y43732D01*
G01X25189Y43826D01*
G01X25203Y43794D01*
G01X25269Y43672D01*
G01X25348Y43557D01*
G01X25437Y43450D01*
G01X25537Y43353D01*
G01X25645Y43267D01*
G01X25762Y43191D01*
G01X25886Y43128D01*
G01X26015Y43077D01*
G01X26149Y43039D01*
G01X26286Y43015D01*
G01X26424Y43005D01*
G01X26466Y43006D01*
G01X25614Y42154D01*
G01X25297Y42154D01*
G01X25281Y42154D01*
G01X25265Y42153D01*
G01X25249Y42152D01*
G01X25233Y42151D01*
G01X25217Y42149D01*
G01X25201Y42146D01*
G01X25185Y42143D01*
G01X25169Y42140D01*
G01X25153Y42137D01*
G01X25138Y42133D01*
G01X25122Y42128D01*
G01X25107Y42123D01*
G01X25091Y42118D01*
G01X25076Y42112D01*
G01X25061Y42106D01*
G01X25046Y42100D01*
G01X25032Y42093D01*
G01X25017Y42086D01*
G01X25003Y42078D01*
G01X24989Y42070D01*
G01X24975Y42062D01*
G01X24962Y42053D01*
G01X24948Y42044D01*
G01X24935Y42034D01*
G01X24922Y42024D01*
G01X24910Y42014D01*
G01X24898Y42004D01*
G01X24886Y41993D01*
G01X24874Y41982D01*
G01X24862Y41970D01*
G01X24851Y41959D01*
G01X24840Y41947D01*
G01X24830Y41934D01*
G01X24820Y41922D01*
G01X24810Y41909D01*
G01X24801Y41896D01*
G01X24791Y41883D01*
G01X24783Y41869D01*
G01X24774Y41855D01*
G01X24766Y41841D01*
G01X24759Y41827D01*
G01X24751Y41812D01*
G01X24744Y41798D01*
G01X24738Y41783D01*
G01X24732Y41768D01*
G01X24726Y41753D01*
G01X24721Y41738D01*
G01X24716Y41722D01*
G01X24712Y41707D01*
G01X24708Y41691D01*
G01X24704Y41675D01*
G01X24701Y41659D01*
G01X24698Y41644D01*
G01X24696Y41628D01*
G01X24694Y41612D01*
G01X24692Y41595D01*
G01X24691Y41579D01*
G01X24690Y41563D01*
G01X24690Y41547D01*
G01X24690Y39947D01*
G01X24690Y39931D01*
G01X24691Y39914D01*
G01X24692Y39898D01*
G01X24694Y39882D01*
G01X24696Y39866D01*
G01X24698Y39850D01*
G01X24701Y39834D01*
G01X24704Y39818D01*
G01X24708Y39803D01*
G01X24712Y39787D01*
G01X24716Y39772D01*
G01X24721Y39756D01*
G01X24726Y39741D01*
G01X24732Y39726D01*
G01X24738Y39711D01*
G01X24744Y39696D01*
G01X24751Y39681D01*
G01X24759Y39667D01*
G01X24766Y39653D01*
G01X24774Y39639D01*
G01X24783Y39625D01*
G01X24791Y39611D01*
G01X24801Y39598D01*
G01X24810Y39585D01*
G01X24820Y39572D01*
G01X24830Y39559D01*
G01X24840Y39547D01*
G01X24851Y39535D01*
G01X24862Y39523D01*
G01X24874Y39512D01*
G01X24886Y39501D01*
G01X24898Y39490D01*
G01X24910Y39480D01*
G01X24922Y39469D01*
G01X24935Y39460D01*
G01X24948Y39450D01*
G01X24962Y39441D01*
G01X24975Y39432D01*
G01X24989Y39424D01*
G01X25003Y39416D01*
G01X25017Y39408D01*
G01X25032Y39401D01*
G01X25046Y39394D01*
G01X25061Y39388D01*
G01X25076Y39381D01*
G01X25091Y39376D01*
G01X25107Y39370D01*
G01X25122Y39366D01*
G01X25138Y39361D01*
G01X25153Y39357D01*
G01X25169Y39353D01*
G01X25185Y39350D01*
G01X25187Y39350D01*
G01X25185Y39349D01*
G01X25169Y39346D01*
G01X25153Y39343D01*
G01X25138Y39339D01*
G01X25122Y39334D01*
G01X25107Y39329D01*
G01X25091Y39324D01*
G01X25076Y39318D01*
G01X25061Y39312D01*
G01X25046Y39306D01*
G01X25042Y39304D01*
G01X23199Y39304D01*
G01X23189Y39311D01*
G01X23176Y39319D01*
G01X23162Y39328D01*
G01X23148Y39336D01*
G01X23133Y39343D01*
G01X23119Y39351D01*
G01X23104Y39358D01*
G01X23090Y39364D01*
G01X23075Y39370D01*
G01X23059Y39376D01*
G01X23044Y39381D01*
G01X23029Y39386D01*
G01X23013Y39390D01*
G01X22998Y39395D01*
G01X22982Y39398D01*
G01X22966Y39401D01*
G01X22950Y39404D01*
G01X22934Y39407D01*
G01X22918Y39408D01*
G01X22902Y39410D01*
G01X22886Y39411D01*
G01X22870Y39412D01*
G01X22854Y39412D01*
G01X21495Y39412D01*
G01X21478Y39412D01*
G01X21462Y39411D01*
G01X21446Y39410D01*
G01X21430Y39408D01*
G01X21414Y39407D01*
G01X21398Y39404D01*
G01X21382Y39401D01*
G01X21366Y39398D01*
G01X21351Y39395D01*
G01X21335Y39390D01*
G01X21319Y39386D01*
G01X21304Y39381D01*
G01X21289Y39376D01*
G01X21274Y39370D01*
G01X21259Y39364D01*
G01X21244Y39358D01*
G01X21229Y39351D01*
G01X21215Y39343D01*
G01X21200Y39336D01*
G01X21186Y39328D01*
G01X21173Y39319D01*
G01X21159Y39311D01*
G01X21146Y39302D01*
G01X21133Y39292D01*
G01X21120Y39282D01*
G01X21107Y39272D01*
G01X21095Y39262D01*
G01X21083Y39251D01*
G01X21071Y39240D01*
G01X21060Y39228D01*
G01X21049Y39217D01*
G01X21038Y39205D01*
G01X21027Y39192D01*
G01X21017Y39180D01*
G01X21007Y39167D01*
G01X20998Y39154D01*
G01X20989Y39140D01*
G01X20980Y39127D01*
G01X20972Y39113D01*
G01X20964Y39099D01*
G01X20956Y39085D01*
G01X20949Y39070D01*
G01X20942Y39056D01*
G01X20935Y39041D01*
G01X20929Y39026D01*
G01X20924Y39011D01*
G01X20918Y38996D01*
G01X20913Y38980D01*
G01X20909Y38965D01*
G01X20905Y38949D01*
G01X20901Y38933D01*
G01X20898Y38917D01*
G01X20895Y38901D01*
G01X20893Y38885D01*
G01X20891Y38869D01*
G01X20890Y38853D01*
G01X20888Y38837D01*
G01X20888Y38821D01*
G01X20888Y38805D01*
G01X20888Y38466D01*
G01X20864Y38411D01*
G01X20840Y38345D01*
G01X20820Y38278D01*
G01X20802Y38210D01*
G01X20788Y38141D01*
G01X20778Y38072D01*
G01X20771Y38002D01*
G01X20768Y37932D01*
G01X20768Y37862D01*
G01X20771Y37792D01*
G01X20778Y37722D01*
G01X20788Y37652D01*
G01X20802Y37584D01*
G01X20820Y37516D01*
G01X20840Y37449D01*
G01X20864Y37383D01*
G01X20888Y37328D01*
G01X20888Y36989D01*
G01X20888Y36973D01*
G01X20888Y36956D01*
G01X20890Y36940D01*
G01X20891Y36924D01*
G01X20893Y36908D01*
G01X20895Y36892D01*
G01X20898Y36876D01*
G01X20901Y36860D01*
G01X20905Y36845D01*
G01X20909Y36829D01*
G01X20913Y36814D01*
G01X20918Y36798D01*
G01X20924Y36783D01*
G01X20929Y36768D01*
G01X20935Y36753D01*
G01X20942Y36738D01*
G01X20949Y36723D01*
G01X20956Y36709D01*
G01X20964Y36695D01*
G01X20972Y36681D01*
G01X20980Y36667D01*
G01X20989Y36653D01*
G01X20998Y36640D01*
G01X21007Y36627D01*
G01X21017Y36614D01*
G01X21027Y36601D01*
G01X21038Y36589D01*
G01X21049Y36577D01*
G01X21060Y36565D01*
G01X21071Y36554D01*
G01X21083Y36543D01*
G01X21095Y36532D01*
G01X21107Y36521D01*
G01X21120Y36511D01*
G01X21133Y36502D01*
G01X21146Y36492D01*
G01X21159Y36483D01*
G01X21173Y36474D01*
G01X21186Y36466D01*
G01X21200Y36458D01*
G01X21215Y36450D01*
G01X21229Y36443D01*
G01X21244Y36436D01*
G01X21259Y36430D01*
G01X21274Y36423D01*
G01X21289Y36418D01*
G01X21304Y36412D01*
G01X21319Y36408D01*
G01X21335Y36403D01*
G01X21351Y36399D01*
G01X21366Y36395D01*
G01X21382Y36392D01*
G01X21398Y36389D01*
G01X21414Y36387D01*
G01X21430Y36385D01*
G01X21446Y36384D01*
G01X21462Y36383D01*
G01X21478Y36382D01*
G01X21495Y36382D01*
G01X22854Y36382D01*
G01X22870Y36382D01*
G01X22886Y36383D01*
G01X22902Y36384D01*
G01X22918Y36385D01*
G01X22934Y36387D01*
G01X22950Y36389D01*
G01X22966Y36392D01*
G01X22982Y36395D01*
G01X22998Y36399D01*
G01X23013Y36403D01*
G01X23029Y36408D01*
G01X23044Y36412D01*
G01X23059Y36418D01*
G01X23075Y36423D01*
G01X23090Y36430D01*
G01X23104Y36436D01*
G01X23119Y36443D01*
G01X23133Y36450D01*
G01X23148Y36458D01*
G01X23162Y36466D01*
G01X23176Y36474D01*
G01X23189Y36483D01*
G01X23199Y36490D01*
G01X26141Y36490D01*
G01X26165Y36490D01*
G01X26190Y36491D01*
G01X26214Y36492D01*
G01X26239Y36493D01*
G01X26263Y36495D01*
G01X26288Y36497D01*
G01X26312Y36500D01*
G01X26336Y36503D01*
G01X26361Y36507D01*
G01X26385Y36511D01*
G01X26409Y36516D01*
G01X26433Y36521D01*
G01X26457Y36526D01*
G01X26481Y36532D01*
G01X26505Y36538D01*
G01X26528Y36544D01*
G01X26533Y36546D01*
G01X27098Y36546D01*
G01X27114Y36546D01*
G01X27130Y36547D01*
G01X27147Y36548D01*
G01X27163Y36549D01*
G01X27179Y36551D01*
G01X27195Y36554D01*
G01X27211Y36556D01*
G01X27226Y36559D01*
G01X27242Y36563D01*
G01X27258Y36567D01*
G01X27273Y36572D01*
G01X27289Y36576D01*
G01X27304Y36582D01*
G01X27319Y36587D01*
G01X27334Y36594D01*
G01X27349Y36600D01*
G01X27364Y36607D01*
G01X27378Y36614D01*
G01X27392Y36622D01*
G01X27406Y36630D01*
G01X27420Y36638D01*
G01X27434Y36647D01*
G01X27447Y36656D01*
G01X27460Y36666D01*
G01X27473Y36675D01*
G01X27486Y36686D01*
G01X27498Y36696D01*
G01X27510Y36707D01*
G01X27522Y36718D01*
G01X27533Y36729D01*
G01X27544Y36741D01*
G01X27555Y36753D01*
G01X27565Y36765D01*
G01X27576Y36778D01*
G01X27585Y36791D01*
G01X27595Y36804D01*
G01X27604Y36817D01*
G01X27613Y36831D01*
G01X27621Y36845D01*
G01X27629Y36859D01*
G01X27637Y36873D01*
G01X27644Y36887D01*
G01X27651Y36902D01*
G01X27657Y36917D01*
G01X27663Y36932D01*
G01X27669Y36947D01*
G01X27674Y36962D01*
G01X27679Y36978D01*
G01X27684Y36993D01*
G01X27688Y37009D01*
G01X27691Y37024D01*
G01X27695Y37040D01*
G01X27697Y37056D01*
G01X27700Y37072D01*
G01X27702Y37088D01*
G01X27703Y37104D01*
G01X27704Y37120D01*
G01X27705Y37137D01*
G01X27705Y37153D01*
G01X27705Y38753D01*
G01X27705Y38769D01*
G01X27704Y38785D01*
G01X27703Y38801D01*
G01X27702Y38818D01*
G01X27700Y38834D01*
G01X27697Y38850D01*
G01X27695Y38865D01*
G01X27691Y38881D01*
G01X27688Y38897D01*
G01X27684Y38913D01*
G01X27679Y38928D01*
G01X27674Y38944D01*
G01X27669Y38959D01*
G01X27663Y38974D01*
G01X27657Y38989D01*
G01X27651Y39004D01*
G01X27644Y39018D01*
G01X27637Y39033D01*
G01X27629Y39047D01*
G01X27621Y39061D01*
G01X27613Y39075D01*
G01X27604Y39089D01*
G01X27595Y39102D01*
G01X27585Y39115D01*
G01X27576Y39128D01*
G01X27565Y39140D01*
G01X27555Y39153D01*
G01X27544Y39165D01*
G01X27533Y39176D01*
G01X27522Y39188D01*
G01X27510Y39199D01*
G01X27498Y39210D01*
G01X27486Y39220D01*
G01X27473Y39230D01*
G01X27460Y39240D01*
G01X27447Y39250D01*
G01X27434Y39259D01*
G01X27420Y39268D01*
G01X27406Y39276D01*
G01X27392Y39284D01*
G01X27378Y39292D01*
G01X27364Y39299D01*
G01X27349Y39306D01*
G01X27334Y39312D01*
G01X27319Y39318D01*
G01X27304Y39324D01*
G01X27289Y39329D01*
G01X27273Y39334D01*
G01X27258Y39339D01*
G01X27242Y39343D01*
G01X27226Y39346D01*
G01X27211Y39349D01*
G01X27208Y39350D01*
G01X27211Y39350D01*
G01X27226Y39353D01*
G01X27242Y39357D01*
G01X27258Y39361D01*
G01X27273Y39366D01*
G01X27289Y39370D01*
G01X27304Y39376D01*
G01X27319Y39381D01*
G01X27334Y39388D01*
G01X27349Y39394D01*
G01X27364Y39401D01*
G01X27378Y39408D01*
G01X27392Y39416D01*
G01X27406Y39424D01*
G01X27420Y39432D01*
G01X27434Y39441D01*
G01X27447Y39450D01*
G01X27460Y39460D01*
G01X27473Y39469D01*
G01X27486Y39480D01*
G01X27498Y39490D01*
G01X27510Y39501D01*
G01X27522Y39512D01*
G01X27533Y39523D01*
G01X27544Y39535D01*
G01X27555Y39547D01*
G01X27565Y39559D01*
G01X27576Y39572D01*
G01X27585Y39585D01*
G01X27595Y39598D01*
G01X27604Y39611D01*
G01X27613Y39625D01*
G01X27621Y39639D01*
G01X27629Y39653D01*
G01X27637Y39667D01*
G01X27644Y39681D01*
G01X27651Y39696D01*
G01X27657Y39711D01*
G01X27663Y39726D01*
G01X27669Y39741D01*
G01X27674Y39756D01*
G01X27679Y39772D01*
G01X27684Y39787D01*
G01X27688Y39803D01*
G01X27691Y39818D01*
G01X27695Y39834D01*
G01X27697Y39850D01*
G01X27700Y39866D01*
G01X27702Y39882D01*
G01X27703Y39898D01*
G01X27704Y39914D01*
G01X27705Y39931D01*
G01X27705Y39947D01*
G01X27705Y40266D01*
G01X29994Y42555D01*
G01X30011Y42572D01*
G01X30028Y42590D01*
G01X30045Y42608D01*
G01X30061Y42626D01*
G01X30077Y42645D01*
G01X30093Y42664D01*
G01X30108Y42683D01*
G01X30123Y42703D01*
G01X30137Y42722D01*
G01X30152Y42742D01*
G01X30166Y42763D01*
G01X30179Y42783D01*
G01X30192Y42804D01*
G01X30205Y42825D01*
G01X30218Y42846D01*
G01X30230Y42867D01*
G01X30242Y42889D01*
G01X30253Y42911D01*
G01X30264Y42933D01*
G01X30274Y42955D01*
G01X30285Y42977D01*
G01X30294Y43000D01*
G01X30304Y43022D01*
G01X30313Y43045D01*
G01X30321Y43068D01*
G01X30330Y43091D01*
G01X30337Y43115D01*
G01X30345Y43138D01*
G01X30352Y43162D01*
G01X30358Y43185D01*
G01X30364Y43209D01*
G01X30370Y43233D01*
G01X30375Y43257D01*
G01X30380Y43281D01*
G01X30385Y43305D01*
G01X30389Y43329D01*
G01X30393Y43354D01*
G01X30396Y43378D01*
G01X30398Y43402D01*
G01X30401Y43427D01*
G01X30403Y43451D01*
G01X30404Y43476D01*
G01X30405Y43500D01*
G01X30406Y43525D01*
G01X30406Y43549D01*
G01X30406Y43588D01*
G01X30428Y43557D01*
G01X30517Y43450D01*
G01X30617Y43353D01*
G01X30725Y43267D01*
G01X30842Y43191D01*
G01X30966Y43128D01*
G01X31095Y43077D01*
G01X31229Y43039D01*
G01X31366Y43015D01*
G01X31504Y43005D01*
G01X31643Y43008D01*
G01X31781Y43025D01*
G01X31917Y43056D01*
G01X32049Y43101D01*
G01X32175Y43158D01*
G01X32296Y43227D01*
G01X32409Y43309D01*
G01X32513Y43401D01*
G01X32607Y43502D01*
G01X32691Y43613D01*
G01X32764Y43732D01*
G01X32809Y43826D01*
G01X32823Y43794D01*
G01X32889Y43672D01*
G01X32968Y43557D01*
G01X33057Y43450D01*
G01X33157Y43353D01*
G01X33265Y43267D01*
G01X33382Y43191D01*
G01X33506Y43128D01*
G01X33635Y43077D01*
G01X33769Y43039D01*
G01X33906Y43015D01*
G01X34044Y43005D01*
G01X34183Y43008D01*
G01X34321Y43025D01*
G01X34457Y43056D01*
G01X34589Y43101D01*
G01X34715Y43158D01*
G01X34836Y43227D01*
G01X34949Y43309D01*
G01X35053Y43401D01*
G01X35147Y43502D01*
G01X35192Y43561D01*
G01X35192Y34082D01*
G01X32864Y31752D01*
G01X32135Y31752D01*
G01X32134Y31752D01*
G01X32120Y31761D01*
G01X32106Y31770D01*
G01X32092Y31778D01*
G01X32078Y31785D01*
G01X32064Y31793D01*
G01X32049Y31799D01*
G01X32034Y31806D01*
G01X32019Y31812D01*
G01X32004Y31818D01*
G01X31989Y31823D01*
G01X31974Y31828D01*
G01X31958Y31832D01*
G01X31942Y31836D01*
G01X31927Y31840D01*
G01X31911Y31843D01*
G01X31907Y31844D01*
G01X31907Y32451D01*
G01X31907Y32474D01*
G01X31906Y32498D01*
G01X31904Y32522D01*
G01X31902Y32546D01*
G01X31900Y32570D01*
G01X31896Y32593D01*
G01X31892Y32617D01*
G01X31888Y32640D01*
G01X31883Y32664D01*
G01X31877Y32687D01*
G01X31871Y32710D01*
G01X31864Y32733D01*
G01X31857Y32755D01*
G01X31849Y32778D01*
G01X31841Y32800D01*
G01X31832Y32822D01*
G01X31822Y32844D01*
G01X31812Y32866D01*
G01X31802Y32887D01*
G01X31790Y32908D01*
G01X31779Y32929D01*
G01X31767Y32950D01*
G01X31754Y32970D01*
G01X31741Y32990D01*
G01X31727Y33009D01*
G01X31713Y33028D01*
G01X31698Y33047D01*
G01X31683Y33066D01*
G01X31677Y33073D01*
G01X33226Y34623D01*
G01X33240Y34637D01*
G01X33254Y34652D01*
G01X33268Y34667D01*
G01X33281Y34683D01*
G01X33294Y34698D01*
G01X33307Y34714D01*
G01X33319Y34730D01*
G01X33331Y34747D01*
G01X33342Y34764D01*
G01X33354Y34780D01*
G01X33364Y34798D01*
G01X33375Y34815D01*
G01X33385Y34833D01*
G01X33395Y34851D01*
G01X33404Y34869D01*
G01X33413Y34887D01*
G01X33422Y34905D01*
G01X33430Y34924D01*
G01X33437Y34943D01*
G01X33445Y34962D01*
G01X33452Y34981D01*
G01X33458Y35000D01*
G01X33465Y35019D01*
G01X33470Y35039D01*
G01X33476Y35058D01*
G01X33481Y35078D01*
G01X33485Y35098D01*
G01X33489Y35118D01*
G01X33493Y35138D01*
G01X33496Y35158D01*
G01X33499Y35178D01*
G01X33501Y35198D01*
G01X33503Y35218D01*
G01X33505Y35239D01*
G01X33506Y35259D01*
G01X33506Y35279D01*
G01X33506Y35299D01*
G01X33506Y36684D01*
G01X33558Y36714D01*
G01X33702Y36817D01*
G01X33834Y36934D01*
G01X33954Y37063D01*
G01X34060Y37204D01*
G01X34152Y37354D01*
G01X34228Y37513D01*
G01X34289Y37678D01*
G01X34332Y37849D01*
G01X34358Y38023D01*
G01X34367Y38199D01*
G01X34358Y38375D01*
G01X34332Y38550D01*
G01X34289Y38720D01*
G01X34228Y38886D01*
G01X34152Y39045D01*
G01X34060Y39195D01*
G01X33954Y39336D01*
G01X33834Y39465D01*
G01X33702Y39581D01*
G01X33558Y39684D01*
G01X33406Y39772D01*
G01X33245Y39845D01*
G01X33078Y39901D01*
G01X32906Y39940D01*
G01X32731Y39962D01*
G01X32555Y39967D01*
G01X32380Y39953D01*
G01X32206Y39923D01*
G01X32036Y39875D01*
G01X31872Y39811D01*
G01X31715Y39730D01*
G01X31567Y39635D01*
G01X31430Y39525D01*
G01X31304Y39402D01*
G01X31190Y39267D01*
G01X31091Y39121D01*
G01X31007Y38966D01*
G01X30938Y38804D01*
G01X30886Y38636D01*
G01X30851Y38463D01*
G01X30834Y38287D01*
G01X30834Y38111D01*
G01X30851Y37936D01*
G01X30886Y37763D01*
G01X30938Y37595D01*
G01X31007Y37432D01*
G01X31091Y37278D01*
G01X31190Y37132D01*
G01X31304Y36997D01*
G01X31430Y36874D01*
G01X31567Y36764D01*
G01X31592Y36748D01*
G01X31592Y35696D01*
G01X30403Y34506D01*
G01X22449Y34506D01*
G01X22429Y34506D01*
G01X22409Y34506D01*
G01X22389Y34505D01*
G01X22368Y34503D01*
G01X22348Y34501D01*
G01X22328Y34499D01*
G01X22308Y34496D01*
G01X22288Y34493D01*
G01X22268Y34489D01*
G01X22248Y34485D01*
G01X22228Y34480D01*
G01X22208Y34476D01*
G01X22189Y34470D01*
G01X22169Y34464D01*
G01X22150Y34458D01*
G01X22131Y34452D01*
G01X22112Y34445D01*
G01X22093Y34437D01*
G01X22074Y34430D01*
G01X22055Y34421D01*
G01X22037Y34413D01*
G01X22019Y34404D01*
G01X22001Y34395D01*
G01X21983Y34385D01*
G01X21965Y34375D01*
G01X21948Y34364D01*
G01X21931Y34354D01*
G01X21914Y34342D01*
G01X21897Y34331D01*
G01X21880Y34319D01*
G01X21864Y34307D01*
G01X21848Y34294D01*
G01X21833Y34281D01*
G01X21817Y34268D01*
G01X21802Y34254D01*
G01X21787Y34240D01*
G01X21773Y34226D01*
G01X20573Y33026D01*
G01X20559Y33012D01*
G01X20545Y32997D01*
G01X20531Y32982D01*
G01X20518Y32966D01*
G01X20505Y32951D01*
G01X20492Y32935D01*
G01X20480Y32919D01*
G01X20468Y32902D01*
G01X20457Y32885D01*
G01X20445Y32868D01*
G01X20435Y32851D01*
G01X20424Y32834D01*
G01X20414Y32816D01*
G01X20404Y32798D01*
G01X20395Y32780D01*
G01X20386Y32762D01*
G01X20377Y32744D01*
G01X20369Y32725D01*
G01X20361Y32706D01*
G01X20354Y32687D01*
G01X20347Y32668D01*
G01X20341Y32649D01*
G01X20334Y32630D01*
G01X20329Y32610D01*
G01X20323Y32591D01*
G01X20318Y32571D01*
G01X20314Y32551D01*
G01X20310Y32531D01*
G01X20306Y32511D01*
G01X20303Y32491D01*
G01X20300Y32471D01*
G01X20298Y32451D01*
G01X20296Y32431D01*
G01X20294Y32410D01*
G01X20293Y32390D01*
G01X20293Y32370D01*
G01X20292Y32349D01*
G01X20292Y30546D01*
G01X20210Y30463D01*
G01X20208Y30473D01*
G01X20206Y30490D01*
G01X20200Y30520D01*
G01X20197Y30537D01*
G01X20190Y30567D01*
G01X20186Y30584D01*
G01X20178Y30613D01*
G01X20172Y30630D01*
G01X20163Y30659D01*
G01X20157Y30675D01*
G01X20146Y30702D01*
G01X20139Y30718D01*
G01X20126Y30747D01*
G01X20119Y30763D01*
G01X20105Y30789D01*
G01X20097Y30804D01*
G01X20082Y30831D01*
G01X20073Y30846D01*
G01X20056Y30871D01*
G01X20047Y30885D01*
G01X20029Y30910D01*
G01X20018Y30924D01*
G01X19999Y30948D01*
G01X19988Y30961D01*
G01X19976Y30974D01*
G01X19988Y30987D01*
G01X19999Y31001D01*
G01X20018Y31025D01*
G01X20029Y31039D01*
G01X20047Y31063D01*
G01X20056Y31078D01*
G01X20073Y31103D01*
G01X20082Y31118D01*
G01X20097Y31144D01*
G01X20105Y31160D01*
G01X20119Y31186D01*
G01X20126Y31201D01*
G01X20139Y31231D01*
G01X20146Y31247D01*
G01X20157Y31274D01*
G01X20163Y31290D01*
G01X20172Y31319D01*
G01X20178Y31335D01*
G01X20186Y31364D01*
G01X20190Y31381D01*
G01X20197Y31411D01*
G01X20200Y31428D01*
G01X20206Y31458D01*
G01X20208Y31476D01*
G01X20212Y31506D01*
G01X20214Y31523D01*
G01X20216Y31552D01*
G01X20217Y31570D01*
G01X20218Y31601D01*
G01X20218Y31618D01*
G01X20217Y31649D01*
G01X20216Y31666D01*
G01X20214Y31696D01*
G01X20212Y31713D01*
G01X20208Y31743D01*
G01X20206Y31760D01*
G01X20200Y31790D01*
G01X20197Y31807D01*
G01X20190Y31837D01*
G01X20186Y31854D01*
G01X20178Y31883D01*
G01X20172Y31900D01*
G01X20163Y31929D01*
G01X20157Y31945D01*
G01X20146Y31972D01*
G01X20139Y31988D01*
G01X20126Y32017D01*
G01X20119Y32033D01*
G01X20105Y32059D01*
G01X20097Y32074D01*
G01X20082Y32101D01*
G01X20073Y32116D01*
G01X20056Y32141D01*
G01X20047Y32155D01*
G01X20029Y32180D01*
G01X20018Y32194D01*
G01X19999Y32218D01*
G01X19988Y32231D01*
G01X19968Y32253D01*
G01X19957Y32266D01*
G01X19935Y32289D01*
G01X19922Y32301D01*
G01X19901Y32321D01*
G01X19888Y32332D01*
G01X19864Y32352D01*
G01X19850Y32363D01*
G01X19827Y32381D01*
G01X19813Y32391D01*
G01X19786Y32409D01*
G01X19772Y32418D01*
G01X19747Y32433D01*
G01X19732Y32442D01*
G01X19705Y32457D01*
G01X19689Y32465D01*
G01X19663Y32478D01*
G01X19647Y32485D01*
G01X19618Y32497D01*
G01X19602Y32503D01*
G01X19574Y32514D01*
G01X19557Y32519D01*
G01X19528Y32528D01*
G01X19511Y32533D01*
G01X19482Y32540D01*
G01X19465Y32544D01*
G01X19435Y32550D01*
G01X19418Y32553D01*
G01X19389Y32558D01*
G01X19371Y32560D01*
G01X19341Y32563D01*
G01X19323Y32564D01*
G01X19293Y32566D01*
G01X19276Y32566D01*
G01X19261Y32566D01*
G01X18730Y32566D01*
G01X18710Y32567D01*
G01X17334Y32567D01*
G01X16878Y33024D01*
G01X16852Y33049D01*
G01X16826Y33073D01*
G01X16798Y33096D01*
G01X16770Y33118D01*
G01X16741Y33139D01*
G01X16711Y33158D01*
G01X16680Y33177D01*
G01X16649Y33194D01*
G01X16617Y33211D01*
G01X16584Y33226D01*
G01X16551Y33239D01*
G01X16518Y33252D01*
G01X16484Y33263D01*
G01X16449Y33273D01*
G01X16414Y33282D01*
G01X16379Y33289D01*
G01X16344Y33295D01*
G01X16309Y33300D01*
G01X16286Y33302D01*
G01X16278Y33306D01*
G01X16263Y33313D01*
G01X16248Y33320D01*
G01X16233Y33326D01*
G01X16218Y33331D01*
G01X16203Y33337D01*
G01X16187Y33342D01*
G01X16172Y33346D01*
G01X16156Y33350D01*
G01X16140Y33354D01*
G01X16125Y33357D01*
G01X16109Y33360D01*
G01X16093Y33362D01*
G01X16077Y33364D01*
G01X16061Y33366D01*
G01X16044Y33367D01*
G01X16028Y33367D01*
G01X16012Y33367D01*
G01X14488Y33367D01*
G01X14472Y33367D01*
G01X14456Y33367D01*
G01X14440Y33366D01*
G01X14424Y33364D01*
G01X14408Y33362D01*
G01X14392Y33360D01*
G01X14376Y33357D01*
G01X14360Y33354D01*
G01X14344Y33350D01*
G01X14328Y33346D01*
G01X14313Y33342D01*
G01X14298Y33337D01*
G01X14282Y33331D01*
G01X14267Y33326D01*
G01X14252Y33320D01*
G01X14237Y33313D01*
G01X14223Y33306D01*
G01X14208Y33299D01*
G01X14194Y33291D01*
G01X14180Y33283D01*
G01X14166Y33275D01*
G01X14153Y33266D01*
G01X14139Y33257D01*
G01X14126Y33248D01*
G01X14113Y33238D01*
G01X14101Y33228D01*
G01X14088Y33217D01*
G01X14076Y33206D01*
G01X14065Y33195D01*
G01X14053Y33184D01*
G01X14042Y33172D01*
G01X14031Y33160D01*
G01X14021Y33148D01*
G01X14011Y33135D01*
G01X14001Y33122D01*
G01X13991Y33109D01*
G01X13982Y33096D01*
G01X13974Y33082D01*
G01X13965Y33069D01*
G01X13957Y33055D01*
G01X13950Y33040D01*
G01X13942Y33026D01*
G01X13935Y33011D01*
G01X13929Y32996D01*
G01X13923Y32982D01*
G01X13917Y32966D01*
G01X13912Y32951D01*
G01X13907Y32936D01*
G01X13903Y32920D01*
G01X13899Y32905D01*
G01X13895Y32889D01*
G01X13892Y32873D01*
G01X13889Y32857D01*
G01X13887Y32841D01*
G01X13885Y32825D01*
G01X13883Y32809D01*
G01X13882Y32793D01*
G01X13881Y32777D01*
G01X13881Y32760D01*
G01X13881Y31236D01*
G01X13881Y31220D01*
G01X13882Y31204D01*
G01X13883Y31188D01*
G01X13885Y31172D01*
G01X13887Y31156D01*
G01X13889Y31140D01*
G01X13892Y31124D01*
G01X13895Y31108D01*
G01X13899Y31092D01*
G01X13903Y31077D01*
G01X13907Y31061D01*
G01X13912Y31046D01*
G01X13917Y31031D01*
G01X13923Y31015D01*
G01X13929Y31000D01*
G01X13935Y30986D01*
G01X13942Y30971D01*
G01X13950Y30957D01*
G01X13957Y30942D01*
G01X13965Y30928D01*
G01X13974Y30914D01*
G01X13982Y30901D01*
G01X13991Y30888D01*
G01X14001Y30874D01*
G01X14011Y30862D01*
G01X14021Y30849D01*
G01X14031Y30837D01*
G01X14042Y30825D01*
G01X14053Y30813D01*
G01X14065Y30802D01*
G01X14076Y30790D01*
G01X14088Y30780D01*
G01X14101Y30769D01*
G01X14113Y30759D01*
G01X14126Y30749D01*
G01X14139Y30740D01*
G01X14153Y30731D01*
G01X14166Y30722D01*
G01X14180Y30713D01*
G01X14194Y30705D01*
G01X14208Y30698D01*
G01X14223Y30691D01*
G01X14237Y30684D01*
G01X14252Y30677D01*
G01X14267Y30671D01*
G01X14282Y30665D01*
G01X14298Y30660D01*
G01X14313Y30655D01*
G01X14328Y30651D01*
G01X14344Y30647D01*
G01X14360Y30643D01*
G01X14376Y30640D01*
G01X14392Y30637D01*
G01X14408Y30635D01*
G01X14424Y30633D01*
G01X14440Y30631D01*
G01X14456Y30630D01*
G01X14472Y30630D01*
G01X14485Y30629D01*
G01X14476Y30598D01*
G01X14473Y30585D01*
G01X14450Y30571D01*
G01X14344Y30486D01*
G01X14246Y30390D01*
G01X14158Y30286D01*
G01X14081Y30173D01*
G01X14016Y30053D01*
G01X13963Y29927D01*
G01X13923Y29797D01*
G01X13896Y29663D01*
G01X13882Y29527D01*
G01X13882Y29391D01*
G01X13896Y29255D01*
G01X13923Y29121D01*
G01X13963Y28991D01*
G01X14016Y28865D01*
G01X14081Y28745D01*
G01X14158Y28633D01*
G01X14246Y28528D01*
G01X14344Y28433D01*
G01X14450Y28348D01*
G01X14565Y28274D01*
G01X14686Y28211D01*
G01X14813Y28161D01*
G01X14945Y28125D01*
G01X15079Y28101D01*
G01X15215Y28091D01*
G01X15352Y28094D01*
G01X15487Y28111D01*
G01X15620Y28141D01*
G01X15750Y28185D01*
G01X15874Y28241D01*
G01X15966Y28294D01*
G01X15988Y28293D01*
G01X16035Y28294D01*
G01X16083Y28297D01*
G01X16130Y28302D01*
G01X16177Y28310D01*
G01X16224Y28320D01*
G01X16270Y28332D01*
G01X16316Y28347D01*
G01X16360Y28364D01*
G01X16404Y28383D01*
G01X16447Y28404D01*
G01X16488Y28427D01*
G01X16529Y28453D01*
G01X16568Y28480D01*
G01X16605Y28509D01*
G01X16642Y28541D01*
G01X16676Y28573D01*
G01X16806Y28703D01*
G01X16820Y28718D01*
G01X16834Y28732D01*
G01X16847Y28747D01*
G01X16861Y28763D01*
G01X16874Y28778D01*
G01X16886Y28794D01*
G01X16898Y28811D01*
G01X16910Y28827D01*
G01X16922Y28844D01*
G01X16933Y28861D01*
G01X16944Y28878D01*
G01X16954Y28895D01*
G01X16964Y28913D01*
G01X16974Y28931D01*
G01X16984Y28949D01*
G01X16993Y28967D01*
G01X17001Y28985D01*
G01X17009Y29004D01*
G01X17017Y29023D01*
G01X17024Y29042D01*
G01X17031Y29061D01*
G01X17038Y29080D01*
G01X17044Y29099D01*
G01X17050Y29119D01*
G01X17055Y29139D01*
G01X17060Y29158D01*
G01X17065Y29178D01*
G01X17069Y29198D01*
G01X17072Y29218D01*
G01X17075Y29238D01*
G01X17078Y29258D01*
G01X17081Y29278D01*
G01X17083Y29299D01*
G01X17084Y29319D01*
G01X17085Y29339D01*
G01X17086Y29359D01*
G01X17086Y29380D01*
G01X17086Y29383D01*
G01X17257Y29383D01*
G01X17249Y29360D01*
G01X17244Y29343D01*
G01X17236Y29314D01*
G01X17231Y29297D01*
G01X17224Y29267D01*
G01X17221Y29250D01*
G01X17216Y29220D01*
G01X17213Y29203D01*
G01X17209Y29173D01*
G01X17208Y29156D01*
G01X17205Y29126D01*
G01X17205Y29109D01*
G01X17204Y29078D01*
G01X17204Y29061D01*
G01X17205Y29030D01*
G01X17205Y29012D01*
G01X17208Y28983D01*
G01X17209Y28966D01*
G01X17213Y28936D01*
G01X17216Y28918D01*
G01X17221Y28888D01*
G01X17224Y28871D01*
G01X17231Y28841D01*
G01X17236Y28824D01*
G01X17244Y28795D01*
G01X17249Y28779D01*
G01X17259Y28750D01*
G01X17265Y28734D01*
G01X17275Y28707D01*
G01X17282Y28691D01*
G01X17295Y28661D01*
G01X17303Y28646D01*
G01X17316Y28620D01*
G01X17324Y28604D01*
G01X17340Y28578D01*
G01X17349Y28563D01*
G01X17365Y28538D01*
G01X17375Y28523D01*
G01X17393Y28499D01*
G01X17403Y28485D01*
G01X17422Y28461D01*
G01X17434Y28447D01*
G01X17438Y28442D01*
G01X16923Y27925D01*
G01X16223Y27228D01*
G01X16222Y27227D01*
G01X15601Y26605D01*
G01X13167Y26605D01*
G01X13155Y26607D01*
G01X13139Y26608D01*
G01X13123Y26608D01*
G01X13106Y26609D01*
G01X11857Y26609D01*
G01X11841Y26608D01*
G01X11824Y26608D01*
G01X11808Y26607D01*
G01X11792Y26605D01*
G01X11776Y26603D01*
G01X11760Y26601D01*
G01X11744Y26598D01*
G01X11728Y26595D01*
G01X11713Y26591D01*
G01X11697Y26587D01*
G01X11681Y26583D01*
G01X11666Y26578D01*
G01X11651Y26573D01*
G01X11636Y26567D01*
G01X11621Y26561D01*
G01X11606Y26554D01*
G01X11591Y26547D01*
G01X11577Y26540D01*
G01X11563Y26532D01*
G01X11549Y26524D01*
G01X11535Y26516D01*
G01X11521Y26507D01*
G01X11508Y26498D01*
G01X11495Y26489D01*
G01X11482Y26479D01*
G01X11469Y26469D01*
G01X11457Y26458D01*
G01X11445Y26448D01*
G01X11433Y26436D01*
G01X11422Y26425D01*
G01X11411Y26413D01*
G01X11400Y26401D01*
G01X11389Y26389D01*
G01X11379Y26376D01*
G01X11369Y26364D01*
G01X11360Y26350D01*
G01X11351Y26337D01*
G01X11342Y26323D01*
G01X11334Y26310D01*
G01X11326Y26296D01*
G01X11318Y26281D01*
G01X11311Y26267D01*
G01X11304Y26252D01*
G01X11297Y26238D01*
G01X11291Y26223D01*
G01X11286Y26207D01*
G01X11280Y26192D01*
G01X11276Y26177D01*
G01X11271Y26161D01*
G01X11267Y26146D01*
G01X11263Y26130D01*
G01X11260Y26114D01*
G01X11257Y26098D01*
G01X11255Y26082D01*
G01X11253Y26066D01*
G01X11252Y26050D01*
G01X11251Y26034D01*
G01X11250Y26018D01*
G01X11250Y26002D01*
G01X11250Y25300D01*
G01X11250Y25284D01*
G01X11251Y25268D01*
G01X11252Y25252D01*
G01X11253Y25236D01*
G01X11255Y25220D01*
G01X11257Y25204D01*
G01X11260Y25188D01*
G01X11263Y25172D01*
G01X11267Y25156D01*
G01X11271Y25141D01*
G01X11276Y25125D01*
G01X11280Y25110D01*
G01X11286Y25095D01*
G01X11291Y25079D01*
G01X11297Y25064D01*
G01X11304Y25050D01*
G01X11311Y25035D01*
G01X11318Y25021D01*
G01X11326Y25006D01*
G01X11334Y24992D01*
G01X11342Y24978D01*
G01X11351Y24965D01*
G01X11360Y24952D01*
G01X11369Y24938D01*
G01X11379Y24926D01*
G01X11389Y24913D01*
G01X11400Y24901D01*
G01X11411Y24889D01*
G01X11422Y24877D01*
G01X11433Y24866D01*
G01X11445Y24854D01*
G01X11457Y24844D01*
G01X11469Y24833D01*
G01X11482Y24823D01*
G01X11495Y24813D01*
G01X11508Y24804D01*
G01X11521Y24795D01*
G01X11535Y24786D01*
G01X11549Y24778D01*
G01X11563Y24769D01*
G01X11577Y24762D01*
G01X11591Y24755D01*
G01X11606Y24748D01*
G01X11621Y24741D01*
G01X11636Y24735D01*
G01X11651Y24729D01*
G01X11666Y24724D01*
G01X11681Y24719D01*
G01X11697Y24715D01*
G01X11713Y24711D01*
G01X11728Y24707D01*
G01X11744Y24704D01*
G01X11760Y24701D01*
G01X11776Y24699D01*
G01X11792Y24697D01*
G01X11808Y24695D01*
G01X11824Y24694D01*
G01X11841Y24694D01*
G01X11857Y24693D01*
G01X12422Y24693D01*
G01X12423Y24693D01*
G01X12443Y24692D01*
G01X12464Y24692D01*
G01X12484Y24691D01*
G01X15999Y24691D01*
G01X16020Y24692D01*
G01X16041Y24692D01*
G01X16061Y24693D01*
G01X16082Y24695D01*
G01X16102Y24697D01*
G01X16123Y24699D01*
G01X16143Y24702D01*
G01X16164Y24706D01*
G01X16184Y24709D01*
G01X16204Y24714D01*
G01X16224Y24718D01*
G01X16244Y24723D01*
G01X16264Y24729D01*
G01X16284Y24735D01*
G01X16304Y24741D01*
G01X16323Y24748D01*
G01X16343Y24755D01*
G01X16362Y24763D01*
G01X16381Y24771D01*
G01X16400Y24779D01*
G01X16418Y24788D01*
G01X16437Y24797D01*
G01X16455Y24807D01*
G01X16473Y24817D01*
G01X16491Y24827D01*
G01X16508Y24838D01*
G01X16526Y24849D01*
G01X16543Y24861D01*
G01X16560Y24873D01*
G01X16576Y24885D01*
G01X16593Y24897D01*
G01X16609Y24910D01*
G01X16625Y24924D01*
G01X16640Y24937D01*
G01X16655Y24951D01*
G01X16670Y24966D01*
G01X16685Y24980D01*
G01X16780Y25078D01*
G01X17574Y25872D01*
G01X17574Y25872D01*
G01X18275Y26571D01*
G01X18278Y26573D01*
G01X18546Y26842D01*
G01X18556Y26842D01*
G01X18468Y26756D01*
G01X18378Y26649D01*
G01X18299Y26533D01*
G01X18232Y26410D01*
G01X18177Y26281D01*
G01X18136Y26147D01*
G01X18108Y26009D01*
G01X18094Y25869D01*
G01X18094Y25729D01*
G01X18108Y25590D01*
G01X18136Y25452D01*
G01X18177Y25318D01*
G01X18232Y25189D01*
G01X18299Y25066D01*
G01X18378Y24950D01*
G01X18468Y24842D01*
G01X18569Y24744D01*
G01X18678Y24657D01*
G01X18796Y24581D01*
G01X18921Y24517D01*
G01X19051Y24466D01*
G01X19187Y24428D01*
G01X19325Y24403D01*
G01X19465Y24393D01*
G01X19605Y24396D01*
G01X19668Y24404D01*
G01X19668Y23669D01*
G01X19668Y23669D01*
G01X19650Y23676D01*
G01X19632Y23683D01*
G01X19614Y23689D01*
G01X19596Y23695D01*
G01X19577Y23700D01*
G01X19559Y23705D01*
G01X19540Y23710D01*
G01X19521Y23714D01*
G01X19503Y23718D01*
G01X19484Y23721D01*
G01X19465Y23724D01*
G01X19446Y23727D01*
G01X19426Y23729D01*
G01X19407Y23730D01*
G01X19388Y23731D01*
G01X19369Y23732D01*
G01X19350Y23732D01*
G01X8250Y23732D01*
G01X8229Y23732D01*
G01X8208Y23731D01*
G01X8188Y23730D01*
G01X8167Y23728D01*
G01X8146Y23726D01*
G01X8126Y23723D01*
G01X8105Y23720D01*
G01X8085Y23716D01*
G01X8065Y23711D01*
G01X8045Y23706D01*
G01X8025Y23701D01*
G01X8005Y23695D01*
G01X7985Y23689D01*
G01X7965Y23682D01*
G01X7946Y23675D01*
G01X7927Y23667D01*
G01X7908Y23659D01*
G01X7889Y23650D01*
G01X7870Y23641D01*
G01X7852Y23631D01*
G01X7834Y23621D01*
G01X7816Y23610D01*
G01X7799Y23599D01*
G01X7781Y23588D01*
G01X7764Y23576D01*
G01X7748Y23563D01*
G01X7731Y23551D01*
G01X7715Y23538D01*
G01X7699Y23524D01*
G01X7684Y23510D01*
G01X7669Y23496D01*
G01X7654Y23481D01*
G01X7640Y23466D01*
G01X7626Y23451D01*
G01X7613Y23435D01*
G01X7599Y23419D01*
G01X7587Y23403D01*
G01X7574Y23386D01*
G01X7563Y23369D01*
G01X7551Y23352D01*
G01X7540Y23334D01*
G01X7529Y23316D01*
G01X7519Y23298D01*
G01X7510Y23280D01*
G01X7500Y23261D01*
G01X7492Y23242D01*
G01X7483Y23223D01*
G01X7475Y23204D01*
G01X7468Y23185D01*
G01X7466Y23179D01*
G01X7460Y23181D01*
G01X7444Y23185D01*
G01X7428Y23189D01*
G01X7412Y23192D01*
G01X7397Y23195D01*
G01X7381Y23197D01*
G01X7364Y23199D01*
G01X7348Y23200D01*
G01X7332Y23202D01*
G01X7316Y23202D01*
G01X7300Y23202D01*
G01X6850Y23202D01*
G01X6850Y22195D01*
G01X7418Y22195D01*
G01X7418Y21395D01*
G01X6850Y21395D01*
G01X6850Y20408D01*
G01X5949Y20408D01*
G01X5949Y21395D01*
G01X5156Y21395D01*
G01X5156Y22195D01*
G01X5949Y22195D01*
G01X5949Y23202D01*
G01X5499Y23202D01*
G01X5483Y23202D01*
G01X5467Y23202D01*
G01X5451Y23200D01*
G01X5435Y23199D01*
G01X5419Y23197D01*
G01X5403Y23195D01*
G01X5387Y23192D01*
G01X5371Y23189D01*
G01X5355Y23185D01*
G01X5339Y23181D01*
G01X5324Y23177D01*
G01X5308Y23172D01*
G01X5293Y23166D01*
G01X5278Y23161D01*
G01X5263Y23155D01*
G01X5248Y23148D01*
G01X5234Y23141D01*
G01X5219Y23134D01*
G01X5205Y23126D01*
G01X5191Y23118D01*
G01X5177Y23110D01*
G01X5164Y23101D01*
G01X5150Y23092D01*
G01X5137Y23083D01*
G01X5124Y23073D01*
G01X5112Y23063D01*
G01X5103Y23056D01*
G01X5102Y23061D01*
G01X5095Y23079D01*
G01X5087Y23097D01*
G01X5080Y23116D01*
G01X5071Y23134D01*
G01X5063Y23151D01*
G01X5054Y23169D01*
G01X5045Y23187D01*
G01X5035Y23204D01*
G01X5025Y23221D01*
G01X5014Y23238D01*
G01X5004Y23254D01*
G01X4992Y23271D01*
G01X4981Y23287D01*
G01X4969Y23302D01*
G01X4957Y23318D01*
G01X4944Y23333D01*
G01X4931Y23348D01*
G01X4918Y23363D01*
G01X4905Y23378D01*
G01X4891Y23392D01*
G01X2207Y26075D01*
G01X2207Y27265D01*
G01X2248Y27239D01*
G01X2346Y27189D01*
G01X2449Y27148D01*
G01X2555Y27119D01*
G01X2664Y27099D01*
G01X2774Y27091D01*
G01X2884Y27094D01*
G01X2994Y27108D01*
G01X3101Y27132D01*
G01X3206Y27167D01*
G01X3307Y27213D01*
G01X3402Y27268D01*
G01X3492Y27332D01*
G01X3502Y27341D01*
G01X5927Y27341D01*
G01X5968Y27292D01*
G01X6068Y27194D01*
G01X6178Y27107D01*
G01X6296Y27031D01*
G01X6421Y26967D01*
G01X6551Y26916D01*
G01X6686Y26878D01*
G01X6825Y26853D01*
G01X6962Y26843D01*
G01X7732Y25967D01*
G01X7745Y25952D01*
G01X7759Y25937D01*
G01X7773Y25922D01*
G01X7788Y25908D01*
G01X7803Y25894D01*
G01X7818Y25880D01*
G01X7833Y25867D01*
G01X7849Y25854D01*
G01X7865Y25841D01*
G01X7881Y25829D01*
G01X7898Y25817D01*
G01X7915Y25806D01*
G01X7932Y25794D01*
G01X7949Y25783D01*
G01X7966Y25773D01*
G01X7984Y25763D01*
G01X8002Y25753D01*
G01X8020Y25744D01*
G01X8038Y25735D01*
G01X8057Y25726D01*
G01X8075Y25718D01*
G01X8094Y25710D01*
G01X8113Y25703D01*
G01X8132Y25696D01*
G01X8152Y25689D01*
G01X8171Y25683D01*
G01X8191Y25677D01*
G01X8210Y25672D01*
G01X8230Y25667D01*
G01X8250Y25663D01*
G01X8270Y25659D01*
G01X8290Y25655D01*
G01X8310Y25652D01*
G01X8330Y25649D01*
G01X8350Y25647D01*
G01X8371Y25645D01*
G01X8391Y25643D01*
G01X8411Y25642D01*
G01X8432Y25642D01*
G01X8452Y25641D01*
G01X9220Y25643D01*
G01X9213Y25641D01*
G01X9198Y25637D01*
G01X9182Y25633D01*
G01X9167Y25628D01*
G01X9151Y25623D01*
G01X9136Y25617D01*
G01X9121Y25611D01*
G01X9107Y25604D01*
G01X9092Y25597D01*
G01X9077Y25590D01*
G01X9063Y25583D01*
G01X9049Y25575D01*
G01X9035Y25566D01*
G01X9022Y25557D01*
G01X9008Y25548D01*
G01X8995Y25539D01*
G01X8983Y25529D01*
G01X8970Y25519D01*
G01X8958Y25508D01*
G01X8946Y25498D01*
G01X8934Y25486D01*
G01X8922Y25475D01*
G01X8911Y25463D01*
G01X8901Y25451D01*
G01X8890Y25439D01*
G01X8880Y25426D01*
G01X8870Y25414D01*
G01X8861Y25400D01*
G01X8852Y25387D01*
G01X8843Y25374D01*
G01X8834Y25360D01*
G01X8826Y25346D01*
G01X8819Y25331D01*
G01X8811Y25317D01*
G01X8805Y25302D01*
G01X8798Y25288D01*
G01X8792Y25273D01*
G01X8786Y25257D01*
G01X8781Y25242D01*
G01X8776Y25227D01*
G01X8772Y25211D01*
G01X8768Y25196D01*
G01X8764Y25180D01*
G01X8761Y25164D01*
G01X8758Y25148D01*
G01X8756Y25132D01*
G01X8754Y25116D01*
G01X8752Y25100D01*
G01X8751Y25084D01*
G01X8751Y25068D01*
G01X8750Y25052D01*
G01X8750Y24876D01*
G01X9670Y24876D01*
G01X9670Y25643D01*
G01X9677Y25643D01*
G01X10295Y25643D01*
G01X10295Y24876D01*
G01X11214Y24876D01*
G01X11214Y25052D01*
G01X11214Y25068D01*
G01X11213Y25084D01*
G01X11212Y25100D01*
G01X11211Y25116D01*
G01X11209Y25132D01*
G01X11206Y25148D01*
G01X11204Y25164D01*
G01X11200Y25180D01*
G01X11197Y25196D01*
G01X11193Y25211D01*
G01X11188Y25227D01*
G01X11183Y25242D01*
G01X11178Y25257D01*
G01X11172Y25273D01*
G01X11166Y25288D01*
G01X11160Y25302D01*
G01X11153Y25317D01*
G01X11146Y25331D01*
G01X11138Y25346D01*
G01X11130Y25360D01*
G01X11122Y25374D01*
G01X11113Y25387D01*
G01X11104Y25400D01*
G01X11094Y25414D01*
G01X11084Y25426D01*
G01X11074Y25439D01*
G01X11064Y25451D01*
G01X11053Y25463D01*
G01X11042Y25475D01*
G01X11031Y25486D01*
G01X11019Y25498D01*
G01X11007Y25508D01*
G01X10994Y25519D01*
G01X10982Y25529D01*
G01X10969Y25539D01*
G01X10956Y25548D01*
G01X10943Y25557D01*
G01X10929Y25566D01*
G01X10915Y25575D01*
G01X10901Y25583D01*
G01X10887Y25590D01*
G01X10873Y25597D01*
G01X10858Y25604D01*
G01X10843Y25611D01*
G01X10828Y25617D01*
G01X10813Y25623D01*
G01X10798Y25628D01*
G01X10782Y25633D01*
G01X10767Y25637D01*
G01X10751Y25641D01*
G01X10735Y25645D01*
G01X10720Y25648D01*
G01X10704Y25651D01*
G01X10703Y25651D01*
G01X10704Y25651D01*
G01X10720Y25654D01*
G01X10735Y25657D01*
G01X10751Y25661D01*
G01X10767Y25665D01*
G01X10782Y25669D01*
G01X10798Y25674D01*
G01X10813Y25679D01*
G01X10828Y25685D01*
G01X10843Y25691D01*
G01X10858Y25698D01*
G01X10873Y25705D01*
G01X10887Y25712D01*
G01X10901Y25719D01*
G01X10915Y25727D01*
G01X10929Y25736D01*
G01X10943Y25745D01*
G01X10956Y25754D01*
G01X10969Y25763D01*
G01X10982Y25773D01*
G01X10994Y25783D01*
G01X11007Y25794D01*
G01X11019Y25804D01*
G01X11031Y25816D01*
G01X11042Y25827D01*
G01X11053Y25839D01*
G01X11064Y25851D01*
G01X11074Y25863D01*
G01X11084Y25876D01*
G01X11094Y25888D01*
G01X11104Y25902D01*
G01X11113Y25915D01*
G01X11122Y25928D01*
G01X11130Y25942D01*
G01X11138Y25956D01*
G01X11146Y25971D01*
G01X11153Y25985D01*
G01X11160Y26000D01*
G01X11166Y26014D01*
G01X11172Y26029D01*
G01X11178Y26045D01*
G01X11183Y26060D01*
G01X11188Y26075D01*
G01X11193Y26091D01*
G01X11197Y26106D01*
G01X11200Y26122D01*
G01X11204Y26138D01*
G01X11206Y26154D01*
G01X11209Y26170D01*
G01X11211Y26186D01*
G01X11212Y26202D01*
G01X11213Y26218D01*
G01X11214Y26234D01*
G01X11214Y26250D01*
G01X11214Y26951D01*
G01X11214Y26968D01*
G01X11213Y26984D01*
G01X11212Y27000D01*
G01X11211Y27016D01*
G01X11209Y27032D01*
G01X11206Y27048D01*
G01X11204Y27064D01*
G01X11200Y27080D01*
G01X11197Y27096D01*
G01X11193Y27111D01*
G01X11188Y27127D01*
G01X11183Y27142D01*
G01X11178Y27157D01*
G01X11172Y27173D01*
G01X11166Y27187D01*
G01X11160Y27202D01*
G01X11153Y27217D01*
G01X11146Y27231D01*
G01X11138Y27246D01*
G01X11130Y27260D01*
G01X11122Y27273D01*
G01X11113Y27287D01*
G01X11104Y27300D01*
G01X11094Y27313D01*
G01X11084Y27326D01*
G01X11074Y27339D01*
G01X11064Y27351D01*
G01X11053Y27363D01*
G01X11042Y27375D01*
G01X11031Y27386D01*
G01X11019Y27397D01*
G01X11007Y27408D01*
G01X10994Y27419D01*
G01X10982Y27429D01*
G01X10969Y27439D01*
G01X10956Y27448D01*
G01X10943Y27457D01*
G01X10929Y27466D01*
G01X10915Y27474D01*
G01X10901Y27482D01*
G01X10887Y27490D01*
G01X10873Y27497D01*
G01X10858Y27504D01*
G01X10843Y27511D01*
G01X10828Y27517D01*
G01X10813Y27522D01*
G01X10798Y27528D01*
G01X10782Y27533D01*
G01X10767Y27537D01*
G01X10751Y27541D01*
G01X10735Y27545D01*
G01X10720Y27548D01*
G01X10704Y27551D01*
G01X10688Y27553D01*
G01X10672Y27555D01*
G01X10655Y27557D01*
G01X10639Y27558D01*
G01X10623Y27558D01*
G01X10607Y27558D01*
G01X9357Y27558D01*
G01X9341Y27558D01*
G01X9325Y27558D01*
G01X9314Y27557D01*
G01X8883Y27556D01*
G01X8399Y28107D01*
G01X8400Y28109D01*
G01X8406Y28249D01*
G01X8400Y28389D01*
G01X8379Y28528D01*
G01X8344Y28664D01*
G01X8296Y28796D01*
G01X8235Y28922D01*
G01X8162Y29042D01*
G01X8077Y29154D01*
G01X7982Y29257D01*
G01X7877Y29349D01*
G01X7763Y29431D01*
G01X7641Y29501D01*
G01X7514Y29559D01*
G01X7381Y29604D01*
G01X7244Y29635D01*
G01X7105Y29652D01*
G01X6964Y29656D01*
G01X6825Y29645D01*
G01X6686Y29621D01*
G01X6551Y29583D01*
G01X6421Y29532D01*
G01X6296Y29468D01*
G01X6178Y29392D01*
G01X6068Y29304D01*
G01X5968Y29206D01*
G01X5878Y29099D01*
G01X5848Y29055D01*
G01X3501Y29055D01*
G01X3492Y29063D01*
G01X3402Y29128D01*
G01X3307Y29183D01*
G01X3206Y29228D01*
G01X3101Y29263D01*
G01X2994Y29288D01*
G01X2884Y29302D01*
G01X2774Y29304D01*
G01X2664Y29296D01*
G01X2555Y29277D01*
G01X2449Y29247D01*
G01X2346Y29207D01*
G01X2248Y29157D01*
G01X2207Y29130D01*
G01X2207Y29324D01*
G01X4783Y31899D01*
G01X6052Y30627D01*
G01X6064Y30616D01*
G01X6076Y30605D01*
G01X6088Y30594D01*
G01X6100Y30584D01*
G01X6113Y30574D01*
G01X6126Y30564D01*
G01X6139Y30555D01*
G01X6153Y30546D01*
G01X6167Y30538D01*
G01X6180Y30529D01*
G01X6195Y30521D01*
G01X6209Y30514D01*
G01X6223Y30507D01*
G01X6238Y30500D01*
G01X6253Y30494D01*
G01X6268Y30488D01*
G01X6283Y30483D01*
G01X6299Y30477D01*
G01X6314Y30473D01*
G01X6330Y30469D01*
G01X6346Y30465D01*
G01X6361Y30461D01*
G01X6377Y30458D01*
G01X6393Y30456D01*
G01X6409Y30453D01*
G01X6425Y30452D01*
G01X6441Y30450D01*
G01X6458Y30450D01*
G01X6474Y30449D01*
G01X6490Y30449D01*
G01X6506Y30450D01*
G01X6522Y30450D01*
G01X6538Y30452D01*
G01X6554Y30453D01*
G01X6570Y30456D01*
G01X6586Y30458D01*
G01X6602Y30461D01*
G01X6618Y30465D01*
G01X6634Y30468D01*
G01X6649Y30473D01*
G01X6665Y30477D01*
G01X6680Y30482D01*
G01X6695Y30488D01*
G01X6711Y30494D01*
G01X6725Y30500D01*
G01X6740Y30507D01*
G01X6755Y30514D01*
G01X6769Y30521D01*
G01X6783Y30529D01*
G01X6797Y30537D01*
G01X6811Y30546D01*
G01X6824Y30555D01*
G01X6838Y30564D01*
G01X6850Y30574D01*
G01X6863Y30584D01*
G01X6876Y30594D01*
G01X6888Y30605D01*
G01X6900Y30616D01*
G01X6911Y30627D01*
G01X8044Y31760D01*
G01X8055Y31771D01*
G01X8066Y31783D01*
G01X8077Y31795D01*
G01X8087Y31808D01*
G01X8097Y31821D01*
G01X8107Y31834D01*
G01X8116Y31847D01*
G01X8125Y31860D01*
G01X8134Y31874D01*
G01X8142Y31888D01*
G01X8150Y31902D01*
G01X8157Y31916D01*
G01X8164Y31931D01*
G01X8171Y31946D01*
G01X8177Y31961D01*
G01X8183Y31976D01*
G01X8189Y31991D01*
G01X8194Y32006D01*
G01X8198Y32022D01*
G01X8203Y32037D01*
G01X8207Y32053D01*
G01X8210Y32069D01*
G01X8213Y32085D01*
G01X8215Y32101D01*
G01X8218Y32117D01*
G01X8219Y32133D01*
G01X8221Y32149D01*
G01X8221Y32165D01*
G01X8222Y32181D01*
G01X8222Y32197D01*
G01X8221Y32214D01*
G01X8221Y32230D01*
G01X8219Y32246D01*
G01X8218Y32262D01*
G01X8215Y32278D01*
G01X8213Y32294D01*
G01X8210Y32310D01*
G01X8206Y32326D01*
G01X8203Y32341D01*
G01X8198Y32357D01*
G01X8194Y32372D01*
G01X8188Y32388D01*
G01X8183Y32403D01*
G01X8177Y32418D01*
G01X8171Y32433D01*
G01X8164Y32448D01*
G01X8157Y32462D01*
G01X8150Y32476D01*
G01X8142Y32491D01*
G01X8133Y32504D01*
G01X8125Y32518D01*
G01X8117Y32530D01*
G01X8129Y32522D01*
G01X8143Y32514D01*
G01X8157Y32505D01*
G01X8171Y32498D01*
G01X8185Y32490D01*
G01X8200Y32483D01*
G01X8214Y32476D01*
G01X8229Y32470D01*
G01X8244Y32464D01*
G01X8260Y32459D01*
G01X8275Y32454D01*
G01X8291Y32449D01*
G01X8306Y32445D01*
G01X8322Y32441D01*
G01X8338Y32437D01*
G01X8354Y32434D01*
G01X8370Y32432D01*
G01X8386Y32430D01*
G01X8402Y32428D01*
G01X8418Y32427D01*
G01X8434Y32426D01*
G01X8450Y32425D01*
G01X8466Y32425D01*
G01X8483Y32426D01*
G01X8499Y32427D01*
G01X8515Y32428D01*
G01X8531Y32430D01*
G01X8547Y32432D01*
G01X8563Y32434D01*
G01X8579Y32437D01*
G01X8595Y32441D01*
G01X8610Y32445D01*
G01X8626Y32449D01*
G01X8641Y32454D01*
G01X8657Y32459D01*
G01X8672Y32464D01*
G01X8687Y32470D01*
G01X8702Y32476D01*
G01X8717Y32483D01*
G01X8731Y32490D01*
G01X8746Y32498D01*
G01X8760Y32505D01*
G01X8774Y32514D01*
G01X8787Y32522D01*
G01X8801Y32531D01*
G01X8814Y32541D01*
G01X8827Y32550D01*
G01X8840Y32560D01*
G01X8852Y32571D01*
G01X8864Y32581D01*
G01X8876Y32592D01*
G01X8888Y32603D01*
G01X10018Y33736D01*
G01X10029Y33748D01*
G01X10040Y33760D01*
G01X10051Y33772D01*
G01X10061Y33784D01*
G01X10071Y33797D01*
G01X10081Y33810D01*
G01X10090Y33823D01*
G01X10099Y33837D01*
G01X10108Y33850D01*
G01X10116Y33864D01*
G01X10124Y33879D01*
G01X10131Y33893D01*
G01X10138Y33907D01*
G01X10145Y33922D01*
G01X10151Y33937D01*
G01X10157Y33952D01*
G01X10162Y33967D01*
G01X10167Y33983D01*
G01X10172Y33998D01*
G01X10176Y34014D01*
G01X10180Y34029D01*
G01X10184Y34045D01*
G01X10184Y34045D01*
G01X10631Y34493D01*
G01X13200Y34493D01*
G01X13225Y34493D01*
G01X13249Y34494D01*
G01X13274Y34495D01*
G01X13299Y34496D01*
G01X13323Y34498D01*
G01X13347Y34501D01*
G01X13372Y34503D01*
G01X13396Y34507D01*
G01X13421Y34510D01*
G01X13445Y34514D01*
G01X13469Y34519D01*
G01X13493Y34524D01*
G01X13517Y34529D01*
G01X13541Y34535D01*
G01X13565Y34541D01*
G01X13588Y34547D01*
G01X13612Y34554D01*
G01X13635Y34562D01*
G01X13658Y34570D01*
G01X13682Y34578D01*
G01X13705Y34586D01*
G01X13727Y34595D01*
G01X13750Y34605D01*
G01X13773Y34615D01*
G01X13795Y34625D01*
G01X13817Y34635D01*
G01X13839Y34646D01*
G01X13861Y34658D01*
G01X13883Y34669D01*
G01X13904Y34681D01*
G01X13925Y34694D01*
G01X13946Y34707D01*
G01X13967Y34720D01*
G01X13987Y34733D01*
G01X14007Y34747D01*
G01X14027Y34762D01*
G01X14047Y34776D01*
G01X14067Y34791D01*
G01X14086Y34806D01*
G01X14105Y34822D01*
G01X14123Y34838D01*
G01X14142Y34854D01*
G01X14160Y34871D01*
G01X14178Y34888D01*
G01X14195Y34905D01*
G01X16845Y37554D01*
G01X16862Y37572D01*
G01X16879Y37590D01*
G01X16895Y37608D01*
G01X16911Y37626D01*
G01X16927Y37645D01*
G01X16943Y37664D01*
G01X16958Y37683D01*
G01X16973Y37702D01*
G01X16988Y37722D01*
G01X17002Y37742D01*
G01X17016Y37762D01*
G01X17030Y37783D01*
G01X17043Y37804D01*
G01X17056Y37824D01*
G01X17068Y37846D01*
G01X17080Y37867D01*
G01X17092Y37889D01*
G01X17103Y37910D01*
G01X17114Y37932D01*
G01X17125Y37954D01*
G01X17135Y37977D01*
G01X17145Y37999D01*
G01X17154Y38022D01*
G01X17163Y38045D01*
G01X17172Y38068D01*
G01X17180Y38091D01*
G01X17188Y38114D01*
G01X17195Y38138D01*
G01X17202Y38161D01*
G01X17209Y38185D01*
G01X17215Y38209D01*
G01X17221Y38233D01*
G01X17226Y38257D01*
G01X17231Y38281D01*
G01X17235Y38305D01*
G01X17239Y38329D01*
G01X17243Y38353D01*
G01X17246Y38378D01*
G01X17249Y38402D01*
G01X17251Y38426D01*
G01X17253Y38451D01*
G01X17255Y38475D01*
G01X17256Y38500D01*
G01X17256Y38525D01*
G01X17257Y38549D01*
G01X17257Y38927D01*
G01X17318Y38854D01*
G01X17433Y38742D01*
G01X17558Y38642D01*
G01X17693Y38555D01*
G01X17835Y38482D01*
G01X17984Y38423D01*
G01X18139Y38380D01*
G01X18296Y38352D01*
G01X18456Y38340D01*
G01X18616Y38344D01*
G01X18775Y38364D01*
G01X18932Y38400D01*
G01X19083Y38451D01*
G01X19229Y38517D01*
G01X19368Y38597D01*
G01X19498Y38690D01*
G01X19618Y38796D01*
G01X19727Y38914D01*
G01X19824Y39041D01*
G01X19908Y39178D01*
G01X19977Y39322D01*
G01X20032Y39473D01*
G01X20071Y39628D01*
G01X20095Y39787D01*
G01X20103Y39947D01*
G01X20095Y40107D01*
G01X20071Y40265D01*
G01X20032Y40420D01*
G01X19977Y40571D01*
G01X19908Y40715D01*
G01X19824Y40852D01*
G01X19727Y40980D01*
G01X19618Y41097D01*
G01X19498Y41203D01*
G01X19368Y41297D01*
G01X19229Y41377D01*
G01X19083Y41443D01*
G01X18932Y41494D01*
G01X18775Y41529D01*
G01X18616Y41549D01*
G01X18456Y41553D01*
G01X18296Y41541D01*
G01X18139Y41513D01*
G01X17984Y41470D01*
G01X17835Y41411D01*
G01X17693Y41338D01*
G01X17558Y41251D01*
G01X17433Y41152D01*
G01X17318Y41040D01*
G01X17215Y40917D01*
G01X17178Y40863D01*
G01X17090Y40980D01*
G01X16981Y41097D01*
G01X16861Y41203D01*
G01X16731Y41297D01*
G01X16592Y41377D01*
G01X16446Y41443D01*
G01X16294Y41494D01*
G01X16138Y41529D01*
G01X15979Y41549D01*
G01X15819Y41553D01*
G01X15659Y41541D01*
G01X15501Y41513D01*
G01X15347Y41470D01*
G01X15198Y41411D01*
G01X15055Y41338D01*
G01X14921Y41251D01*
G01X14795Y41152D01*
G01X14681Y41040D01*
G01X14578Y40917D01*
G01X14576Y40914D01*
G01X14572Y40920D01*
G01X14463Y41037D01*
G01X14343Y41143D01*
G01X14213Y41237D01*
G01X14074Y41317D01*
G01X13928Y41383D01*
G01X13776Y41434D01*
G01X13620Y41469D01*
G01X13461Y41489D01*
G01X13301Y41493D01*
G01X13141Y41481D01*
G01X12984Y41453D01*
G01X12829Y41410D01*
G01X12680Y41351D01*
G01X12538Y41278D01*
G01X12403Y41191D01*
G01X12278Y41092D01*
G01X12163Y40980D01*
G01X12082Y40883D01*
G01X12054Y40920D01*
G01X11946Y41037D01*
G01X11825Y41143D01*
G01X11695Y41237D01*
G01X11557Y41317D01*
G01X11411Y41383D01*
G01X11323Y41412D01*
G01X11323Y40387D01*
G01X11816Y40387D01*
G01X11784Y40283D01*
G01X11752Y40126D01*
G01X11736Y39967D01*
G01X11736Y39807D01*
G01X11752Y39647D01*
G01X11784Y39490D01*
G01X11816Y39387D01*
G01X11323Y39387D01*
G01X11323Y38361D01*
G01X11411Y38391D01*
G01X11557Y38457D01*
G01X11695Y38537D01*
G01X11825Y38630D01*
G01X11946Y38736D01*
G01X12054Y38854D01*
G01X12082Y38890D01*
G01X12163Y38794D01*
G01X12278Y38682D01*
G01X12403Y38582D01*
G01X12538Y38495D01*
G01X12680Y38422D01*
G01X12829Y38363D01*
G01X12984Y38320D01*
G01X13141Y38292D01*
G01X13301Y38280D01*
G01X13461Y38284D01*
G01X13614Y38303D01*
G01X12618Y37307D01*
G01X10048Y37307D01*
G01X10024Y37307D01*
G01X9999Y37306D01*
G01X9975Y37305D01*
G01X9950Y37303D01*
G01X9926Y37302D01*
G01X9901Y37299D01*
G01X9877Y37296D01*
G01X9852Y37293D01*
G01X9828Y37290D01*
G01X9804Y37286D01*
G01X9780Y37281D01*
G01X9756Y37276D01*
G01X9732Y37271D01*
G01X9708Y37265D01*
G01X9684Y37259D01*
G01X9660Y37252D01*
G01X9637Y37245D01*
G01X9613Y37238D01*
G01X9590Y37230D01*
G01X9567Y37222D01*
G01X9544Y37213D01*
G01X9521Y37204D01*
G01X9498Y37195D01*
G01X9476Y37185D01*
G01X9454Y37175D01*
G01X9431Y37165D01*
G01X9409Y37154D01*
G01X9388Y37142D01*
G01X9366Y37130D01*
G01X9345Y37118D01*
G01X9324Y37106D01*
G01X9303Y37093D01*
G01X9282Y37080D01*
G01X9261Y37066D01*
G01X9241Y37052D01*
G01X9221Y37038D01*
G01X9201Y37024D01*
G01X9182Y37009D01*
G01X9163Y36993D01*
G01X9144Y36978D01*
G01X9125Y36962D01*
G01X9107Y36946D01*
G01X9089Y36929D01*
G01X9071Y36912D01*
G01X9053Y36895D01*
G01X8190Y36031D01*
G01X8180Y36029D01*
G01X8164Y36025D01*
G01X8148Y36021D01*
G01X8133Y36016D01*
G01X8118Y36011D01*
G01X8102Y36006D01*
G01X8087Y36000D01*
G01X8073Y35994D01*
G01X8058Y35987D01*
G01X8043Y35980D01*
G01X8029Y35972D01*
G01X8015Y35965D01*
G01X8001Y35956D01*
G01X7987Y35948D01*
G01X7974Y35939D01*
G01X7960Y35930D01*
G01X7948Y35920D01*
G01X7935Y35910D01*
G01X7922Y35900D01*
G01X7910Y35889D01*
G01X7898Y35878D01*
G01X7887Y35867D01*
G01X6756Y34737D01*
G01X6745Y34725D01*
G01X6734Y34713D01*
G01X6724Y34701D01*
G01X6713Y34689D01*
G01X6703Y34676D01*
G01X6694Y34663D01*
G01X6684Y34650D01*
G01X6675Y34636D01*
G01X6667Y34622D01*
G01X6659Y34609D01*
G01X6651Y34594D01*
G01X6643Y34580D01*
G01X6636Y34566D01*
G01X6630Y34551D01*
G01X6623Y34536D01*
G01X6617Y34521D01*
G01X6612Y34506D01*
G01X6607Y34490D01*
G01X6602Y34475D01*
G01X6598Y34459D01*
G01X6594Y34444D01*
G01X6591Y34428D01*
G01X6588Y34412D01*
G01X6585Y34396D01*
G01X6583Y34380D01*
G01X6581Y34364D01*
G01X6580Y34348D01*
G01X6579Y34332D01*
G01X6579Y34316D01*
G01X6579Y34300D01*
G01X6579Y34283D01*
G01X6580Y34267D01*
G01X6581Y34251D01*
G01X6583Y34235D01*
G01X6585Y34219D01*
G01X6588Y34203D01*
G01X6591Y34187D01*
G01X6594Y34171D01*
G01X6598Y34156D01*
G01X6602Y34140D01*
G01X6607Y34125D01*
G01X6612Y34109D01*
G01X6617Y34094D01*
G01X6623Y34079D01*
G01X6629Y34064D01*
G01X6636Y34050D01*
G01X6643Y34035D01*
G01X6651Y34021D01*
G01X6658Y34007D01*
G01X6667Y33993D01*
G01X6675Y33979D01*
G01X6684Y33965D01*
G01X6690Y33958D01*
G01X6682Y33963D01*
G01X6668Y33972D01*
G01X6655Y33981D01*
G01X6641Y33989D01*
G01X6626Y33997D01*
G01X6612Y34004D01*
G01X6598Y34011D01*
G01X6583Y34018D01*
G01X6568Y34024D01*
G01X6553Y34030D01*
G01X6538Y34035D01*
G01X6522Y34040D01*
G01X6507Y34045D01*
G01X6491Y34049D01*
G01X6476Y34053D01*
G01X6460Y34057D01*
G01X6444Y34060D01*
G01X6428Y34062D01*
G01X6412Y34064D01*
G01X6396Y34066D01*
G01X6380Y34067D01*
G01X6364Y34068D01*
G01X6348Y34068D01*
G01X6331Y34068D01*
G01X6315Y34068D01*
G01X6299Y34067D01*
G01X6283Y34066D01*
G01X6267Y34064D01*
G01X6251Y34062D01*
G01X6235Y34059D01*
G01X6219Y34056D01*
G01X6203Y34053D01*
G01X6188Y34049D01*
G01X6172Y34045D01*
G01X6157Y34040D01*
G01X6141Y34035D01*
G01X6126Y34030D01*
G01X6111Y34024D01*
G01X6096Y34017D01*
G01X6082Y34011D01*
G01X6067Y34004D01*
G01X6053Y33996D01*
G01X6039Y33988D01*
G01X6025Y33980D01*
G01X6011Y33972D01*
G01X5998Y33963D01*
G01X5994Y33960D01*
G01X5864Y34090D01*
G01X5849Y34104D01*
G01X5835Y34117D01*
G01X5820Y34131D01*
G01X5805Y34144D01*
G01X5790Y34156D01*
G01X5774Y34168D01*
G01X5759Y34180D01*
G01X5742Y34192D01*
G01X5726Y34203D01*
G01X5710Y34214D01*
G01X5693Y34224D01*
G01X5676Y34234D01*
G01X5659Y34244D01*
G01X5641Y34253D01*
G01X5623Y34262D01*
G01X5606Y34271D01*
G01X5588Y34279D01*
G01X5569Y34287D01*
G01X5551Y34294D01*
G01X5532Y34301D01*
G01X5514Y34308D01*
G01X5495Y34314D01*
G01X5476Y34320D01*
G01X5457Y34325D01*
G01X5438Y34330D01*
G01X5419Y34334D01*
G01X5399Y34338D01*
G01X5380Y34342D01*
G01X5360Y34345D01*
G01X5341Y34348D01*
G01X5321Y34350D01*
G01X5301Y34352D01*
G01X5282Y34354D01*
G01X5262Y34355D01*
G01X5242Y34356D01*
G01X5222Y34356D01*
G01X5050Y34356D01*
G01X5030Y34356D01*
G01X5010Y34355D01*
G01X4990Y34354D01*
G01X4970Y34352D01*
G01X4951Y34350D01*
G01X4931Y34348D01*
G01X4912Y34345D01*
G01X4892Y34342D01*
G01X4873Y34338D01*
G01X4853Y34334D01*
G01X4834Y34330D01*
G01X4815Y34325D01*
G01X4796Y34320D01*
G01X4777Y34314D01*
G01X4758Y34308D01*
G01X4739Y34301D01*
G01X4721Y34294D01*
G01X4702Y34287D01*
G01X4684Y34279D01*
G01X4666Y34271D01*
G01X4648Y34262D01*
G01X4631Y34253D01*
G01X4613Y34244D01*
G01X4596Y34234D01*
G01X4579Y34224D01*
G01X4562Y34214D01*
G01X4546Y34203D01*
G01X4529Y34192D01*
G01X4513Y34180D01*
G01X4497Y34168D01*
G01X4482Y34156D01*
G01X4467Y34144D01*
G01X4451Y34131D01*
G01X4437Y34117D01*
G01X4422Y34104D01*
G01X4408Y34090D01*
G01X659Y30341D01*
G01X645Y30327D01*
G01X632Y30313D01*
G01X619Y30298D01*
G01X606Y30283D01*
G01X593Y30267D01*
G01X581Y30252D01*
G01X569Y30236D01*
G01X558Y30220D01*
G01X546Y30204D01*
G01X536Y30187D01*
G01X525Y30170D01*
G01X515Y30153D01*
G01X505Y30136D01*
G01X496Y30119D01*
G01X487Y30101D01*
G01X478Y30083D01*
G01X470Y30065D01*
G01X463Y30047D01*
G01X455Y30028D01*
G01X448Y30010D01*
G01X442Y29991D01*
G01X435Y29972D01*
G01X430Y29954D01*
G01X424Y29934D01*
G01X419Y29915D01*
G01X415Y29896D01*
G01X411Y29877D01*
G01X407Y29857D01*
G01X404Y29838D01*
G01X401Y29818D01*
G01X399Y29799D01*
G01X397Y29779D01*
G01X395Y29759D01*
G01X394Y29739D01*
G01X394Y29720D01*
G01X393Y29700D01*
G01X393Y25699D01*
G01X394Y25679D01*
G01X394Y25660D01*
G01X395Y25640D01*
G01X397Y25620D01*
G01X399Y25600D01*
G01X401Y25581D01*
G01X404Y25561D01*
G01X407Y25542D01*
G01X411Y25522D01*
G01X415Y25503D01*
G01X419Y25484D01*
G01X424Y25464D01*
G01X430Y25445D01*
G01X435Y25427D01*
G01X442Y25408D01*
G01X448Y25389D01*
G01X455Y25371D01*
G01X463Y25352D01*
G01X470Y25334D01*
G01X478Y25316D01*
G01X487Y25298D01*
G01X496Y25280D01*
G01X505Y25263D01*
G01X515Y25246D01*
G01X525Y25229D01*
G01X536Y25212D01*
G01X546Y25195D01*
G01X558Y25179D01*
G01X569Y25163D01*
G01X581Y25147D01*
G01X593Y25132D01*
G01X606Y25116D01*
G01X619Y25101D01*
G01X632Y25086D01*
G01X645Y25072D01*
G01X659Y25058D01*
G01X3342Y22375D01*
G01X3342Y19199D01*
G01X3343Y19180D01*
G01X3343Y19160D01*
G01X3344Y19140D01*
G01X3346Y19120D01*
G01X3348Y19101D01*
G01X3350Y19081D01*
G01X3353Y19061D01*
G01X3356Y19042D01*
G01X3360Y19022D01*
G01X3364Y19003D01*
G01X3368Y18984D01*
G01X3373Y18965D01*
G01X3379Y18946D01*
G01X3384Y18927D01*
G01X3391Y18908D01*
G01X3397Y18889D01*
G01X3404Y18871D01*
G01X3411Y18852D01*
G01X3419Y18834D01*
G01X3427Y18816D01*
G01X3436Y18798D01*
G01X3445Y18781D01*
G01X3454Y18763D01*
G01X3464Y18746D01*
G01X3474Y18729D01*
G01X3484Y18712D01*
G01X3495Y18695D01*
G01X3506Y18679D01*
G01X3518Y18663D01*
G01X3530Y18647D01*
G01X3542Y18632D01*
G01X3555Y18616D01*
G01X3568Y18601D01*
G01X3581Y18587D01*
G01X3594Y18572D01*
G01X3608Y18558D01*
G01X3806Y18360D01*
G01X3820Y18346D01*
G01X3835Y18333D01*
G01X3850Y18319D01*
G01X3865Y18306D01*
G01X3880Y18294D01*
G01X3895Y18282D01*
G01X3911Y18270D01*
G01X3927Y18258D01*
G01X3944Y18247D01*
G01X3960Y18236D01*
G01X3977Y18226D01*
G01X3994Y18216D01*
G01X4011Y18206D01*
G01X4029Y18197D01*
G01X4046Y18188D01*
G01X4064Y18179D01*
G01X4082Y18171D01*
G01X4100Y18163D01*
G01X4119Y18156D01*
G01X4137Y18149D01*
G01X4156Y18142D01*
G01X4175Y18136D01*
G01X4194Y18131D01*
G01X4213Y18125D01*
G01X4232Y18120D01*
G01X4251Y18116D01*
G01X4271Y18112D01*
G01X4290Y18108D01*
G01X4310Y18105D01*
G01X4329Y18102D01*
G01X4349Y18100D01*
G01X4369Y18098D01*
G01X4388Y18096D01*
G01X4408Y18095D01*
G01X4428Y18094D01*
G01X4448Y18094D01*
G01X4902Y18094D01*
G01X4903Y18089D01*
G01X4906Y18073D01*
G01X4909Y18057D01*
G01X4913Y18041D01*
G01X4918Y18026D01*
G01X4923Y18011D01*
G01X4928Y17995D01*
G01X4934Y17980D01*
G01X4940Y17965D01*
G01X4946Y17950D01*
G01X4953Y17936D01*
G01X4960Y17921D01*
G01X4968Y17907D01*
G01X4976Y17893D01*
G01X4985Y17879D01*
G01X4993Y17866D01*
G01X5002Y17852D01*
G01X5012Y17839D01*
G01X5022Y17826D01*
G01X5032Y17814D01*
G01X5042Y17801D01*
G01X5053Y17789D01*
G01X5064Y17778D01*
G01X5076Y17766D01*
G01X5087Y17755D01*
G01X5099Y17744D01*
G01X5112Y17734D01*
G01X5124Y17724D01*
G01X5137Y17714D01*
G01X5150Y17704D01*
G01X5164Y17695D01*
G01X5177Y17687D01*
G01X5191Y17678D01*
G01X5205Y17670D01*
G01X5219Y17663D01*
G01X5234Y17655D01*
G01X5248Y17648D01*
G01X5263Y17642D01*
G01X5278Y17636D01*
G01X5293Y17630D01*
G01X5308Y17625D01*
G01X5324Y17620D01*
G01X5339Y17616D01*
G01X5355Y17612D01*
G01X5371Y17608D01*
G01X5387Y17605D01*
G01X5403Y17602D01*
G01X5419Y17600D01*
G01X5435Y17598D01*
G01X5451Y17596D01*
G01X5467Y17595D01*
G01X5483Y17594D01*
G01X5499Y17594D01*
G01X7300Y17594D01*
G01X7316Y17594D01*
G01X7332Y17595D01*
G01X7348Y17596D01*
G01X7364Y17598D01*
G01X7373Y17599D01*
G01X5578Y15803D01*
G01X4448Y15803D01*
G01X4431Y15803D01*
G01X4415Y15802D01*
G01X4399Y15801D01*
G01X4383Y15800D01*
G01X4367Y15798D01*
G01X4351Y15796D01*
G01X4335Y15793D01*
G01X4319Y15790D01*
G01X4303Y15786D01*
G01X4288Y15782D01*
G01X4272Y15777D01*
G01X4257Y15773D01*
G01X4242Y15767D01*
G01X4226Y15762D01*
G01X4212Y15756D01*
G01X4197Y15749D01*
G01X4182Y15742D01*
G01X4168Y15735D01*
G01X4153Y15727D01*
G01X4139Y15719D01*
G01X4126Y15711D01*
G01X4112Y15702D01*
G01X4099Y15693D01*
G01X4086Y15684D01*
G01X4073Y15674D01*
G01X4060Y15664D01*
G01X4048Y15653D01*
G01X4036Y15642D01*
G01X4024Y15631D01*
G01X4013Y15620D01*
G01X4002Y15608D01*
G01X3991Y15596D01*
G01X3980Y15584D01*
G01X3970Y15571D01*
G01X3960Y15558D01*
G01X3951Y15545D01*
G01X3942Y15532D01*
G01X3933Y15518D01*
G01X3925Y15504D01*
G01X3917Y15490D01*
G01X3909Y15476D01*
G01X3902Y15462D01*
G01X3895Y15447D01*
G01X3888Y15432D01*
G01X3882Y15417D01*
G01X3877Y15402D01*
G01X3871Y15387D01*
G01X3866Y15372D01*
G01X3862Y15356D01*
G01X3858Y15340D01*
G01X3854Y15325D01*
G01X3851Y15309D01*
G01X3848Y15293D01*
G01X3846Y15277D01*
G01X3844Y15261D01*
G01X3842Y15245D01*
G01X3841Y15229D01*
G01X3841Y15212D01*
G01X3841Y15196D01*
G01X3841Y13596D01*
G01X3841Y13580D01*
G01X3841Y13564D01*
G01X3842Y13548D01*
G01X3844Y13532D01*
G01X3846Y13516D01*
G01X3848Y13500D01*
G01X3851Y13484D01*
G01X3854Y13468D01*
G01X3858Y13452D01*
G01X3862Y13436D01*
G01X3866Y13421D01*
G01X3871Y13405D01*
G01X3877Y13390D01*
G01X3882Y13375D01*
G01X3888Y13360D01*
G01X3895Y13345D01*
G01X3902Y13331D01*
G01X3909Y13316D01*
G01X3917Y13302D01*
G01X3925Y13288D01*
G01X3933Y13274D01*
G01X3942Y13261D01*
G01X3951Y13247D01*
G01X3960Y13234D01*
G01X3970Y13221D01*
G01X3980Y13209D01*
G01X3991Y13196D01*
G01X4002Y13184D01*
G01X4013Y13173D01*
G01X4024Y13161D01*
G01X4036Y13150D01*
G01X4048Y13139D01*
G01X4060Y13129D01*
G01X4073Y13119D01*
G01X4086Y13109D01*
G01X4099Y13099D01*
G01X4112Y13090D01*
G01X4126Y13082D01*
G01X4139Y13073D01*
G01X4153Y13065D01*
G01X4168Y13058D01*
G01X4182Y13050D01*
G01X4197Y13043D01*
G01X4212Y13037D01*
G01X4226Y13031D01*
G01X4242Y13025D01*
G01X4257Y13020D01*
G01X4272Y13015D01*
G01X4288Y13011D01*
G01X4303Y13006D01*
G01X4319Y13003D01*
G01X4335Y13000D01*
G01X4337Y12999D01*
G01X4335Y12999D01*
G01X4319Y12996D01*
G01X4303Y12992D01*
G01X4288Y12988D01*
G01X4272Y12983D01*
G01X4257Y12979D01*
G01X4242Y12973D01*
G01X4226Y12968D01*
G01X4212Y12962D01*
G01X4197Y12955D01*
G01X4182Y12948D01*
G01X4168Y12941D01*
G01X4153Y12933D01*
G01X4139Y12925D01*
G01X4126Y12917D01*
G01X4112Y12908D01*
G01X4099Y12899D01*
G01X4086Y12890D01*
G01X4073Y12880D01*
G01X4060Y12870D01*
G01X4048Y12859D01*
G01X4036Y12848D01*
G01X4024Y12837D01*
G01X4013Y12826D01*
G01X4002Y12814D01*
G01X3991Y12802D01*
G01X3980Y12790D01*
G01X3970Y12777D01*
G01X3960Y12764D01*
G01X3951Y12751D01*
G01X3942Y12738D01*
G01X3933Y12724D01*
G01X3925Y12710D01*
G01X3917Y12696D01*
G01X3909Y12682D01*
G01X3902Y12668D01*
G01X3895Y12653D01*
G01X3888Y12638D01*
G01X3882Y12623D01*
G01X3877Y12608D01*
G01X3871Y12593D01*
G01X3866Y12578D01*
G01X3862Y12562D01*
G01X3858Y12546D01*
G01X3854Y12531D01*
G01X3851Y12515D01*
G01X3848Y12499D01*
G01X3846Y12483D01*
G01X3844Y12467D01*
G01X3842Y12451D01*
G01X3841Y12435D01*
G01X3841Y12418D01*
G01X3841Y12402D01*
G01X3841Y12002D01*
G01X4898Y12002D01*
G01X4898Y12989D01*
G01X5798Y12989D01*
G01X5798Y12002D01*
G01X6855Y12002D01*
G01X6855Y12402D01*
G01X6855Y12418D01*
G01X6855Y12435D01*
G01X6853Y12451D01*
G01X6852Y12467D01*
G01X6850Y12483D01*
G01X6848Y12499D01*
G01X6845Y12515D01*
G01X6842Y12531D01*
G01X6838Y12546D01*
G01X6834Y12562D01*
G01X6830Y12578D01*
G01X6825Y12593D01*
G01X6819Y12608D01*
G01X6814Y12623D01*
G01X6808Y12638D01*
G01X6801Y12653D01*
G01X6794Y12668D01*
G01X6787Y12682D01*
G01X6779Y12696D01*
G01X6771Y12710D01*
G01X6763Y12724D01*
G01X6754Y12738D01*
G01X6745Y12751D01*
G01X6736Y12764D01*
G01X6726Y12777D01*
G01X6716Y12790D01*
G01X6705Y12802D01*
G01X6694Y12814D01*
G01X6683Y12826D01*
G01X6672Y12837D01*
G01X6660Y12848D01*
G01X6648Y12859D01*
G01X6636Y12870D01*
G01X6623Y12880D01*
G01X6610Y12890D01*
G01X6597Y12899D01*
G01X6584Y12908D01*
G01X6570Y12917D01*
G01X6557Y12925D01*
G01X6543Y12933D01*
G01X6528Y12941D01*
G01X6514Y12948D01*
G01X6499Y12955D01*
G01X6484Y12962D01*
G01X6469Y12968D01*
G01X6454Y12973D01*
G01X6439Y12979D01*
G01X6424Y12983D01*
G01X6408Y12988D01*
G01X6392Y12992D01*
G01X6377Y12996D01*
G01X6361Y12999D01*
G01X6359Y12999D01*
G01X6361Y13000D01*
G01X6377Y13003D01*
G01X6392Y13006D01*
G01X6408Y13011D01*
G01X6424Y13015D01*
G01X6439Y13020D01*
G01X6454Y13025D01*
G01X6469Y13031D01*
G01X6484Y13037D01*
G01X6499Y13043D01*
G01X6514Y13050D01*
G01X6528Y13058D01*
G01X6543Y13065D01*
G01X6557Y13073D01*
G01X6570Y13082D01*
G01X6584Y13090D01*
G01X6597Y13099D01*
G01X6610Y13109D01*
G01X6623Y13119D01*
G01X6636Y13129D01*
G01X6648Y13139D01*
G01X6660Y13150D01*
G01X6672Y13161D01*
G01X6683Y13173D01*
G01X6694Y13184D01*
G01X6705Y13196D01*
G01X6716Y13209D01*
G01X6726Y13221D01*
G01X6736Y13234D01*
G01X6745Y13247D01*
G01X6754Y13261D01*
G01X6763Y13274D01*
G01X6771Y13288D01*
G01X6779Y13302D01*
G01X6787Y13316D01*
G01X6794Y13331D01*
G01X6801Y13345D01*
G01X6808Y13360D01*
G01X6814Y13375D01*
G01X6819Y13390D01*
G01X6825Y13405D01*
G01X6830Y13421D01*
G01X6834Y13436D01*
G01X6838Y13452D01*
G01X6842Y13468D01*
G01X6845Y13484D01*
G01X6848Y13500D01*
G01X6850Y13516D01*
G01X6852Y13532D01*
G01X6853Y13548D01*
G01X6855Y13564D01*
G01X6855Y13580D01*
G01X6855Y13596D01*
G01X6855Y14728D01*
G01X7124Y14996D01*
G01X7122Y14988D01*
G01X7118Y14968D01*
G01X7115Y14947D01*
G01X7112Y14926D01*
G01X7110Y14905D01*
G01X7108Y14884D01*
G01X7106Y14863D01*
G01X7105Y14842D01*
G01X7104Y14821D01*
G01X7104Y14799D01*
G01X7104Y5921D01*
G01X7064Y5826D01*
G01X7032Y5721D01*
G01X7010Y5614D01*
G01X6999Y5504D01*
G01X6999Y5394D01*
G01X7010Y5285D01*
G01X7032Y5177D01*
G01X7064Y5072D01*
G01X7107Y4971D01*
G01X7159Y4875D01*
G01X7221Y4784D01*
G01X7292Y4700D01*
G01X7370Y4623D01*
G01X7456Y4555D01*
G01X7549Y4495D01*
G01X7646Y4445D01*
G01X7749Y4405D01*
G01X7854Y4375D01*
G01X7963Y4356D01*
G01X8072Y4348D01*
G01X8182Y4350D01*
G01X8291Y4364D01*
G01X8398Y4389D01*
G01X8502Y4424D01*
G01X8602Y4469D01*
G01X8697Y4524D01*
G01X8787Y4588D01*
G01X8869Y4660D01*
G01X8944Y4741D01*
G01X9010Y4829D01*
G01X9067Y4922D01*
G01X9115Y5021D01*
G01X9153Y5125D01*
G01X9180Y5231D01*
G01X9196Y5340D01*
G01X9202Y5449D01*
G01X9196Y5559D01*
G01X9180Y5668D01*
G01X9153Y5774D01*
G01X9115Y5877D01*
G01X9095Y5919D01*
G01X9095Y14387D01*
G01X10702Y15994D01*
G01X10723Y15973D01*
G01X10727Y15968D01*
G01X10731Y15964D01*
G01X10745Y15952D01*
G01X10757Y15940D01*
G01X10762Y15936D01*
G01X10766Y15932D01*
G01X10780Y15920D01*
G01X10794Y15908D01*
G01X10798Y15905D01*
G01X10803Y15901D01*
G01X10817Y15890D01*
G01X10831Y15879D01*
G01X10836Y15876D01*
G01X10841Y15872D01*
G01X10855Y15863D01*
G01X10870Y15852D01*
G01X10876Y15849D01*
G01X10880Y15845D01*
G01X10895Y15836D01*
G01X10911Y15826D01*
G01X10916Y15823D01*
G01X10921Y15820D01*
G01X10936Y15812D01*
G01X10952Y15803D01*
G01X10958Y15800D01*
G01X10963Y15798D01*
G01X10979Y15790D01*
G01X10995Y15782D01*
G01X11000Y15780D01*
G01X11006Y15777D01*
G01X11023Y15770D01*
G01X11039Y15763D01*
G01X11045Y15761D01*
G01X11050Y15758D01*
G01X11066Y15753D01*
G01X11083Y15746D01*
G01X11089Y15744D01*
G01X11095Y15742D01*
G01X11112Y15737D01*
G01X11129Y15731D01*
G01X11135Y15730D01*
G01X11140Y15728D01*
G01X11158Y15724D01*
G01X11175Y15719D01*
G01X11181Y15718D01*
G01X11187Y15716D01*
G01X11204Y15713D01*
G01X11222Y15709D01*
G01X11227Y15708D01*
G01X11233Y15707D01*
G01X11252Y15704D01*
G01X11269Y15701D01*
G01X11274Y15701D01*
G01X11281Y15700D01*
G01X11299Y15698D01*
G01X11316Y15696D01*
G01X11322Y15695D01*
G01X11328Y15695D01*
G01X11345Y15694D01*
G01X11364Y15693D01*
G01X11370Y15693D01*
G01X11376Y15693D01*
G01X11393Y15693D01*
G01X11411Y15692D01*
G01X11418Y15693D01*
G01X11423Y15693D01*
G01X11441Y15693D01*
G01X11459Y15694D01*
G01X11465Y15695D01*
G01X11471Y15695D01*
G01X11490Y15697D01*
G01X11507Y15698D01*
G01X11512Y15699D01*
G01X11519Y15700D01*
G01X11537Y15702D01*
G01X11554Y15705D01*
G01X11559Y15706D01*
G01X11566Y15707D01*
G01X11584Y15710D01*
G01X11601Y15714D01*
G01X11607Y15715D01*
G01X11612Y15716D01*
G01X11630Y15721D01*
G01X11647Y15725D01*
G01X11653Y15726D01*
G01X11659Y15728D01*
G01X11676Y15733D01*
G01X11693Y15738D01*
G01X11699Y15740D01*
G01X11704Y15742D01*
G01X11721Y15748D01*
G01X11738Y15754D01*
G01X11743Y15756D01*
G01X16398Y15756D01*
G01X16388Y15752D01*
G01X16378Y15748D01*
G01X16349Y15734D01*
G01X16339Y15729D01*
G01X16313Y15714D01*
G01X16303Y15709D01*
G01X16279Y15694D01*
G01X16269Y15688D01*
G01X16256Y15679D01*
G01X15900Y15679D01*
G01X15901Y15673D01*
G01X15903Y15662D01*
G01X15908Y15633D01*
G01X15910Y15622D01*
G01X15917Y15592D01*
G01X15920Y15581D01*
G01X15928Y15552D01*
G01X15931Y15541D01*
G01X15941Y15513D01*
G01X15945Y15502D01*
G01X15956Y15473D01*
G01X15959Y15467D01*
G01X15948Y15471D01*
G01X15934Y15477D01*
G01X15918Y15483D01*
G01X15903Y15488D01*
G01X15888Y15493D01*
G01X15872Y15497D01*
G01X15857Y15502D01*
G01X15841Y15505D01*
G01X15825Y15508D01*
G01X15809Y15511D01*
G01X15793Y15514D01*
G01X15777Y15515D01*
G01X15761Y15517D01*
G01X15745Y15518D01*
G01X15729Y15519D01*
G01X15712Y15519D01*
G01X14188Y15519D01*
G01X14172Y15519D01*
G01X14156Y15518D01*
G01X14140Y15517D01*
G01X14124Y15515D01*
G01X14108Y15514D01*
G01X14092Y15511D01*
G01X14076Y15508D01*
G01X14060Y15505D01*
G01X14044Y15502D01*
G01X14029Y15497D01*
G01X14013Y15493D01*
G01X13998Y15488D01*
G01X13983Y15483D01*
G01X13967Y15477D01*
G01X13952Y15471D01*
G01X13938Y15465D01*
G01X13923Y15458D01*
G01X13909Y15450D01*
G01X13894Y15443D01*
G01X13880Y15435D01*
G01X13866Y15426D01*
G01X13853Y15418D01*
G01X13840Y15409D01*
G01X13826Y15399D01*
G01X13814Y15389D01*
G01X13801Y15379D01*
G01X13789Y15369D01*
G01X13777Y15358D01*
G01X13765Y15347D01*
G01X13754Y15335D01*
G01X13742Y15324D01*
G01X13732Y15312D01*
G01X13721Y15299D01*
G01X13711Y15287D01*
G01X13701Y15274D01*
G01X13692Y15261D01*
G01X13683Y15247D01*
G01X13674Y15234D01*
G01X13665Y15220D01*
G01X13657Y15206D01*
G01X13650Y15192D01*
G01X13643Y15177D01*
G01X13636Y15163D01*
G01X13629Y15148D01*
G01X13623Y15133D01*
G01X13617Y15118D01*
G01X13612Y15103D01*
G01X13607Y15087D01*
G01X13603Y15072D01*
G01X13599Y15056D01*
G01X13595Y15040D01*
G01X13592Y15024D01*
G01X13589Y15008D01*
G01X13587Y14992D01*
G01X13585Y14976D01*
G01X13583Y14960D01*
G01X13582Y14944D01*
G01X13582Y14928D01*
G01X13581Y14912D01*
G01X13581Y13388D01*
G01X13582Y13372D01*
G01X13582Y13356D01*
G01X13583Y13339D01*
G01X13585Y13323D01*
G01X13587Y13307D01*
G01X13589Y13291D01*
G01X13592Y13275D01*
G01X13595Y13260D01*
G01X13599Y13244D01*
G01X13603Y13228D01*
G01X13607Y13213D01*
G01X13612Y13197D01*
G01X13617Y13182D01*
G01X13623Y13167D01*
G01X13629Y13152D01*
G01X13636Y13137D01*
G01X13643Y13122D01*
G01X13650Y13108D01*
G01X13657Y13094D01*
G01X13665Y13080D01*
G01X13674Y13066D01*
G01X13683Y13052D01*
G01X13692Y13039D01*
G01X13701Y13026D01*
G01X13711Y13013D01*
G01X13721Y13000D01*
G01X13732Y12988D01*
G01X13742Y12976D01*
G01X13754Y12964D01*
G01X13765Y12953D01*
G01X13777Y12942D01*
G01X13789Y12931D01*
G01X13801Y12921D01*
G01X13814Y12910D01*
G01X13826Y12901D01*
G01X13840Y12891D01*
G01X13853Y12882D01*
G01X13866Y12873D01*
G01X13880Y12865D01*
G01X13894Y12857D01*
G01X13909Y12849D01*
G01X13923Y12842D01*
G01X13938Y12835D01*
G01X13952Y12829D01*
G01X13967Y12823D01*
G01X13983Y12817D01*
G01X13998Y12812D01*
G01X14013Y12807D01*
G01X14029Y12802D01*
G01X14044Y12798D01*
G01X14060Y12795D01*
G01X14076Y12791D01*
G01X14092Y12789D01*
G01X14108Y12786D01*
G01X14124Y12784D01*
G01X14140Y12783D01*
G01X14156Y12782D01*
G01X14172Y12781D01*
G01X14188Y12781D01*
G01X14243Y12781D01*
G01X14151Y12721D01*
G01X14044Y12636D01*
G01X13946Y12541D01*
G01X13858Y12436D01*
G01X13782Y12323D01*
G01X13716Y12203D01*
G01X13663Y12078D01*
G01X13623Y11947D01*
G01X13596Y11813D01*
G01X13582Y11678D01*
G01X13582Y11541D01*
G01X13596Y11405D01*
G01X13623Y11272D01*
G01X13663Y11141D01*
G01X13716Y11015D01*
G01X13782Y10896D01*
G01X13858Y10783D01*
G01X13946Y10678D01*
G01X14044Y10583D01*
G01X14151Y10498D01*
G01X14265Y10424D01*
G01X14387Y10362D01*
G01X14514Y10312D01*
G01X14645Y10275D01*
G01X14779Y10251D01*
G01X14916Y10241D01*
G01X15052Y10244D01*
G01X15167Y10259D01*
G01X15167Y9237D01*
G01X14124Y9245D01*
G01X14122Y9250D01*
G01X14116Y9266D01*
G01X14110Y9280D01*
G01X14104Y9295D01*
G01X14097Y9310D01*
G01X14090Y9324D01*
G01X14082Y9339D01*
G01X14074Y9353D01*
G01X14065Y9366D01*
G01X14057Y9380D01*
G01X14048Y9393D01*
G01X14038Y9406D01*
G01X14028Y9419D01*
G01X14018Y9432D01*
G01X14008Y9444D01*
G01X13997Y9456D01*
G01X13986Y9468D01*
G01X13974Y9479D01*
G01X13963Y9490D01*
G01X13951Y9501D01*
G01X13938Y9512D01*
G01X13926Y9522D01*
G01X13913Y9532D01*
G01X13900Y9541D01*
G01X13886Y9550D01*
G01X13873Y9559D01*
G01X13859Y9567D01*
G01X13845Y9575D01*
G01X13831Y9583D01*
G01X13816Y9590D01*
G01X13802Y9597D01*
G01X13787Y9604D01*
G01X13772Y9610D01*
G01X13757Y9615D01*
G01X13742Y9621D01*
G01X13726Y9626D01*
G01X13711Y9630D01*
G01X13695Y9634D01*
G01X13679Y9638D01*
G01X13663Y9641D01*
G01X13647Y9644D01*
G01X13631Y9646D01*
G01X13615Y9648D01*
G01X13599Y9650D01*
G01X13583Y9651D01*
G01X13567Y9651D01*
G01X13551Y9651D01*
G01X12850Y9651D01*
G01X12834Y9651D01*
G01X12818Y9651D01*
G01X12801Y9650D01*
G01X12785Y9648D01*
G01X12769Y9646D01*
G01X12753Y9644D01*
G01X12737Y9641D01*
G01X12722Y9638D01*
G01X12706Y9634D01*
G01X12690Y9630D01*
G01X12675Y9626D01*
G01X12659Y9621D01*
G01X12644Y9615D01*
G01X12629Y9610D01*
G01X12614Y9604D01*
G01X12599Y9597D01*
G01X12584Y9590D01*
G01X12570Y9583D01*
G01X12556Y9575D01*
G01X12542Y9567D01*
G01X12528Y9559D01*
G01X12514Y9550D01*
G01X12501Y9541D01*
G01X12488Y9532D01*
G01X12475Y9522D01*
G01X12462Y9512D01*
G01X12450Y9501D01*
G01X12438Y9490D01*
G01X12426Y9479D01*
G01X12415Y9468D01*
G01X12404Y9456D01*
G01X12393Y9444D01*
G01X12383Y9432D01*
G01X12372Y9419D01*
G01X12363Y9406D01*
G01X12353Y9393D01*
G01X12344Y9380D01*
G01X12335Y9366D01*
G01X12327Y9353D01*
G01X12319Y9339D01*
G01X12311Y9324D01*
G01X12304Y9310D01*
G01X12297Y9295D01*
G01X12291Y9280D01*
G01X12285Y9266D01*
G01X12279Y9250D01*
G01X12274Y9235D01*
G01X12269Y9220D01*
G01X12264Y9204D01*
G01X12260Y9189D01*
G01X12257Y9173D01*
G01X12253Y9157D01*
G01X12251Y9141D01*
G01X12250Y9140D01*
G01X12250Y9141D01*
G01X12247Y9157D01*
G01X12244Y9173D01*
G01X12241Y9189D01*
G01X12237Y9204D01*
G01X12232Y9220D01*
G01X12227Y9235D01*
G01X12222Y9250D01*
G01X12216Y9266D01*
G01X12210Y9280D01*
G01X12204Y9295D01*
G01X12197Y9310D01*
G01X12190Y9324D01*
G01X12182Y9339D01*
G01X12174Y9353D01*
G01X12166Y9366D01*
G01X12157Y9380D01*
G01X12148Y9393D01*
G01X12138Y9406D01*
G01X12128Y9419D01*
G01X12118Y9432D01*
G01X12108Y9444D01*
G01X12097Y9456D01*
G01X12086Y9468D01*
G01X12074Y9479D01*
G01X12063Y9490D01*
G01X12051Y9501D01*
G01X12038Y9512D01*
G01X12026Y9522D01*
G01X12013Y9532D01*
G01X12000Y9541D01*
G01X11987Y9550D01*
G01X11973Y9559D01*
G01X11959Y9567D01*
G01X11945Y9575D01*
G01X11931Y9583D01*
G01X11916Y9590D01*
G01X11902Y9597D01*
G01X11887Y9604D01*
G01X11872Y9610D01*
G01X11857Y9615D01*
G01X11842Y9621D01*
G01X11826Y9626D01*
G01X11811Y9630D01*
G01X11795Y9634D01*
G01X11779Y9638D01*
G01X11763Y9641D01*
G01X11748Y9644D01*
G01X11732Y9646D01*
G01X11716Y9648D01*
G01X11699Y9650D01*
G01X11683Y9651D01*
G01X11667Y9651D01*
G01X11651Y9651D01*
G01X10950Y9651D01*
G01X10934Y9651D01*
G01X10918Y9651D01*
G01X10902Y9650D01*
G01X10885Y9648D01*
G01X10869Y9646D01*
G01X10853Y9644D01*
G01X10837Y9641D01*
G01X10822Y9638D01*
G01X10806Y9634D01*
G01X10790Y9630D01*
G01X10775Y9626D01*
G01X10759Y9621D01*
G01X10744Y9615D01*
G01X10729Y9610D01*
G01X10714Y9604D01*
G01X10699Y9597D01*
G01X10684Y9590D01*
G01X10670Y9583D01*
G01X10656Y9575D01*
G01X10642Y9567D01*
G01X10628Y9559D01*
G01X10614Y9550D01*
G01X10601Y9541D01*
G01X10588Y9532D01*
G01X10575Y9522D01*
G01X10563Y9512D01*
G01X10550Y9501D01*
G01X10538Y9490D01*
G01X10526Y9479D01*
G01X10515Y9468D01*
G01X10504Y9456D01*
G01X10493Y9444D01*
G01X10483Y9432D01*
G01X10473Y9419D01*
G01X10463Y9406D01*
G01X10453Y9393D01*
G01X10444Y9380D01*
G01X10435Y9366D01*
G01X10427Y9353D01*
G01X10419Y9339D01*
G01X10411Y9324D01*
G01X10404Y9310D01*
G01X10397Y9295D01*
G01X10391Y9280D01*
G01X10385Y9266D01*
G01X10379Y9252D01*
G01X10119Y9252D01*
G01X10100Y9251D01*
G01X10081Y9251D01*
G01X10062Y9250D01*
G01X10043Y9248D01*
G01X10023Y9246D01*
G01X10004Y9244D01*
G01X9985Y9241D01*
G01X9966Y9237D01*
G01X9948Y9234D01*
G01X9929Y9230D01*
G01X9910Y9225D01*
G01X9892Y9220D01*
G01X9873Y9214D01*
G01X9855Y9208D01*
G01X9837Y9202D01*
G01X9819Y9195D01*
G01X9801Y9188D01*
G01X9783Y9181D01*
G01X9766Y9173D01*
G01X9749Y9164D01*
G01X9731Y9156D01*
G01X9715Y9146D01*
G01X9698Y9137D01*
G01X9681Y9127D01*
G01X9665Y9117D01*
G01X9649Y9106D01*
G01X9633Y9095D01*
G01X9618Y9084D01*
G01X9603Y9072D01*
G01X9588Y9060D01*
G01X9573Y9047D01*
G01X9559Y9034D01*
G01X9545Y9021D01*
G01X9531Y9008D01*
G01X9460Y8937D01*
G01X9446Y8923D01*
G01X9433Y8909D01*
G01X9421Y8895D01*
G01X9408Y8880D01*
G01X9396Y8865D01*
G01X9384Y8850D01*
G01X9373Y8834D01*
G01X9362Y8819D01*
G01X9351Y8803D01*
G01X9341Y8787D01*
G01X9331Y8770D01*
G01X9321Y8753D01*
G01X9312Y8736D01*
G01X9303Y8719D01*
G01X9295Y8702D01*
G01X9287Y8685D01*
G01X9280Y8667D01*
G01X9272Y8649D01*
G01X9266Y8631D01*
G01X9259Y8613D01*
G01X9253Y8595D01*
G01X9248Y8576D01*
G01X9243Y8558D01*
G01X9238Y8539D01*
G01X9234Y8520D01*
G01X9230Y8501D01*
G01X9227Y8482D01*
G01X9224Y8463D01*
G01X9222Y8444D01*
G01X9220Y8425D01*
G01X9218Y8406D01*
G01X9217Y8387D01*
G01X9216Y8368D01*
G01X9216Y8349D01*
G01X9216Y3449D01*
G01X9216Y3428D01*
G01X9217Y3407D01*
G01X9219Y3387D01*
G01X9220Y3366D01*
G01X9223Y3345D01*
G01X9226Y3325D01*
G01X9229Y3304D01*
G01X9233Y3284D01*
G01X9237Y3264D01*
G01X9242Y3244D01*
G01X9247Y3223D01*
G01X9253Y3204D01*
G01X9260Y3184D01*
G01X9266Y3164D01*
G01X9274Y3145D01*
G01X9282Y3126D01*
G01X9290Y3107D01*
G01X9299Y3088D01*
G01X9308Y3069D01*
G01X9318Y3051D01*
G01X9328Y3033D01*
G01X9338Y3015D01*
G01X9349Y2997D01*
G01X9361Y2980D01*
G01X9373Y2963D01*
G01X9385Y2946D01*
G01X9398Y2930D01*
G01X9411Y2914D01*
G01X9424Y2898D01*
G01X9438Y2883D01*
G01X9453Y2868D01*
G01X9467Y2853D01*
G01X9482Y2839D01*
G01X9498Y2825D01*
G01X9513Y2811D01*
G01X9530Y2798D01*
G01X9546Y2786D01*
G01X9563Y2773D01*
G01X9580Y2761D01*
G01X9597Y2750D01*
G01X9614Y2739D01*
G01X9632Y2728D01*
G01X9650Y2718D01*
G01X9669Y2708D01*
G01X9687Y2699D01*
G01X9706Y2690D01*
G01X9725Y2682D01*
G01X9744Y2674D01*
G01X9764Y2667D01*
G01X9783Y2660D01*
G01X9803Y2654D01*
G01X9823Y2648D01*
G01X9843Y2643D01*
G01X9863Y2638D01*
G01X9883Y2633D01*
G01X9904Y2629D01*
G01X9924Y2626D01*
G01X9945Y2623D01*
G01X9965Y2621D01*
G01X9986Y2619D01*
G01X10007Y2618D01*
G01X10027Y2617D01*
G01X10048Y2617D01*
G37*
G36*
G01X5798Y10195D02*
G01X6248Y10195D01*
G01X6265Y10195D01*
G01X6281Y10196D01*
G01X6297Y10197D01*
G01X6313Y10199D01*
G01X6329Y10200D01*
G01X6345Y10203D01*
G01X6361Y10206D01*
G01X6377Y10209D01*
G01X6392Y10212D01*
G01X6408Y10217D01*
G01X6424Y10221D01*
G01X6439Y10226D01*
G01X6454Y10231D01*
G01X6469Y10237D01*
G01X6484Y10243D01*
G01X6499Y10249D01*
G01X6514Y10256D01*
G01X6528Y10264D01*
G01X6543Y10271D01*
G01X6557Y10279D01*
G01X6570Y10288D01*
G01X6584Y10296D01*
G01X6597Y10305D01*
G01X6610Y10315D01*
G01X6623Y10325D01*
G01X6636Y10335D01*
G01X6648Y10345D01*
G01X6660Y10356D01*
G01X6672Y10367D01*
G01X6683Y10379D01*
G01X6694Y10390D01*
G01X6705Y10402D01*
G01X6716Y10415D01*
G01X6726Y10427D01*
G01X6736Y10440D01*
G01X6745Y10453D01*
G01X6754Y10467D01*
G01X6763Y10480D01*
G01X6771Y10494D01*
G01X6779Y10508D01*
G01X6787Y10522D01*
G01X6794Y10537D01*
G01X6801Y10551D01*
G01X6808Y10566D01*
G01X6814Y10581D01*
G01X6819Y10596D01*
G01X6825Y10611D01*
G01X6830Y10627D01*
G01X6834Y10642D01*
G01X6838Y10658D01*
G01X6842Y10674D01*
G01X6845Y10690D01*
G01X6848Y10706D01*
G01X6850Y10722D01*
G01X6852Y10738D01*
G01X6853Y10754D01*
G01X6855Y10770D01*
G01X6855Y10786D01*
G01X6855Y10802D01*
G01X6855Y11202D01*
G01X5798Y11202D01*
G01X5798Y10195D01*
G37*
G36*
G01X4448Y10195D02*
G01X4898Y10195D01*
G01X4898Y11202D01*
G01X3841Y11202D01*
G01X3841Y10802D01*
G01X3841Y10786D01*
G01X3841Y10770D01*
G01X3842Y10754D01*
G01X3844Y10738D01*
G01X3846Y10722D01*
G01X3848Y10706D01*
G01X3851Y10690D01*
G01X3854Y10674D01*
G01X3858Y10658D01*
G01X3862Y10642D01*
G01X3866Y10627D01*
G01X3871Y10611D01*
G01X3877Y10596D01*
G01X3882Y10581D01*
G01X3888Y10566D01*
G01X3895Y10551D01*
G01X3902Y10537D01*
G01X3909Y10522D01*
G01X3917Y10508D01*
G01X3925Y10494D01*
G01X3933Y10480D01*
G01X3942Y10467D01*
G01X3951Y10453D01*
G01X3960Y10440D01*
G01X3970Y10427D01*
G01X3980Y10415D01*
G01X3991Y10402D01*
G01X4002Y10390D01*
G01X4013Y10379D01*
G01X4024Y10367D01*
G01X4036Y10356D01*
G01X4048Y10345D01*
G01X4060Y10335D01*
G01X4073Y10325D01*
G01X4086Y10315D01*
G01X4099Y10305D01*
G01X4112Y10296D01*
G01X4126Y10288D01*
G01X4139Y10279D01*
G01X4153Y10271D01*
G01X4168Y10264D01*
G01X4182Y10256D01*
G01X4197Y10249D01*
G01X4212Y10243D01*
G01X4226Y10237D01*
G01X4242Y10231D01*
G01X4257Y10226D01*
G01X4272Y10221D01*
G01X4288Y10217D01*
G01X4303Y10212D01*
G01X4319Y10209D01*
G01X4335Y10206D01*
G01X4351Y10203D01*
G01X4367Y10200D01*
G01X4383Y10199D01*
G01X4399Y10197D01*
G01X4415Y10196D01*
G01X4431Y10195D01*
G01X4448Y10195D01*
G37*
G36*
G01X35399Y19847D02*
G01X35849Y19847D01*
G01X35849Y20854D01*
G01X34792Y20854D01*
G01X34792Y20454D01*
G01X34792Y20438D01*
G01X34793Y20422D01*
G01X34794Y20406D01*
G01X34795Y20390D01*
G01X34797Y20373D01*
G01X34800Y20357D01*
G01X34802Y20342D01*
G01X34806Y20326D01*
G01X34809Y20310D01*
G01X34813Y20294D01*
G01X34818Y20279D01*
G01X34823Y20263D01*
G01X34828Y20248D01*
G01X34834Y20233D01*
G01X34840Y20218D01*
G01X34846Y20203D01*
G01X34853Y20189D01*
G01X34860Y20174D01*
G01X34868Y20160D01*
G01X34876Y20146D01*
G01X34884Y20132D01*
G01X34893Y20118D01*
G01X34902Y20105D01*
G01X34912Y20092D01*
G01X34922Y20079D01*
G01X34932Y20067D01*
G01X34942Y20054D01*
G01X34953Y20042D01*
G01X34964Y20031D01*
G01X34976Y20019D01*
G01X34987Y20008D01*
G01X34999Y19997D01*
G01X35012Y19987D01*
G01X35024Y19977D01*
G01X35037Y19967D01*
G01X35050Y19957D01*
G01X35063Y19948D01*
G01X35077Y19939D01*
G01X35091Y19931D01*
G01X35105Y19923D01*
G01X35119Y19915D01*
G01X35134Y19908D01*
G01X35148Y19901D01*
G01X35163Y19895D01*
G01X35178Y19889D01*
G01X35193Y19883D01*
G01X35208Y19878D01*
G01X35224Y19873D01*
G01X35239Y19868D01*
G01X35255Y19864D01*
G01X35271Y19861D01*
G01X35287Y19858D01*
G01X35302Y19855D01*
G01X35318Y19852D01*
G01X35334Y19850D01*
G01X35351Y19849D01*
G01X35367Y19848D01*
G01X35383Y19847D01*
G01X35399Y19847D01*
G37*
G36*
G01X32019Y16530D02*
G01X32019Y17619D01*
G01X30931Y17619D01*
G01X30938Y17595D01*
G01X31007Y17432D01*
G01X31091Y17278D01*
G01X31190Y17132D01*
G01X31304Y16997D01*
G01X31430Y16874D01*
G01X31567Y16764D01*
G01X31715Y16668D01*
G01X31872Y16588D01*
G01X32019Y16530D01*
G37*
G36*
G01X33180Y16532D02*
G01X33245Y16554D01*
G01X33406Y16626D01*
G01X33558Y16714D01*
G01X33702Y16817D01*
G01X33834Y16934D01*
G01X33954Y17063D01*
G01X34060Y17204D01*
G01X34152Y17354D01*
G01X34228Y17513D01*
G01X34267Y17619D01*
G01X33180Y17619D01*
G01X33180Y16532D01*
G37*
G36*
G01X34366Y3862D02*
G01X34458Y3893D01*
G01X34601Y3957D01*
G01X34737Y4036D01*
G01X34864Y4127D01*
G01X34981Y4231D01*
G01X35088Y4346D01*
G01X35183Y4471D01*
G01X35264Y4604D01*
G01X35332Y4746D01*
G01X35379Y4874D01*
G01X34366Y4874D01*
G01X34366Y3862D01*
G37*
G36*
G01X30931Y18780D02*
G01X32019Y18780D01*
G01X32019Y19868D01*
G01X31872Y19811D01*
G01X31715Y19730D01*
G01X31567Y19635D01*
G01X31430Y19525D01*
G01X31304Y19402D01*
G01X31190Y19267D01*
G01X31091Y19121D01*
G01X31007Y18966D01*
G01X30938Y18804D01*
G01X30931Y18780D01*
G37*
G36*
G01X36750Y19847D02*
G01X37200Y19847D01*
G01X37216Y19847D01*
G01X37232Y19848D01*
G01X37248Y19849D01*
G01X37264Y19850D01*
G01X37280Y19852D01*
G01X37296Y19855D01*
G01X37312Y19858D01*
G01X37328Y19861D01*
G01X37344Y19864D01*
G01X37360Y19868D01*
G01X37375Y19873D01*
G01X37390Y19878D01*
G01X37406Y19883D01*
G01X37421Y19889D01*
G01X37436Y19895D01*
G01X37451Y19901D01*
G01X37465Y19908D01*
G01X37480Y19915D01*
G01X37494Y19923D01*
G01X37508Y19931D01*
G01X37522Y19939D01*
G01X37535Y19948D01*
G01X37549Y19957D01*
G01X37562Y19967D01*
G01X37575Y19977D01*
G01X37587Y19987D01*
G01X37600Y19997D01*
G01X37612Y20008D01*
G01X37623Y20019D01*
G01X37635Y20031D01*
G01X37646Y20042D01*
G01X37657Y20054D01*
G01X37667Y20067D01*
G01X37677Y20079D01*
G01X37687Y20092D01*
G01X37697Y20105D01*
G01X37706Y20118D01*
G01X37714Y20132D01*
G01X37723Y20146D01*
G01X37731Y20160D01*
G01X37738Y20174D01*
G01X37746Y20189D01*
G01X37753Y20203D01*
G01X37759Y20218D01*
G01X37765Y20233D01*
G01X37771Y20248D01*
G01X37776Y20263D01*
G01X37781Y20279D01*
G01X37785Y20294D01*
G01X37789Y20310D01*
G01X37793Y20326D01*
G01X37796Y20342D01*
G01X37799Y20357D01*
G01X37801Y20373D01*
G01X37803Y20390D01*
G01X37805Y20406D01*
G01X37806Y20422D01*
G01X37807Y20438D01*
G01X37807Y20454D01*
G01X37807Y20854D01*
G01X36750Y20854D01*
G01X36750Y19847D01*
G37*
G36*
G01X33180Y18780D02*
G01X34267Y18780D01*
G01X34228Y18886D01*
G01X34152Y19045D01*
G01X34060Y19195D01*
G01X33954Y19336D01*
G01X33834Y19465D01*
G01X33702Y19582D01*
G01X33558Y19684D01*
G01X33406Y19772D01*
G01X33245Y19845D01*
G01X33180Y19867D01*
G01X33180Y18780D01*
G37*

%LPD*%
G36*
G01X16357Y11731D02*
G01X16944Y12317D01*
G01X17083Y12317D01*
G01X17102Y12318D01*
G01X17121Y12318D01*
G01X17140Y12319D01*
G01X17160Y12321D01*
G01X17179Y12323D01*
G01X17198Y12325D01*
G01X17217Y12328D01*
G01X17236Y12332D01*
G01X17255Y12335D01*
G01X17273Y12340D01*
G01X17292Y12344D01*
G01X17311Y12349D01*
G01X17329Y12355D01*
G01X17347Y12361D01*
G01X17365Y12367D01*
G01X17383Y12374D01*
G01X17401Y12381D01*
G01X17419Y12388D01*
G01X17436Y12396D01*
G01X17454Y12405D01*
G01X17471Y12413D01*
G01X17488Y12423D01*
G01X17504Y12432D01*
G01X17521Y12442D01*
G01X17537Y12452D01*
G01X17553Y12463D01*
G01X17569Y12474D01*
G01X17584Y12486D01*
G01X17599Y12497D01*
G01X17614Y12509D01*
G01X17629Y12522D01*
G01X17643Y12535D01*
G01X17657Y12548D01*
G01X17669Y12559D01*
G01X17925Y12559D01*
G01X17940Y12559D01*
G01X17951Y12560D01*
G01X17981Y12561D01*
G01X17992Y12562D01*
G01X18023Y12565D01*
G01X18034Y12566D01*
G01X18064Y12571D01*
G01X18075Y12573D01*
G01X18104Y12579D01*
G01X18115Y12581D01*
G01X18145Y12589D01*
G01X18156Y12592D01*
G01X18183Y12600D01*
G01X18194Y12604D01*
G01X18224Y12615D01*
G01X18235Y12619D01*
G01X18261Y12630D01*
G01X18271Y12635D01*
G01X18300Y12649D01*
G01X18310Y12654D01*
G01X18336Y12668D01*
G01X18346Y12674D01*
G01X18371Y12689D01*
G01X18380Y12695D01*
G01X18406Y12712D01*
G01X18415Y12719D01*
G01X18440Y12738D01*
G01X18448Y12745D01*
G01X18470Y12763D01*
G01X18479Y12770D01*
G01X18501Y12792D01*
G01X18509Y12799D01*
G01X18531Y12822D01*
G01X18539Y12830D01*
G01X18559Y12852D01*
G01X18566Y12861D01*
G01X18584Y12884D01*
G01X18591Y12893D01*
G01X18609Y12918D01*
G01X18615Y12927D01*
G01X18632Y12953D01*
G01X18638Y12963D01*
G01X18652Y12988D01*
G01X18658Y12998D01*
G01X18672Y13025D01*
G01X18676Y13035D01*
G01X18689Y13062D01*
G01X18693Y13073D01*
G01X18705Y13102D01*
G01X18708Y13112D01*
G01X18718Y13141D01*
G01X18721Y13152D01*
G01X18729Y13180D01*
G01X18732Y13191D01*
G01X18739Y13222D01*
G01X18741Y13233D01*
G01X18746Y13261D01*
G01X18748Y13272D01*
G01X18752Y13303D01*
G01X18753Y13314D01*
G01X18755Y13344D01*
G01X18756Y13355D01*
G01X18757Y13386D01*
G01X18757Y13397D01*
G01X18756Y13427D01*
G01X18755Y13438D01*
G01X18753Y13468D01*
G01X18752Y13480D01*
G01X18748Y13510D01*
G01X18746Y13521D01*
G01X18741Y13550D01*
G01X18739Y13561D01*
G01X18732Y13591D01*
G01X18729Y13602D01*
G01X18721Y13631D01*
G01X18718Y13642D01*
G01X18708Y13670D01*
G01X18705Y13680D01*
G01X18693Y13710D01*
G01X18689Y13720D01*
G01X18676Y13747D01*
G01X18672Y13758D01*
G01X18658Y13784D01*
G01X18654Y13791D01*
G01X18658Y13798D01*
G01X18672Y13825D01*
G01X18676Y13835D01*
G01X18689Y13862D01*
G01X18693Y13873D01*
G01X18705Y13902D01*
G01X18708Y13913D01*
G01X18718Y13941D01*
G01X18721Y13952D01*
G01X18729Y13981D01*
G01X18732Y13991D01*
G01X18739Y14022D01*
G01X18741Y14033D01*
G01X18746Y14061D01*
G01X18748Y14072D01*
G01X18752Y14103D01*
G01X18753Y14114D01*
G01X18755Y14144D01*
G01X18756Y14155D01*
G01X18757Y14186D01*
G01X18757Y14197D01*
G01X18756Y14227D01*
G01X18755Y14238D01*
G01X18753Y14268D01*
G01X18752Y14280D01*
G01X18748Y14310D01*
G01X18746Y14321D01*
G01X18741Y14350D01*
G01X18739Y14361D01*
G01X18732Y14391D01*
G01X18729Y14402D01*
G01X18721Y14431D01*
G01X18718Y14442D01*
G01X18708Y14470D01*
G01X18705Y14481D01*
G01X18693Y14510D01*
G01X18689Y14520D01*
G01X18676Y14548D01*
G01X18672Y14558D01*
G01X18658Y14584D01*
G01X18654Y14591D01*
G01X18658Y14598D01*
G01X18672Y14625D01*
G01X18676Y14635D01*
G01X18689Y14663D01*
G01X18693Y14673D01*
G01X18705Y14702D01*
G01X18708Y14713D01*
G01X18718Y14741D01*
G01X18721Y14752D01*
G01X18729Y14781D01*
G01X18732Y14791D01*
G01X18739Y14822D01*
G01X18741Y14833D01*
G01X18746Y14861D01*
G01X18748Y14873D01*
G01X18752Y14903D01*
G01X18753Y14914D01*
G01X18755Y14944D01*
G01X18756Y14956D01*
G01X18757Y14986D01*
G01X18757Y14997D01*
G01X18756Y15027D01*
G01X18755Y15038D01*
G01X18753Y15069D01*
G01X18752Y15080D01*
G01X18748Y15110D01*
G01X18746Y15121D01*
G01X18741Y15150D01*
G01X18739Y15161D01*
G01X18732Y15191D01*
G01X18729Y15202D01*
G01X18721Y15231D01*
G01X18718Y15242D01*
G01X18708Y15270D01*
G01X18705Y15281D01*
G01X18693Y15310D01*
G01X18689Y15320D01*
G01X18676Y15348D01*
G01X18672Y15358D01*
G01X18658Y15384D01*
G01X18654Y15391D01*
G01X18658Y15398D01*
G01X18672Y15425D01*
G01X18676Y15435D01*
G01X18689Y15463D01*
G01X18693Y15473D01*
G01X18705Y15502D01*
G01X18708Y15513D01*
G01X18718Y15541D01*
G01X18721Y15552D01*
G01X18729Y15581D01*
G01X18732Y15592D01*
G01X18739Y15622D01*
G01X18741Y15633D01*
G01X18746Y15662D01*
G01X18748Y15673D01*
G01X18749Y15679D01*
G01X18393Y15679D01*
G01X18380Y15688D01*
G01X18371Y15694D01*
G01X18346Y15709D01*
G01X18336Y15714D01*
G01X18310Y15729D01*
G01X18300Y15734D01*
G01X18271Y15748D01*
G01X18261Y15752D01*
G01X18250Y15757D01*
G01X20940Y15757D01*
G01X20997Y15711D01*
G01X21083Y15656D01*
G01X21175Y15609D01*
G01X21271Y15571D01*
G01X21370Y15543D01*
G01X21471Y15525D01*
G01X21574Y15518D01*
G01X21677Y15520D01*
G01X21779Y15533D01*
G01X21879Y15556D01*
G01X21976Y15589D01*
G01X22070Y15631D01*
G01X22159Y15683D01*
G01X22243Y15743D01*
G01X22320Y15811D01*
G01X22390Y15886D01*
G01X22452Y15968D01*
G01X22506Y16056D01*
G01X22550Y16149D01*
G01X22586Y16245D01*
G01X22611Y16345D01*
G01X22626Y16447D01*
G01X22631Y16549D01*
G01X22626Y16652D01*
G01X22611Y16754D01*
G01X22586Y16854D01*
G01X22550Y16950D01*
G01X22506Y17043D01*
G01X22452Y17131D01*
G01X22390Y17213D01*
G01X22320Y17288D01*
G01X22243Y17356D01*
G01X22159Y17416D01*
G01X22070Y17468D01*
G01X21976Y17510D01*
G01X21879Y17543D01*
G01X21779Y17566D01*
G01X21677Y17579D01*
G01X21574Y17581D01*
G01X21471Y17573D01*
G01X21370Y17556D01*
G01X21271Y17528D01*
G01X21175Y17490D01*
G01X21083Y17443D01*
G01X21049Y17421D01*
G01X18756Y17421D01*
G01X18756Y17425D01*
G01X18755Y17436D01*
G01X18753Y17466D01*
G01X18752Y17478D01*
G01X18748Y17508D01*
G01X18746Y17519D01*
G01X18741Y17548D01*
G01X18739Y17559D01*
G01X18732Y17589D01*
G01X18729Y17600D01*
G01X18721Y17629D01*
G01X18718Y17639D01*
G01X18708Y17668D01*
G01X18705Y17678D01*
G01X18693Y17708D01*
G01X18689Y17718D01*
G01X18676Y17745D01*
G01X18672Y17756D01*
G01X18658Y17782D01*
G01X18654Y17789D01*
G01X18658Y17796D01*
G01X18672Y17823D01*
G01X18676Y17833D01*
G01X18689Y17860D01*
G01X18693Y17871D01*
G01X18705Y17900D01*
G01X18708Y17910D01*
G01X18718Y17939D01*
G01X18721Y17950D01*
G01X18729Y17978D01*
G01X18732Y17989D01*
G01X18739Y18020D01*
G01X18741Y18031D01*
G01X18746Y18059D01*
G01X18748Y18070D01*
G01X18752Y18101D01*
G01X18753Y18112D01*
G01X18755Y18142D01*
G01X18756Y18153D01*
G01X18757Y18184D01*
G01X18757Y18195D01*
G01X18756Y18225D01*
G01X18755Y18236D01*
G01X18753Y18266D01*
G01X18752Y18278D01*
G01X18748Y18308D01*
G01X18746Y18319D01*
G01X18741Y18348D01*
G01X18739Y18359D01*
G01X18732Y18389D01*
G01X18729Y18400D01*
G01X18721Y18429D01*
G01X18718Y18440D01*
G01X18708Y18468D01*
G01X18705Y18479D01*
G01X18693Y18508D01*
G01X18689Y18518D01*
G01X18676Y18546D01*
G01X18672Y18556D01*
G01X18658Y18582D01*
G01X18654Y18589D01*
G01X18658Y18596D01*
G01X18672Y18623D01*
G01X18676Y18633D01*
G01X18689Y18660D01*
G01X18693Y18671D01*
G01X18705Y18700D01*
G01X18708Y18711D01*
G01X18718Y18739D01*
G01X18721Y18750D01*
G01X18729Y18779D01*
G01X18732Y18789D01*
G01X18739Y18820D01*
G01X18741Y18831D01*
G01X18746Y18859D01*
G01X18748Y18870D01*
G01X18752Y18901D01*
G01X18753Y18912D01*
G01X18755Y18942D01*
G01X18756Y18953D01*
G01X18757Y18984D01*
G01X18757Y18995D01*
G01X18756Y19025D01*
G01X18755Y19036D01*
G01X18753Y19067D01*
G01X18752Y19078D01*
G01X18748Y19108D01*
G01X18746Y19119D01*
G01X18743Y19137D01*
G01X18769Y19132D01*
G01X18781Y19131D01*
G01X18811Y19127D01*
G01X18822Y19126D01*
G01X18852Y19123D01*
G01X18864Y19123D01*
G01X18894Y19122D01*
G01X18905Y19122D01*
G01X18935Y19123D01*
G01X18946Y19123D01*
G01X18977Y19126D01*
G01X18988Y19127D01*
G01X19018Y19131D01*
G01X19029Y19132D01*
G01X19058Y19137D01*
G01X19069Y19139D01*
G01X19099Y19146D01*
G01X19110Y19149D01*
G01X19139Y19157D01*
G01X19150Y19161D01*
G01X19178Y19170D01*
G01X19189Y19174D01*
G01X19218Y19185D01*
G01X19228Y19190D01*
G01X19256Y19202D01*
G01X19266Y19207D01*
G01X19292Y19220D01*
G01X19299Y19225D01*
G01X19306Y19221D01*
G01X19333Y19207D01*
G01X19343Y19202D01*
G01X19371Y19190D01*
G01X19381Y19185D01*
G01X19410Y19174D01*
G01X19421Y19170D01*
G01X19449Y19161D01*
G01X19460Y19157D01*
G01X19489Y19149D01*
G01X19500Y19146D01*
G01X19530Y19139D01*
G01X19541Y19137D01*
G01X19570Y19132D01*
G01X19581Y19131D01*
G01X19611Y19127D01*
G01X19622Y19126D01*
G01X19652Y19123D01*
G01X19664Y19123D01*
G01X19694Y19122D01*
G01X19705Y19122D01*
G01X19735Y19123D01*
G01X19747Y19123D01*
G01X19777Y19126D01*
G01X19788Y19127D01*
G01X19818Y19131D01*
G01X19829Y19132D01*
G01X19858Y19137D01*
G01X19869Y19139D01*
G01X19899Y19146D01*
G01X19910Y19149D01*
G01X19939Y19157D01*
G01X19950Y19161D01*
G01X19978Y19170D01*
G01X19989Y19174D01*
G01X20018Y19185D01*
G01X20028Y19190D01*
G01X20056Y19202D01*
G01X20066Y19207D01*
G01X20092Y19220D01*
G01X20100Y19225D01*
G01X20106Y19221D01*
G01X20133Y19207D01*
G01X20143Y19202D01*
G01X20171Y19190D01*
G01X20181Y19185D01*
G01X20210Y19174D01*
G01X20221Y19170D01*
G01X20249Y19161D01*
G01X20260Y19157D01*
G01X20289Y19149D01*
G01X20300Y19146D01*
G01X20330Y19139D01*
G01X20341Y19137D01*
G01X20370Y19132D01*
G01X20381Y19131D01*
G01X20411Y19127D01*
G01X20422Y19126D01*
G01X20453Y19123D01*
G01X20464Y19123D01*
G01X20494Y19122D01*
G01X20505Y19122D01*
G01X20535Y19123D01*
G01X20547Y19123D01*
G01X20577Y19126D01*
G01X20588Y19127D01*
G01X20618Y19131D01*
G01X20630Y19132D01*
G01X20658Y19137D01*
G01X20669Y19139D01*
G01X20699Y19146D01*
G01X20710Y19149D01*
G01X20739Y19157D01*
G01X20750Y19161D01*
G01X20778Y19170D01*
G01X20789Y19174D01*
G01X20818Y19185D01*
G01X20828Y19190D01*
G01X20856Y19202D01*
G01X20866Y19207D01*
G01X20892Y19220D01*
G01X20900Y19225D01*
G01X20906Y19221D01*
G01X20933Y19207D01*
G01X20943Y19202D01*
G01X20971Y19190D01*
G01X20981Y19185D01*
G01X21010Y19174D01*
G01X21021Y19170D01*
G01X21049Y19161D01*
G01X21060Y19157D01*
G01X21089Y19149D01*
G01X21100Y19146D01*
G01X21130Y19139D01*
G01X21141Y19137D01*
G01X21170Y19132D01*
G01X21181Y19131D01*
G01X21211Y19127D01*
G01X21222Y19126D01*
G01X21253Y19123D01*
G01X21264Y19123D01*
G01X21294Y19122D01*
G01X21305Y19122D01*
G01X21336Y19123D01*
G01X21347Y19123D01*
G01X21377Y19126D01*
G01X21388Y19127D01*
G01X21419Y19131D01*
G01X21430Y19132D01*
G01X21458Y19137D01*
G01X21469Y19139D01*
G01X21500Y19146D01*
G01X21510Y19149D01*
G01X21539Y19157D01*
G01X21550Y19161D01*
G01X21578Y19170D01*
G01X21589Y19174D01*
G01X21618Y19185D01*
G01X21629Y19190D01*
G01X21656Y19202D01*
G01X21666Y19207D01*
G01X21692Y19220D01*
G01X21698Y19224D01*
G01X21704Y19221D01*
G01X21731Y19207D01*
G01X21741Y19202D01*
G01X21768Y19190D01*
G01X21779Y19185D01*
G01X21808Y19174D01*
G01X21818Y19170D01*
G01X21847Y19161D01*
G01X21858Y19157D01*
G01X21887Y19149D01*
G01X21897Y19146D01*
G01X21928Y19139D01*
G01X21939Y19137D01*
G01X21967Y19132D01*
G01X21978Y19131D01*
G01X22009Y19127D01*
G01X22020Y19126D01*
G01X22050Y19123D01*
G01X22061Y19123D01*
G01X22092Y19122D01*
G01X22103Y19122D01*
G01X22133Y19123D01*
G01X22144Y19123D01*
G01X22174Y19126D01*
G01X22186Y19127D01*
G01X22216Y19131D01*
G01X22227Y19132D01*
G01X22256Y19137D01*
G01X22267Y19139D01*
G01X22297Y19146D01*
G01X22308Y19149D01*
G01X22337Y19157D01*
G01X22348Y19161D01*
G01X22376Y19170D01*
G01X22387Y19174D01*
G01X22416Y19185D01*
G01X22426Y19190D01*
G01X22454Y19202D01*
G01X22464Y19207D01*
G01X22490Y19220D01*
G01X22497Y19225D01*
G01X22504Y19221D01*
G01X22531Y19207D01*
G01X22541Y19202D01*
G01X22568Y19190D01*
G01X22579Y19185D01*
G01X22608Y19174D01*
G01X22619Y19170D01*
G01X22647Y19161D01*
G01X22658Y19157D01*
G01X22687Y19149D01*
G01X22697Y19146D01*
G01X22728Y19139D01*
G01X22739Y19137D01*
G01X22767Y19132D01*
G01X22778Y19131D01*
G01X22809Y19127D01*
G01X22820Y19126D01*
G01X22850Y19123D01*
G01X22861Y19123D01*
G01X22892Y19122D01*
G01X22903Y19122D01*
G01X22933Y19123D01*
G01X22944Y19123D01*
G01X22975Y19126D01*
G01X22986Y19127D01*
G01X23016Y19131D01*
G01X23027Y19132D01*
G01X23056Y19137D01*
G01X23067Y19139D01*
G01X23097Y19146D01*
G01X23108Y19149D01*
G01X23137Y19157D01*
G01X23148Y19161D01*
G01X23176Y19170D01*
G01X23187Y19174D01*
G01X23216Y19185D01*
G01X23226Y19190D01*
G01X23254Y19202D01*
G01X23264Y19207D01*
G01X23290Y19220D01*
G01X23297Y19225D01*
G01X23304Y19221D01*
G01X23331Y19207D01*
G01X23341Y19202D01*
G01X23369Y19190D01*
G01X23379Y19185D01*
G01X23408Y19174D01*
G01X23419Y19170D01*
G01X23447Y19161D01*
G01X23458Y19157D01*
G01X23487Y19149D01*
G01X23498Y19146D01*
G01X23528Y19139D01*
G01X23539Y19137D01*
G01X23568Y19132D01*
G01X23579Y19131D01*
G01X23609Y19127D01*
G01X23620Y19126D01*
G01X23650Y19123D01*
G01X23662Y19123D01*
G01X23692Y19122D01*
G01X23703Y19122D01*
G01X23733Y19123D01*
G01X23745Y19123D01*
G01X23775Y19126D01*
G01X23786Y19127D01*
G01X23816Y19131D01*
G01X23827Y19132D01*
G01X23856Y19137D01*
G01X23867Y19139D01*
G01X23897Y19146D01*
G01X23908Y19149D01*
G01X23937Y19157D01*
G01X23948Y19161D01*
G01X23976Y19170D01*
G01X23987Y19174D01*
G01X24016Y19185D01*
G01X24026Y19190D01*
G01X24054Y19202D01*
G01X24064Y19207D01*
G01X24090Y19220D01*
G01X24097Y19225D01*
G01X24104Y19221D01*
G01X24131Y19207D01*
G01X24141Y19202D01*
G01X24169Y19190D01*
G01X24179Y19185D01*
G01X24208Y19174D01*
G01X24219Y19170D01*
G01X24247Y19161D01*
G01X24258Y19157D01*
G01X24287Y19149D01*
G01X24298Y19146D01*
G01X24328Y19139D01*
G01X24339Y19137D01*
G01X24368Y19132D01*
G01X24379Y19131D01*
G01X24409Y19127D01*
G01X24420Y19126D01*
G01X24450Y19123D01*
G01X24462Y19123D01*
G01X24492Y19122D01*
G01X24503Y19122D01*
G01X24533Y19123D01*
G01X24545Y19123D01*
G01X24575Y19126D01*
G01X24586Y19127D01*
G01X24616Y19131D01*
G01X24627Y19132D01*
G01X24645Y19135D01*
G01X24640Y19109D01*
G01X24639Y19098D01*
G01X24635Y19068D01*
G01X24634Y19056D01*
G01X24632Y19026D01*
G01X24631Y19015D01*
G01X24630Y18985D01*
G01X24630Y18974D01*
G01X24631Y18943D01*
G01X24632Y18932D01*
G01X24634Y18902D01*
G01X24635Y18891D01*
G01X24639Y18860D01*
G01X24640Y18849D01*
G01X24645Y18821D01*
G01X24648Y18810D01*
G01X24655Y18779D01*
G01X24657Y18768D01*
G01X24665Y18740D01*
G01X24669Y18729D01*
G01X24678Y18700D01*
G01X24682Y18690D01*
G01X24694Y18661D01*
G01X24698Y18650D01*
G01X24710Y18623D01*
G01X24715Y18613D01*
G01X24729Y18586D01*
G01X24733Y18579D01*
G01X24729Y18572D01*
G01X24715Y18545D01*
G01X24710Y18535D01*
G01X24698Y18508D01*
G01X24694Y18498D01*
G01X24682Y18468D01*
G01X24678Y18458D01*
G01X24669Y18429D01*
G01X24665Y18419D01*
G01X24657Y18390D01*
G01X24655Y18379D01*
G01X24648Y18349D01*
G01X24645Y18338D01*
G01X24640Y18309D01*
G01X24639Y18298D01*
G01X24635Y18267D01*
G01X24634Y18256D01*
G01X24632Y18226D01*
G01X24631Y18215D01*
G01X24630Y18185D01*
G01X24630Y18173D01*
G01X24631Y18143D01*
G01X24632Y18132D01*
G01X24634Y18102D01*
G01X24635Y18091D01*
G01X24639Y18060D01*
G01X24640Y18049D01*
G01X24645Y18020D01*
G01X24648Y18009D01*
G01X24655Y17979D01*
G01X24657Y17968D01*
G01X24665Y17939D01*
G01X24669Y17929D01*
G01X24678Y17900D01*
G01X24682Y17890D01*
G01X24694Y17861D01*
G01X24698Y17850D01*
G01X24710Y17823D01*
G01X24715Y17813D01*
G01X24729Y17786D01*
G01X24733Y17779D01*
G01X24729Y17772D01*
G01X24715Y17745D01*
G01X24710Y17735D01*
G01X24698Y17708D01*
G01X24694Y17697D01*
G01X24682Y17668D01*
G01X24678Y17658D01*
G01X24669Y17629D01*
G01X24665Y17619D01*
G01X24657Y17590D01*
G01X24655Y17579D01*
G01X24648Y17549D01*
G01X24645Y17538D01*
G01X24640Y17509D01*
G01X24639Y17498D01*
G01X24635Y17467D01*
G01X24634Y17456D01*
G01X24632Y17426D01*
G01X24631Y17415D01*
G01X24630Y17385D01*
G01X24630Y17373D01*
G01X24631Y17343D01*
G01X24632Y17332D01*
G01X24634Y17302D01*
G01X24635Y17291D01*
G01X24639Y17260D01*
G01X24640Y17249D01*
G01X24645Y17220D01*
G01X24648Y17209D01*
G01X24655Y17179D01*
G01X24657Y17168D01*
G01X24665Y17139D01*
G01X24669Y17129D01*
G01X24678Y17100D01*
G01X24682Y17090D01*
G01X24694Y17060D01*
G01X24698Y17050D01*
G01X24710Y17023D01*
G01X24715Y17013D01*
G01X24729Y16986D01*
G01X24733Y16979D01*
G01X24729Y16972D01*
G01X24715Y16945D01*
G01X24710Y16935D01*
G01X24698Y16908D01*
G01X24694Y16897D01*
G01X24682Y16868D01*
G01X24678Y16858D01*
G01X24669Y16829D01*
G01X24665Y16819D01*
G01X24657Y16790D01*
G01X24655Y16779D01*
G01X24648Y16749D01*
G01X24645Y16738D01*
G01X24640Y16709D01*
G01X24639Y16698D01*
G01X24638Y16691D01*
G01X24994Y16691D01*
G01X25007Y16683D01*
G01X25016Y16677D01*
G01X25041Y16662D01*
G01X25051Y16656D01*
G01X25077Y16641D01*
G01X25087Y16636D01*
G01X25116Y16623D01*
G01X25126Y16618D01*
G01X25137Y16613D01*
G01X24185Y16613D01*
G01X24166Y16613D01*
G01X24146Y16612D01*
G01X24127Y16611D01*
G01X24108Y16610D01*
G01X24089Y16608D01*
G01X24070Y16605D01*
G01X24051Y16602D01*
G01X24032Y16599D01*
G01X24022Y16597D01*
G01X23984Y16602D01*
G01X23874Y16604D01*
G01X23764Y16596D01*
G01X23655Y16577D01*
G01X23549Y16547D01*
G01X23446Y16507D01*
G01X23348Y16457D01*
G01X23255Y16397D01*
G01X23169Y16328D01*
G01X23090Y16251D01*
G01X23019Y16166D01*
G01X22957Y16075D01*
G01X22904Y15978D01*
G01X22861Y15876D01*
G01X22829Y15771D01*
G01X22807Y15663D01*
G01X22796Y15553D01*
G01X22796Y15443D01*
G01X22807Y15333D01*
G01X22829Y15225D01*
G01X22861Y15119D01*
G01X22904Y15018D01*
G01X22957Y14921D01*
G01X23019Y14829D01*
G01X23090Y14745D01*
G01X23169Y14668D01*
G01X23255Y14599D01*
G01X23348Y14539D01*
G01X23446Y14489D01*
G01X23549Y14448D01*
G01X23655Y14419D01*
G01X23764Y14399D01*
G01X23874Y14391D01*
G01X23984Y14394D01*
G01X24094Y14408D01*
G01X24201Y14432D01*
G01X24306Y14467D01*
G01X24406Y14513D01*
G01X24502Y14568D01*
G01X24592Y14632D01*
G01X24674Y14705D01*
G01X24677Y14708D01*
G01X24678Y14702D01*
G01X24682Y14692D01*
G01X24694Y14663D01*
G01X24698Y14652D01*
G01X24710Y14625D01*
G01X24715Y14615D01*
G01X24729Y14588D01*
G01X24733Y14581D01*
G01X24729Y14574D01*
G01X24715Y14548D01*
G01X24710Y14537D01*
G01X24698Y14510D01*
G01X24694Y14500D01*
G01X24682Y14470D01*
G01X24678Y14460D01*
G01X24669Y14431D01*
G01X24665Y14421D01*
G01X24657Y14392D01*
G01X24655Y14381D01*
G01X24648Y14351D01*
G01X24645Y14340D01*
G01X24640Y14311D01*
G01X24639Y14300D01*
G01X24635Y14269D01*
G01X24634Y14258D01*
G01X24632Y14228D01*
G01X24631Y14217D01*
G01X24630Y14187D01*
G01X24630Y14175D01*
G01X24631Y14145D01*
G01X24632Y14134D01*
G01X24634Y14104D01*
G01X24635Y14093D01*
G01X24639Y14062D01*
G01X24640Y14051D01*
G01X24645Y14022D01*
G01X24648Y14011D01*
G01X24655Y13981D01*
G01X24657Y13970D01*
G01X24665Y13941D01*
G01X24669Y13931D01*
G01X24678Y13902D01*
G01X24682Y13892D01*
G01X24694Y13863D01*
G01X24698Y13852D01*
G01X24710Y13825D01*
G01X24715Y13815D01*
G01X24729Y13788D01*
G01X24733Y13781D01*
G01X24729Y13774D01*
G01X24715Y13747D01*
G01X24710Y13737D01*
G01X24698Y13710D01*
G01X24694Y13700D01*
G01X24682Y13670D01*
G01X24678Y13660D01*
G01X24669Y13631D01*
G01X24665Y13621D01*
G01X24657Y13592D01*
G01X24655Y13581D01*
G01X24648Y13551D01*
G01X24645Y13540D01*
G01X24640Y13511D01*
G01X24639Y13500D01*
G01X24635Y13469D01*
G01X24634Y13458D01*
G01X24632Y13428D01*
G01X24631Y13417D01*
G01X24630Y13387D01*
G01X24630Y13375D01*
G01X24631Y13345D01*
G01X24632Y13334D01*
G01X24634Y13304D01*
G01X24635Y13293D01*
G01X24639Y13262D01*
G01X24640Y13251D01*
G01X24645Y13222D01*
G01X24648Y13211D01*
G01X24649Y13207D01*
G01X24646Y13208D01*
G01X24617Y13213D01*
G01X24606Y13214D01*
G01X24576Y13218D01*
G01X24565Y13219D01*
G01X24534Y13222D01*
G01X24523Y13222D01*
G01X24493Y13223D01*
G01X24482Y13223D01*
G01X24452Y13222D01*
G01X24440Y13222D01*
G01X24410Y13219D01*
G01X24399Y13218D01*
G01X24369Y13214D01*
G01X24357Y13213D01*
G01X24329Y13208D01*
G01X24318Y13205D01*
G01X24288Y13199D01*
G01X24277Y13196D01*
G01X24248Y13188D01*
G01X24237Y13184D01*
G01X24209Y13175D01*
G01X24198Y13171D01*
G01X24169Y13160D01*
G01X24159Y13155D01*
G01X24131Y13143D01*
G01X24121Y13138D01*
G01X24094Y13124D01*
G01X24087Y13120D01*
G01X24080Y13124D01*
G01X24054Y13138D01*
G01X24044Y13143D01*
G01X24016Y13155D01*
G01X24006Y13160D01*
G01X23977Y13171D01*
G01X23966Y13175D01*
G01X23938Y13184D01*
G01X23927Y13188D01*
G01X23898Y13196D01*
G01X23887Y13199D01*
G01X23857Y13205D01*
G01X23846Y13208D01*
G01X23817Y13213D01*
G01X23806Y13214D01*
G01X23776Y13218D01*
G01X23765Y13219D01*
G01X23734Y13222D01*
G01X23723Y13222D01*
G01X23693Y13223D01*
G01X23682Y13223D01*
G01X23651Y13222D01*
G01X23640Y13222D01*
G01X23610Y13219D01*
G01X23599Y13218D01*
G01X23568Y13214D01*
G01X23557Y13213D01*
G01X23529Y13208D01*
G01X23518Y13205D01*
G01X23487Y13199D01*
G01X23477Y13196D01*
G01X23448Y13188D01*
G01X23437Y13184D01*
G01X23409Y13175D01*
G01X23398Y13171D01*
G01X23369Y13160D01*
G01X23358Y13155D01*
G01X23331Y13143D01*
G01X23321Y13138D01*
G01X23294Y13124D01*
G01X23287Y13120D01*
G01X23280Y13124D01*
G01X23254Y13138D01*
G01X23243Y13143D01*
G01X23216Y13155D01*
G01X23206Y13160D01*
G01X23177Y13171D01*
G01X23166Y13175D01*
G01X23138Y13184D01*
G01X23127Y13188D01*
G01X23098Y13196D01*
G01X23087Y13199D01*
G01X23057Y13205D01*
G01X23046Y13208D01*
G01X23017Y13213D01*
G01X23006Y13214D01*
G01X22976Y13218D01*
G01X22964Y13219D01*
G01X22934Y13222D01*
G01X22923Y13222D01*
G01X22893Y13223D01*
G01X22882Y13223D01*
G01X22851Y13222D01*
G01X22840Y13222D01*
G01X22810Y13219D01*
G01X22799Y13218D01*
G01X22768Y13214D01*
G01X22757Y13213D01*
G01X22729Y13208D01*
G01X22718Y13205D01*
G01X22687Y13199D01*
G01X22676Y13196D01*
G01X22648Y13188D01*
G01X22637Y13184D01*
G01X22608Y13175D01*
G01X22598Y13171D01*
G01X22569Y13160D01*
G01X22558Y13155D01*
G01X22531Y13143D01*
G01X22521Y13138D01*
G01X22494Y13124D01*
G01X22487Y13120D01*
G01X22480Y13124D01*
G01X22454Y13138D01*
G01X22443Y13143D01*
G01X22416Y13155D01*
G01X22406Y13160D01*
G01X22376Y13171D01*
G01X22366Y13175D01*
G01X22337Y13184D01*
G01X22327Y13188D01*
G01X22298Y13196D01*
G01X22287Y13199D01*
G01X22257Y13205D01*
G01X22246Y13208D01*
G01X22217Y13213D01*
G01X22206Y13214D01*
G01X22175Y13218D01*
G01X22164Y13219D01*
G01X22134Y13222D01*
G01X22123Y13222D01*
G01X22093Y13223D01*
G01X22081Y13223D01*
G01X22051Y13222D01*
G01X22040Y13222D01*
G01X22010Y13219D01*
G01X21999Y13218D01*
G01X21968Y13214D01*
G01X21957Y13213D01*
G01X21928Y13208D01*
G01X21917Y13205D01*
G01X21887Y13199D01*
G01X21876Y13196D01*
G01X21847Y13188D01*
G01X21837Y13184D01*
G01X21808Y13175D01*
G01X21798Y13171D01*
G01X21769Y13160D01*
G01X21758Y13155D01*
G01X21731Y13143D01*
G01X21721Y13138D01*
G01X21694Y13124D01*
G01X21688Y13121D01*
G01X21682Y13124D01*
G01X21656Y13138D01*
G01X21646Y13143D01*
G01X21618Y13155D01*
G01X21608Y13160D01*
G01X21579Y13171D01*
G01X21568Y13175D01*
G01X21540Y13184D01*
G01X21529Y13188D01*
G01X21500Y13196D01*
G01X21489Y13199D01*
G01X21459Y13205D01*
G01X21448Y13208D01*
G01X21419Y13213D01*
G01X21408Y13214D01*
G01X21378Y13218D01*
G01X21367Y13219D01*
G01X21337Y13222D01*
G01X21325Y13222D01*
G01X21295Y13223D01*
G01X21284Y13223D01*
G01X21254Y13222D01*
G01X21242Y13222D01*
G01X21212Y13219D01*
G01X21201Y13218D01*
G01X21171Y13214D01*
G01X21160Y13213D01*
G01X21131Y13208D01*
G01X21120Y13205D01*
G01X21090Y13199D01*
G01X21079Y13196D01*
G01X21050Y13188D01*
G01X21039Y13184D01*
G01X21011Y13175D01*
G01X21000Y13171D01*
G01X20971Y13160D01*
G01X20961Y13155D01*
G01X20933Y13143D01*
G01X20923Y13138D01*
G01X20896Y13124D01*
G01X20889Y13120D01*
G01X20882Y13124D01*
G01X20856Y13138D01*
G01X20846Y13143D01*
G01X20818Y13155D01*
G01X20808Y13160D01*
G01X20779Y13171D01*
G01X20768Y13175D01*
G01X20740Y13184D01*
G01X20729Y13188D01*
G01X20700Y13196D01*
G01X20689Y13199D01*
G01X20659Y13205D01*
G01X20648Y13208D01*
G01X20619Y13213D01*
G01X20608Y13214D01*
G01X20578Y13218D01*
G01X20567Y13219D01*
G01X20536Y13222D01*
G01X20525Y13222D01*
G01X20495Y13223D01*
G01X20484Y13223D01*
G01X20454Y13222D01*
G01X20442Y13222D01*
G01X20412Y13219D01*
G01X20401Y13218D01*
G01X20371Y13214D01*
G01X20360Y13213D01*
G01X20331Y13208D01*
G01X20320Y13205D01*
G01X20290Y13199D01*
G01X20279Y13196D01*
G01X20250Y13188D01*
G01X20239Y13184D01*
G01X20211Y13175D01*
G01X20200Y13171D01*
G01X20171Y13160D01*
G01X20161Y13155D01*
G01X20133Y13143D01*
G01X20123Y13138D01*
G01X20096Y13124D01*
G01X20089Y13120D01*
G01X20082Y13124D01*
G01X20056Y13138D01*
G01X20046Y13143D01*
G01X20018Y13155D01*
G01X20008Y13160D01*
G01X19979Y13171D01*
G01X19968Y13175D01*
G01X19940Y13184D01*
G01X19929Y13188D01*
G01X19900Y13196D01*
G01X19889Y13199D01*
G01X19859Y13205D01*
G01X19848Y13208D01*
G01X19819Y13213D01*
G01X19808Y13214D01*
G01X19778Y13218D01*
G01X19767Y13219D01*
G01X19736Y13222D01*
G01X19725Y13222D01*
G01X19695Y13223D01*
G01X19684Y13223D01*
G01X19653Y13222D01*
G01X19642Y13222D01*
G01X19612Y13219D01*
G01X19601Y13218D01*
G01X19570Y13214D01*
G01X19559Y13213D01*
G01X19531Y13208D01*
G01X19520Y13205D01*
G01X19489Y13199D01*
G01X19479Y13196D01*
G01X19450Y13188D01*
G01X19439Y13184D01*
G01X19411Y13175D01*
G01X19400Y13171D01*
G01X19371Y13160D01*
G01X19360Y13155D01*
G01X19333Y13143D01*
G01X19323Y13138D01*
G01X19296Y13124D01*
G01X19286Y13119D01*
G01X19261Y13104D01*
G01X19251Y13098D01*
G01X19225Y13081D01*
G01X19216Y13075D01*
G01X19191Y13057D01*
G01X19182Y13051D01*
G01X19159Y13032D01*
G01X19151Y13025D01*
G01X19128Y13005D01*
G01X19120Y12997D01*
G01X19098Y12976D01*
G01X19090Y12968D01*
G01X19069Y12945D01*
G01X19061Y12936D01*
G01X19043Y12915D01*
G01X19036Y12906D01*
G01X19017Y12881D01*
G01X19010Y12872D01*
G01X18993Y12846D01*
G01X18987Y12837D01*
G01X18972Y12812D01*
G01X18966Y12803D01*
G01X18962Y12795D01*
G01X18936Y12797D01*
G01X18925Y12797D01*
G01X18895Y12798D01*
G01X18884Y12798D01*
G01X18853Y12797D01*
G01X18842Y12797D01*
G01X18812Y12794D01*
G01X18801Y12793D01*
G01X18770Y12789D01*
G01X18759Y12788D01*
G01X18731Y12783D01*
G01X18720Y12780D01*
G01X18689Y12774D01*
G01X18678Y12771D01*
G01X18650Y12763D01*
G01X18639Y12759D01*
G01X18610Y12750D01*
G01X18600Y12746D01*
G01X18571Y12735D01*
G01X18560Y12730D01*
G01X18533Y12718D01*
G01X18523Y12713D01*
G01X18496Y12699D01*
G01X18486Y12694D01*
G01X18461Y12679D01*
G01X18451Y12673D01*
G01X18425Y12656D01*
G01X18416Y12650D01*
G01X18391Y12632D01*
G01X18382Y12625D01*
G01X18359Y12607D01*
G01X18351Y12600D01*
G01X18328Y12580D01*
G01X18320Y12572D01*
G01X18297Y12551D01*
G01X18290Y12543D01*
G01X18268Y12520D01*
G01X18261Y12511D01*
G01X18243Y12490D01*
G01X18236Y12481D01*
G01X18217Y12456D01*
G01X18210Y12447D01*
G01X18193Y12421D01*
G01X18187Y12412D01*
G01X18172Y12387D01*
G01X18166Y12378D01*
G01X18152Y12351D01*
G01X18147Y12341D01*
G01X18133Y12312D01*
G01X18128Y12302D01*
G01X18117Y12276D01*
G01X18113Y12265D01*
G01X18102Y12235D01*
G01X18098Y12225D01*
G01X18090Y12197D01*
G01X18087Y12186D01*
G01X18079Y12156D01*
G01X18077Y12145D01*
G01X18071Y12116D01*
G01X18069Y12105D01*
G01X18064Y12075D01*
G01X18063Y12064D01*
G01X18060Y12034D01*
G01X18059Y12023D01*
G01X18058Y11992D01*
G01X18057Y11981D01*
G01X18057Y11966D01*
G01X18057Y11731D01*
G01X16357Y11731D01*
G37*

%LPC*%

%LPD*%
G54D11*
G01X18710Y31610D02*
G01X15641Y31610D01*
G01X15250Y31998D01*
G01X18710Y30340D02*
G01X16129Y30340D01*
G01X15250Y29458D01*
G01X24907Y30340D02*
G01X28197Y30340D01*
G01X28204Y30345D01*
G01X26698Y30340D02*
G01X26698Y30447D01*
G01X27099Y30850D01*
G01X27399Y30850D01*
G01X26462Y30340D02*
G01X26462Y30286D01*
G01X26899Y29850D01*
G01X27399Y29850D01*
G01X16863Y31610D02*
G01X16863Y31683D01*
G01X16200Y32349D01*
G01X16200Y32250D01*
G01X16099Y32148D01*
G01X16129Y30340D02*
G01X15410Y30340D01*
G01X15400Y30350D01*
G01X16119Y30350D01*
G01X16129Y30340D01*
G01X16129Y30340D02*
G01X16129Y29380D01*
G01X15999Y29250D01*
G01X24907Y29070D02*
G01X25979Y29070D01*
G01X27000Y28049D01*
G01X27198Y28049D01*
G01X28202Y27048D01*
G01X24907Y27800D02*
G01X24907Y24157D01*
G01X24900Y24150D01*
G01X28103Y24150D01*
G01X28202Y24051D01*
G54D12*
G01X22098Y20553D02*
G01X22098Y28046D01*
G01X23200Y29149D01*
G01X24829Y29149D01*
G01X24907Y29070D01*
G01X22898Y20553D02*
G01X22898Y23848D01*
G01X23099Y24048D01*
G01X24801Y24048D01*
G01X24907Y24157D01*
G01X23929Y24048D02*
G01X23929Y24127D01*
G01X24907Y25107D01*
G01X24526Y24048D02*
G01X24526Y24617D01*
G01X24473Y24673D01*
G54D13*
G01X30998Y30345D02*
G01X30998Y24051D01*
G01X30996Y24051D01*
G54D11*
G01X18710Y27800D02*
G01X18148Y27800D01*
G01X17600Y27249D01*
G01X17600Y27249D01*
G01X16899Y26550D01*
G01X16899Y26550D01*
G01X16099Y25750D01*
G01X16099Y25750D01*
G01X15999Y25648D01*
G01X12484Y25648D01*
G01X12482Y25651D01*
G54D13*
G01X8387Y34236D02*
G01X8387Y34239D01*
G01X10048Y35900D01*
G01X13200Y35900D01*
G01X15850Y38549D01*
G01X15850Y39938D01*
G01X15860Y39946D01*
G54D12*
G01X19690Y11790D02*
G01X19695Y10899D01*
G01X15999Y10899D01*
G01X15999Y8399D01*
G01X13200Y8420D01*
G01X20500Y20553D02*
G01X20500Y24749D01*
G01X19500Y25798D01*
G01X19500Y25798D02*
G01X19500Y25748D01*
G01X19749Y25499D01*
G01X23688Y11790D02*
G01X23688Y5392D01*
G01X23724Y5356D01*
G01X22888Y11790D02*
G01X22850Y8300D01*
G01X18644Y5356D01*
G01X22088Y11790D02*
G01X22101Y9268D01*
G01X16645Y6004D01*
G01X16104Y5356D01*
G01X21290Y11790D02*
G01X21300Y9850D01*
G01X19700Y9050D01*
G01X17998Y8950D01*
G01X17325Y16588D02*
G01X11460Y16588D01*
G01X11400Y16649D01*
G01X11400Y18196D01*
G01X11402Y18298D01*
G01X17325Y15791D02*
G01X20208Y15791D01*
G01X21899Y14099D01*
G01X21900Y14099D02*
G01X22649Y14851D01*
G01X22649Y16550D01*
G01X26063Y16578D01*
G01X19700Y20553D02*
G01X19700Y22550D01*
G01X19350Y22900D01*
G01X8250Y22900D01*
G01X8250Y20441D01*
G01X8250Y18900D01*
G01X6502Y18900D01*
G01X6398Y19001D01*
G54D11*
G01X9982Y24701D02*
G01X8001Y24701D01*
G01X6398Y23098D01*
G01X6398Y21795D01*
G01X6401Y21795D01*
G54D13*
G01X18839Y44399D02*
G01X14100Y44399D01*
G01X11151Y41450D01*
G01X11151Y41348D01*
G01X10749Y40949D01*
G01X10749Y39961D01*
G01X10823Y39888D01*
G01X36619Y44399D02*
G01X36619Y46979D01*
G01X36599Y47000D01*
G01X12596Y47000D01*
G01X8298Y42702D01*
G54D11*
G01X24907Y31610D02*
G01X24907Y31658D01*
G01X25700Y32451D01*
G01X30950Y32451D01*
G01X30950Y30396D01*
G01X30998Y30345D01*
G01X7000Y28249D02*
G01X7000Y28249D01*
G01X8451Y26598D01*
G01X9982Y26601D01*
G01X9982Y26601D01*
G54D13*
G01X30998Y30345D02*
G01X33447Y30345D01*
G01X36599Y33500D01*
G01X36599Y44378D01*
G01X36619Y44399D01*
G01X8298Y42702D02*
G01X8298Y39941D01*
G01X8245Y39888D01*
G01X5504Y42702D02*
G01X5504Y39989D01*
G01X5608Y39888D01*
G54D12*
G01X26063Y15781D02*
G01X27716Y15781D01*
G01X27750Y15750D01*
G01X27750Y14201D01*
G01X26081Y14201D01*
G01X26063Y14180D01*
G01X17325Y18188D02*
G01X14305Y18188D01*
G01X14196Y18298D01*
G01X18900Y20553D02*
G01X18395Y20553D01*
G01X17800Y21150D01*
G01X11300Y8420D02*
G01X10119Y8420D01*
G01X10048Y8349D01*
G01X10048Y3449D01*
G01X31151Y3449D01*
G01X31349Y3650D01*
G01X31349Y5351D01*
G01X31344Y5356D01*
G01X23698Y20553D02*
G01X23698Y21798D01*
G01X24399Y22499D01*
G01X26063Y13380D02*
G01X26063Y13162D01*
G01X25700Y12799D01*
G01X25700Y11000D01*
G01X24849Y10149D01*
G01X24849Y6771D01*
G01X26264Y5356D01*
G54D11*
G01X11400Y16649D02*
G01X11400Y16850D01*
G01X11799Y17249D01*
G01X10899Y17249D01*
G01X10899Y17149D01*
G01X11400Y16649D01*
G54D14*
G01X27498Y14201D02*
G01X27498Y12999D01*
G01X26899Y12400D01*
G01X26899Y10551D01*
G01X25999Y9649D01*
G01X25999Y8399D01*
G01X28804Y5356D01*
G01X28804Y5356D01*
G54D13*
G01X18839Y44399D02*
G01X18839Y43010D01*
G01X18849Y42999D01*
G01X18849Y42949D01*
G01X19549Y42249D01*
G01X21098Y42249D01*
G01X22174Y41173D01*
G01X22174Y37897D02*
G01X26141Y37897D01*
G01X26197Y37954D01*
G01X28999Y44399D02*
G01X28999Y43549D01*
G01X26197Y40748D01*
G01X14196Y18299D02*
G01X14196Y20280D01*
G01X13302Y21174D01*
G54D12*
G01X10025Y21174D02*
G01X10025Y21075D01*
G01X9299Y20349D01*
G01X9299Y18348D01*
G01X5347Y14396D01*
G54D13*
G01X13302Y21174D02*
G01X15925Y21174D01*
G01X15951Y21148D01*
G54D15*
G01X6050Y24999D02*
G01X6050Y24973D01*
G01X7161Y23861D01*
G54D12*
G01X26062Y16579D02*
G01X30979Y16579D01*
G01X32599Y18199D01*
G54D13*
G01X33884Y5356D02*
G01X37749Y5356D01*
G01X37749Y18244D01*
G01X32598Y18199D01*
G54D11*
G01X18711Y29069D02*
G01X20169Y29069D01*
G01X20599Y29499D01*
G01X20599Y29499D01*
G01X21249Y30149D01*
G01X21249Y32349D01*
G01X22449Y33549D01*
G01X30799Y33549D01*
G01X32549Y35299D01*
G01X32549Y38149D01*
G01X32599Y38199D01*
G54D12*
G01X24498Y20554D02*
G01X24498Y21198D01*
G01X25599Y22299D01*
G01X26099Y22299D01*
G01X26149Y22249D01*
G54D11*
G01X13500Y5450D02*
G01X12720Y5450D01*
G01X12250Y5920D01*
G54D12*
G01X17325Y14191D02*
G01X14992Y14191D01*
G01X14950Y14150D01*
G01X14950Y11609D02*
G01X15059Y11609D01*
G01X16299Y12849D01*
G01X16599Y13149D01*
G01X17083Y13149D01*
G01X17325Y13391D01*
G01X17325Y15791D02*
G01X15891Y15791D01*
G01X15749Y15649D01*
G54D13*
G01X5347Y11602D02*
G01X5347Y8743D01*
G01X30996Y24050D02*
G01X36298Y24050D01*
G01X36300Y24047D01*
G01X36300Y21253D02*
G01X35653Y21253D01*
G01X32599Y18199D01*
G54D16*
G01X27499Y14201D02*
G01X33751Y14201D01*
G01X35449Y15899D01*
G01X40099Y15449D02*
G01X40099Y23999D01*
G01X39999Y24099D01*
G01X36352Y24099D01*
G01X36300Y24047D01*
G01X11402Y18299D02*
G01X11402Y18102D01*
G01X8099Y14799D01*
G01X8099Y5449D01*
G54D12*
G01X26062Y18979D02*
G01X26379Y18979D01*
G01X28449Y21049D01*
G01X32549Y21049D01*
G01X33549Y22049D01*
G01X26062Y15781D02*
G01X24185Y15781D01*
G01X23902Y15498D01*
G01X17325Y16589D02*
G01X21560Y16589D01*
G01X21599Y16550D01*
G54D17*
G01X2802Y28198D02*
G01X6948Y28198D01*
G01X6999Y28249D01*
G54D14*
G01X6398Y19001D02*
G01X4448Y19001D01*
G01X4249Y19199D01*
G01X4249Y22750D01*
G01X1300Y25699D01*
G01X1300Y29700D01*
G01X5050Y33449D01*
G01X5222Y33449D01*
G01X6414Y32258D01*
G54D12*
G01X20489Y11791D02*
G01X20489Y10589D01*
G01X20199Y10299D01*
G01X19949Y10049D01*
G01X18899Y10049D01*
G01X18799Y9949D01*
G54D18*
G01X18899Y21154D02*
G01X18899Y19954D01*
G01X19699Y21154D02*
G01X19699Y19954D01*
G01X20500Y21154D02*
G01X20500Y19954D01*
G01X21300Y21154D02*
G01X21300Y19954D01*
G01X22097Y21154D02*
G01X22097Y19954D01*
G01X22897Y21154D02*
G01X22897Y19954D01*
G01X23697Y21154D02*
G01X23697Y19954D01*
G01X24498Y21154D02*
G01X24498Y19954D01*
G01X25462Y18979D02*
G01X26662Y18979D01*
G01X25462Y18179D02*
G01X26662Y18179D01*
G01X25462Y17379D02*
G01X26662Y17379D01*
G01X25462Y16579D02*
G01X26662Y16579D01*
G01X25462Y15781D02*
G01X26662Y15781D01*
G01X25462Y14981D02*
G01X26662Y14981D01*
G01X25462Y14181D02*
G01X26662Y14181D01*
G01X25462Y13381D02*
G01X26662Y13381D01*
G01X24487Y12391D02*
G01X24487Y11191D01*
G01X23687Y12391D02*
G01X23687Y11191D01*
G01X22887Y12391D02*
G01X22887Y11191D01*
G01X22087Y12391D02*
G01X22087Y11191D01*
G01X21290Y12391D02*
G01X21290Y11191D01*
G01X20489Y12391D02*
G01X20489Y11191D01*
G01X19689Y12391D02*
G01X19689Y11191D01*
G01X18889Y11966D02*
G01X18889Y11616D01*
G01X16725Y13391D02*
G01X17925Y13391D01*
G01X16725Y14191D02*
G01X17925Y14191D01*
G01X16725Y14991D02*
G01X17925Y14991D01*
G01X16725Y15791D02*
G01X17925Y15791D01*
G01X16725Y16589D02*
G01X17925Y16589D01*
G01X16725Y17389D02*
G01X17925Y17389D01*
G01X16725Y18189D02*
G01X17925Y18189D01*
G01X16725Y18989D02*
G01X17925Y18989D01*
G54D11*
G01X24358Y27799D02*
G01X25458Y27799D01*
G01X24358Y29069D02*
G01X25458Y29069D01*
G01X24358Y30339D02*
G01X25458Y30339D01*
G01X24358Y31609D02*
G01X25458Y31609D01*
G01X18161Y27799D02*
G01X19261Y27799D01*
G01X18161Y29069D02*
G01X19261Y29069D01*
G01X18161Y30339D02*
G01X19261Y30339D01*
G01X18161Y31609D02*
G01X19261Y31609D01*
G54D22*
G01X28204Y30346D03*
G01X30998Y30346D03*
G54D23*
G01X36299Y24048D03*
G01X36299Y21254D03*
G54D22*
G01X28202Y24050D03*
G01X30996Y24050D03*
G01X28202Y27049D03*
G01X30996Y27049D03*
G36*
G01X5210Y32331D02*
G01X6340Y33461D01*
G01X7615Y32189D01*
G01X6482Y31056D01*
G01X5210Y32331D01*
G37*
G36*
G01X7186Y34307D02*
G01X8316Y35438D01*
G01X9589Y34165D01*
G01X8458Y33032D01*
G01X7186Y34307D01*
G37*
G01X11402Y18299D03*
G01X14196Y18299D03*
G54D23*
G01X5348Y14396D03*
G01X5348Y11602D03*
G01X26198Y40747D03*
G01X26198Y37953D03*
G54D24*
G01X12482Y25651D03*
G01X9982Y24701D03*
G01X9982Y26601D03*
G54D25*
G01X12250Y5920D03*
G01X11300Y8420D03*
G01X13200Y8420D03*
G54D23*
G01X6400Y19001D03*
G01X6400Y21795D03*
G54D22*
G01X8298Y42701D03*
G01X5504Y42701D03*
G54D26*
G01X10025Y21174D03*
G01X13302Y21174D03*
G54D27*
G01X22174Y41173D03*
G01X22174Y37897D03*
G54D28*
G01X15250Y31998D03*
G54D29*
G01X15249Y29459D03*
G54D28*
G01X14950Y14150D03*
G54D29*
G01X14950Y11609D03*
G54D30*
G01X36619Y44399D03*
G54D31*
G01X34079Y44399D03*
G01X31539Y44399D03*
G01X28999Y44399D03*
G01X26459Y44399D03*
G01X23919Y44399D03*
G01X21379Y44399D03*
G01X18839Y44399D03*
G54D32*
G01X16104Y5356D03*
G01X18644Y5356D03*
G01X21184Y5356D03*
G01X23724Y5356D03*
G01X26264Y5356D03*
G01X28804Y5356D03*
G01X31344Y5356D03*
G01X33884Y5356D03*
G54D33*
G01X32599Y18199D03*
G01X32599Y38199D03*
G54D34*
G01X18496Y39947D03*
G01X15859Y39947D03*
G01X13341Y39887D03*
G01X10823Y39887D03*
G01X8246Y39887D03*
G01X5608Y39887D03*
G54D13*
G01X19500Y25799D03*
G54D15*
G01X17999Y8949D03*
G54D19*
G01X18800Y9949D03*
G54D13*
G01X6050Y24999D03*
G01X6999Y28249D03*
G54D15*
G01X15951Y21148D03*
G01X17800Y21149D03*
G54D19*
G01X24400Y22499D03*
G01X26150Y22249D03*
G54D20*
G01X13500Y5449D03*
G01X8100Y5449D03*
G54D21*
G01X15750Y15700D03*
G54D20*
G01X5347Y8742D03*
G54D15*
G01X21899Y14099D03*
G01X35450Y15899D03*
G01X40099Y15449D03*
G01X33549Y22050D03*
G01X2802Y28198D03*
G54D19*
G01X21599Y16549D03*
G54D15*
G01X23901Y15498D03*
M00*
M02*
