G04 ---------------------------- Layer name :BOTTOM SILK LAYER*
G04 EasyEDA v5.5.14, Thu, 21 Jun 2018 15:21:40 GMT*
G04 9a38f802714640338dee6b1ee23c8345*
G04 Gerber Generator version 0.2*
G04 Scale: 100 percent, Rotated: No, Reflected: No *
G04 Dimensions in millimeters *
G04 leading zeros omitted , absolute positions ,3 integer and 3 decimal *
%FSLAX33Y33*%
%MOMM*%
G90*
G71D02*

%ADD10C,0.254000*%
%ADD12C,0.449999*%
%ADD38C,0.203200*%
%ADD40C,0.330200*%
%ADD43C,0.177800*%
%ADD45C,0.387096*%
%ADD46C,0.152400*%

%LPD*%
G54D45*
G01X28699Y40200D02*
G01X27409Y40200D01*
G01X28054Y39555D02*
G01X28054Y40845D01*
G01X35799Y41099D02*
G01X35799Y41744D01*
G01X35799Y41744D02*
G01X29347Y41744D01*
G01X29347Y41744D02*
G01X29347Y41099D01*
G01X35799Y39270D02*
G01X35799Y41099D01*
G01X29350Y41099D02*
G01X29350Y39359D01*
G54D10*
G01X4171Y41564D02*
G01X19934Y41564D01*
G01X19934Y3980D01*
G01X19934Y3921D02*
G01X4171Y3921D01*
G01X4171Y4521D01*
G01X4171Y41506D02*
G01X4171Y4521D01*
G01X30573Y8840D02*
G01X30573Y7062D01*
G01X28033Y7062D01*
G01X28033Y8840D01*
G01X28033Y10364D02*
G01X28033Y12142D01*
G01X30573Y12142D01*
G01X30573Y10364D01*
G01X24816Y8687D02*
G01X24816Y6909D01*
G01X22276Y6909D01*
G01X22276Y8687D01*
G01X22276Y10211D02*
G01X22276Y11989D01*
G01X24816Y11989D01*
G01X24816Y10211D01*
G01X34429Y10362D02*
G01X34429Y12140D01*
G01X36969Y12140D01*
G01X36969Y10362D01*
G01X36969Y8838D02*
G01X36969Y7060D01*
G01X34429Y7060D01*
G01X34429Y8838D01*
G01X31227Y10362D02*
G01X31227Y12140D01*
G01X33767Y12140D01*
G01X33767Y10362D01*
G01X33767Y8838D02*
G01X33767Y7060D01*
G01X31227Y7060D01*
G01X31227Y8838D01*
G01X37679Y10360D02*
G01X37679Y12138D01*
G01X40219Y12138D01*
G01X40219Y10360D01*
G01X40219Y8836D02*
G01X40219Y7058D01*
G01X37679Y7058D01*
G01X37679Y8836D01*
G01X41184Y9660D02*
G01X41184Y7069D01*
G01X43165Y7069D01*
G01X43165Y9660D01*
G54D40*
G01X43115Y7577D02*
G01X41235Y7577D01*
G54D10*
G01X43165Y11285D02*
G01X43165Y13327D01*
G01X41164Y13327D01*
G01X41164Y11285D01*
G01X27465Y10489D02*
G01X27465Y13080D01*
G01X25483Y13080D01*
G01X25483Y10489D01*
G54D40*
G01X25534Y12572D02*
G01X27414Y12572D01*
G54D10*
G01X25483Y8864D02*
G01X25483Y6822D01*
G01X27485Y6822D01*
G01X27485Y8864D01*
G54D46*
G01X9384Y15365D02*
G01X7860Y15365D01*
G01X7860Y13079D01*
G01X12940Y13079D01*
G01X12940Y15365D01*
G01X9130Y15365D01*
G01X9384Y12765D02*
G01X7860Y12765D01*
G01X7860Y10479D01*
G01X12940Y10479D01*
G01X12940Y12765D01*
G01X9130Y12765D01*
G01X12415Y28134D02*
G01X13939Y28134D01*
G01X13939Y30420D01*
G01X8859Y30420D01*
G01X8859Y28134D01*
G01X12669Y28134D01*
G01X12415Y30834D02*
G01X13939Y30834D01*
G01X13939Y33120D01*
G01X8859Y33120D01*
G01X8859Y30834D01*
G01X12669Y30834D01*
G54D12*
G01X46749Y32400D02*
G01X44249Y32400D01*
G01X44249Y32349D01*
G01X44950Y31650D01*
G01X44249Y32400D02*
G01X44999Y33098D01*
G54D43*
G01X44649Y40490D02*
G01X44701Y40594D01*
G01X44805Y40697D01*
G01X44909Y40749D01*
G01X45117Y40749D01*
G01X45221Y40697D01*
G01X45324Y40594D01*
G01X45376Y40490D01*
G01X45428Y40334D01*
G01X45428Y40074D01*
G01X45376Y39918D01*
G01X45324Y39814D01*
G01X45221Y39710D01*
G01X45117Y39658D01*
G01X44909Y39658D01*
G01X44805Y39710D01*
G01X44701Y39814D01*
G01X44649Y39918D01*
G01X44306Y40749D02*
G01X44306Y39658D01*
G01X44306Y40749D02*
G01X43839Y40749D01*
G01X43683Y40697D01*
G01X43631Y40646D01*
G01X43579Y40542D01*
G01X43579Y40438D01*
G01X43631Y40334D01*
G01X43683Y40282D01*
G01X43839Y40230D01*
G01X44306Y40230D01*
G01X43942Y40230D02*
G01X43579Y39658D01*
G01X43184Y40490D02*
G01X43184Y40542D01*
G01X43132Y40646D01*
G01X43080Y40697D01*
G01X42976Y40749D01*
G01X42768Y40749D01*
G01X42664Y40697D01*
G01X42612Y40646D01*
G01X42560Y40542D01*
G01X42560Y40438D01*
G01X42612Y40334D01*
G01X42716Y40178D01*
G01X43236Y39658D01*
G01X42509Y39658D01*
G01X41854Y40749D02*
G01X42010Y40697D01*
G01X42114Y40542D01*
G01X42166Y40282D01*
G01X42166Y40126D01*
G01X42114Y39866D01*
G01X42010Y39710D01*
G01X41854Y39658D01*
G01X41750Y39658D01*
G01X41594Y39710D01*
G01X41490Y39866D01*
G01X41438Y40126D01*
G01X41438Y40282D01*
G01X41490Y40542D01*
G01X41594Y40697D01*
G01X41750Y40749D01*
G01X41854Y40749D01*
G01X40991Y40749D02*
G01X40420Y40749D01*
G01X40732Y40334D01*
G01X40576Y40334D01*
G01X40472Y40282D01*
G01X40420Y40230D01*
G01X40368Y40074D01*
G01X40368Y39970D01*
G01X40420Y39814D01*
G01X40524Y39710D01*
G01X40680Y39658D01*
G01X40836Y39658D01*
G01X40991Y39710D01*
G01X41043Y39762D01*
G01X41095Y39866D01*
G01X39973Y40490D02*
G01X39973Y40542D01*
G01X39921Y40646D01*
G01X39869Y40697D01*
G01X39765Y40749D01*
G01X39557Y40749D01*
G01X39454Y40697D01*
G01X39402Y40646D01*
G01X39350Y40542D01*
G01X39350Y40438D01*
G01X39402Y40334D01*
G01X39506Y40178D01*
G01X40025Y39658D01*
G01X39298Y39658D01*
G01X38955Y40126D02*
G01X38020Y40126D01*
G01X37677Y40749D02*
G01X37677Y39658D01*
G01X36949Y40749D02*
G01X36949Y39658D01*
G01X37677Y40230D02*
G01X36949Y40230D01*
G01X12749Y43687D02*
G01X12749Y42882D01*
G01X12749Y43687D02*
G01X12404Y43687D01*
G01X12289Y43649D01*
G01X12250Y43610D01*
G01X12212Y43534D01*
G01X12212Y43457D01*
G01X12250Y43380D01*
G01X12289Y43342D01*
G01X12404Y43304D01*
G01X12749Y43304D02*
G01X12404Y43304D01*
G01X12289Y43265D01*
G01X12250Y43227D01*
G01X12212Y43150D01*
G01X12212Y43035D01*
G01X12250Y42959D01*
G01X12289Y42920D01*
G01X12404Y42882D01*
G01X12749Y42882D01*
G01X11959Y43687D02*
G01X11959Y42882D01*
G01X11706Y43419D02*
G01X11706Y43035D01*
G01X11668Y42920D01*
G01X11591Y42882D01*
G01X11476Y42882D01*
G01X11400Y42920D01*
G01X11285Y43035D01*
G01X11285Y43419D02*
G01X11285Y42882D01*
G01X11032Y43189D02*
G01X10572Y43189D01*
G01X10572Y43265D01*
G01X10610Y43342D01*
G01X10649Y43380D01*
G01X10725Y43419D01*
G01X10840Y43419D01*
G01X10917Y43380D01*
G01X10994Y43304D01*
G01X11032Y43189D01*
G01X11032Y43112D01*
G01X10994Y42997D01*
G01X10917Y42920D01*
G01X10840Y42882D01*
G01X10725Y42882D01*
G01X10649Y42920D01*
G01X10572Y42997D01*
G01X10204Y43687D02*
G01X10204Y43035D01*
G01X10166Y42920D01*
G01X10089Y42882D01*
G01X10013Y42882D01*
G01X10319Y43419D02*
G01X10051Y43419D01*
G01X9568Y43419D02*
G01X9645Y43380D01*
G01X9721Y43304D01*
G01X9760Y43189D01*
G01X9760Y43112D01*
G01X9721Y42997D01*
G01X9645Y42920D01*
G01X9568Y42882D01*
G01X9453Y42882D01*
G01X9377Y42920D01*
G01X9300Y42997D01*
G01X9262Y43112D01*
G01X9262Y43189D01*
G01X9300Y43304D01*
G01X9377Y43380D01*
G01X9453Y43419D01*
G01X9568Y43419D01*
G01X8817Y43419D02*
G01X8894Y43380D01*
G01X8970Y43304D01*
G01X9009Y43189D01*
G01X9009Y43112D01*
G01X8970Y42997D01*
G01X8894Y42920D01*
G01X8817Y42882D01*
G01X8702Y42882D01*
G01X8625Y42920D01*
G01X8549Y42997D01*
G01X8511Y43112D01*
G01X8511Y43189D01*
G01X8549Y43304D01*
G01X8625Y43380D01*
G01X8702Y43419D01*
G01X8817Y43419D01*
G01X8143Y43687D02*
G01X8143Y43035D01*
G01X8104Y42920D01*
G01X8028Y42882D01*
G01X7951Y42882D01*
G01X8258Y43419D02*
G01X7989Y43419D01*
G01X7698Y43687D02*
G01X7698Y42882D01*
G01X7698Y43265D02*
G01X7583Y43380D01*
G01X7507Y43419D01*
G01X7392Y43419D01*
G01X7315Y43380D01*
G01X7277Y43265D01*
G01X7277Y42882D01*
G54D38*
G01X19073Y31616D02*
G01X19225Y31461D01*
G01X19304Y31230D01*
G01X19304Y30923D01*
G01X19225Y30689D01*
G01X19073Y30534D01*
G01X18918Y30534D01*
G01X18763Y30613D01*
G01X18684Y30689D01*
G01X18608Y30844D01*
G01X18453Y31309D01*
G01X18377Y31461D01*
G01X18298Y31540D01*
G01X18146Y31616D01*
G01X17912Y31616D01*
G01X17757Y31461D01*
G01X17681Y31230D01*
G01X17681Y30923D01*
G01X17757Y30689D01*
G01X17912Y30534D01*
G01X19304Y32668D02*
G01X17681Y32668D01*
G01X19304Y32127D02*
G01X19304Y33209D01*
G01X19304Y34337D02*
G01X17681Y33720D01*
G01X19304Y34337D02*
G01X17681Y34957D01*
G01X18222Y33951D02*
G01X18222Y34723D01*
G01X19304Y36006D02*
G01X17681Y36006D01*
G01X19304Y35465D02*
G01X19304Y36547D01*
G01X19304Y37057D02*
G01X17681Y37057D01*
G01X19304Y37057D02*
G01X19304Y38063D01*
G01X18532Y37057D02*
G01X18532Y37674D01*
G01X17681Y37057D02*
G01X17681Y38063D01*
G01X16665Y35391D02*
G01X15044Y35391D01*
G01X16665Y35391D02*
G01X16665Y36087D01*
G01X16589Y36318D01*
G01X16513Y36395D01*
G01X16358Y36473D01*
G01X16203Y36473D01*
G01X16048Y36395D01*
G01X15972Y36318D01*
G01X15893Y36087D01*
G01X15893Y35391D01*
G01X15893Y35932D02*
G01X15044Y36473D01*
G01X16665Y36981D02*
G01X15044Y38063D01*
G01X16665Y38063D02*
G01X15044Y36981D01*
G01X14088Y35992D02*
G01X12465Y35992D01*
G01X14088Y35451D02*
G01X14088Y36533D01*
G01X14088Y37043D02*
G01X12465Y38125D01*
G01X14088Y38125D02*
G01X12465Y37043D01*
G01X11306Y34871D02*
G01X11458Y34795D01*
G01X11613Y34640D01*
G01X11692Y34485D01*
G01X11692Y34175D01*
G01X11613Y34020D01*
G01X11458Y33868D01*
G01X11306Y33789D01*
G01X11072Y33713D01*
G01X10686Y33713D01*
G01X10455Y33789D01*
G01X10300Y33868D01*
G01X10145Y34020D01*
G01X10069Y34175D01*
G01X10069Y34485D01*
G01X10145Y34640D01*
G01X10300Y34795D01*
G01X10455Y34871D01*
G01X10686Y34871D01*
G01X10686Y34485D02*
G01X10686Y34871D01*
G01X11692Y35382D02*
G01X10069Y35382D01*
G01X11692Y35382D02*
G01X10069Y36464D01*
G01X11692Y36464D02*
G01X10069Y36464D01*
G01X11692Y36974D02*
G01X10069Y36974D01*
G01X11692Y36974D02*
G01X11692Y37515D01*
G01X11613Y37746D01*
G01X11458Y37901D01*
G01X11306Y37978D01*
G01X11072Y38056D01*
G01X10686Y38056D01*
G01X10455Y37978D01*
G01X10300Y37901D01*
G01X10145Y37746D01*
G01X10069Y37515D01*
G01X10069Y36974D01*
G01X8994Y33534D02*
G01X7371Y34151D01*
G01X8994Y34768D02*
G01X7371Y34151D01*
G01X8608Y36437D02*
G01X8760Y36361D01*
G01X8915Y36206D01*
G01X8994Y36051D01*
G01X8994Y35743D01*
G01X8915Y35588D01*
G01X8760Y35434D01*
G01X8608Y35357D01*
G01X8374Y35279D01*
G01X7988Y35279D01*
G01X7757Y35357D01*
G01X7602Y35434D01*
G01X7447Y35588D01*
G01X7371Y35743D01*
G01X7371Y36051D01*
G01X7447Y36206D01*
G01X7602Y36361D01*
G01X7757Y36437D01*
G01X8608Y38108D02*
G01X8760Y38029D01*
G01X8915Y37874D01*
G01X8994Y37720D01*
G01X8994Y37412D01*
G01X8915Y37257D01*
G01X8760Y37102D01*
G01X8608Y37026D01*
G01X8374Y36947D01*
G01X7988Y36947D01*
G01X7757Y37026D01*
G01X7602Y37102D01*
G01X7447Y37257D01*
G01X7371Y37412D01*
G01X7371Y37720D01*
G01X7447Y37874D01*
G01X7602Y38029D01*
G01X7757Y38108D01*
G01X6297Y35452D02*
G01X4674Y35452D01*
G01X6297Y35452D02*
G01X6297Y36455D01*
G01X5522Y35452D02*
G01X5522Y36069D01*
G01X4674Y35452D02*
G01X4674Y36455D01*
G01X6297Y36966D02*
G01X4674Y36966D01*
G01X6297Y36966D02*
G01X4674Y38048D01*
G01X6297Y38048D02*
G01X4674Y38048D01*
G54D43*
G01X29994Y13899D02*
G01X29994Y12810D01*
G01X29994Y13899D02*
G01X29527Y13899D01*
G01X29372Y13849D01*
G01X29319Y13798D01*
G01X29268Y13694D01*
G01X29268Y13590D01*
G01X29319Y13485D01*
G01X29372Y13432D01*
G01X29527Y13381D01*
G01X29994Y13381D01*
G01X29631Y13381D02*
G01X29268Y12810D01*
G01X28249Y13536D02*
G01X28300Y13381D01*
G01X28404Y13277D01*
G01X28559Y13226D01*
G01X28613Y13226D01*
G01X28768Y13277D01*
G01X28872Y13381D01*
G01X28925Y13536D01*
G01X28925Y13590D01*
G01X28872Y13745D01*
G01X28768Y13849D01*
G01X28613Y13899D01*
G01X28559Y13899D01*
G01X28404Y13849D01*
G01X28300Y13745D01*
G01X28249Y13536D01*
G01X28249Y13277D01*
G01X28300Y13018D01*
G01X28404Y12861D01*
G01X28559Y12810D01*
G01X28664Y12810D01*
G01X28821Y12861D01*
G01X28872Y12965D01*
G01X24800Y14249D02*
G01X24800Y13160D01*
G01X24800Y14249D02*
G01X24332Y14249D01*
G01X24177Y14199D01*
G01X24124Y14148D01*
G01X24073Y14044D01*
G01X24073Y13940D01*
G01X24124Y13835D01*
G01X24177Y13782D01*
G01X24332Y13731D01*
G01X24800Y13731D01*
G01X24437Y13731D02*
G01X24073Y13160D01*
G01X23730Y14044D02*
G01X23626Y14095D01*
G01X23469Y14249D01*
G01X23469Y13160D01*
G01X23022Y14249D02*
G01X22450Y14249D01*
G01X22763Y13835D01*
G01X22608Y13835D01*
G01X22504Y13782D01*
G01X22450Y13731D01*
G01X22399Y13576D01*
G01X22399Y13472D01*
G01X22450Y13315D01*
G01X22554Y13211D01*
G01X22712Y13160D01*
G01X22867Y13160D01*
G01X23022Y13211D01*
G01X23075Y13264D01*
G01X23126Y13368D01*
G01X36682Y13899D02*
G01X36682Y12810D01*
G01X36682Y13899D02*
G01X36215Y13899D01*
G01X36060Y13849D01*
G01X36007Y13798D01*
G01X35956Y13694D01*
G01X35956Y13590D01*
G01X36007Y13485D01*
G01X36060Y13432D01*
G01X36215Y13381D01*
G01X36682Y13381D01*
G01X36319Y13381D02*
G01X35956Y12810D01*
G01X35613Y13694D02*
G01X35509Y13745D01*
G01X35351Y13899D01*
G01X35351Y12810D01*
G01X35008Y13694D02*
G01X34904Y13745D01*
G01X34749Y13899D01*
G01X34749Y12810D01*
G01X33400Y13899D02*
G01X33400Y12810D01*
G01X33400Y13899D02*
G01X32932Y13899D01*
G01X32777Y13849D01*
G01X32724Y13798D01*
G01X32673Y13694D01*
G01X32673Y13590D01*
G01X32724Y13485D01*
G01X32777Y13432D01*
G01X32932Y13381D01*
G01X33400Y13381D01*
G01X33036Y13381D02*
G01X32673Y12810D01*
G01X32330Y13694D02*
G01X32226Y13745D01*
G01X32069Y13899D01*
G01X32069Y12810D01*
G01X31416Y13899D02*
G01X31571Y13849D01*
G01X31675Y13694D01*
G01X31726Y13432D01*
G01X31726Y13277D01*
G01X31675Y13018D01*
G01X31571Y12861D01*
G01X31416Y12810D01*
G01X31312Y12810D01*
G01X31154Y12861D01*
G01X31050Y13018D01*
G01X30999Y13277D01*
G01X30999Y13432D01*
G01X31050Y13694D01*
G01X31154Y13849D01*
G01X31312Y13899D01*
G01X31416Y13899D01*
G01X39950Y13949D02*
G01X39950Y12860D01*
G01X39950Y13949D02*
G01X39483Y13949D01*
G01X39328Y13899D01*
G01X39275Y13848D01*
G01X39224Y13744D01*
G01X39224Y13640D01*
G01X39275Y13535D01*
G01X39328Y13482D01*
G01X39483Y13431D01*
G01X39950Y13431D01*
G01X39587Y13431D02*
G01X39224Y12860D01*
G01X38881Y13744D02*
G01X38777Y13795D01*
G01X38620Y13949D01*
G01X38620Y12860D01*
G01X37758Y13949D02*
G01X38277Y13223D01*
G01X37499Y13223D01*
G01X37758Y13949D02*
G01X37758Y12860D01*
G01X42219Y14790D02*
G01X42272Y14894D01*
G01X42376Y14999D01*
G01X42478Y15049D01*
G01X42686Y15049D01*
G01X42790Y14999D01*
G01X42894Y14894D01*
G01X42948Y14790D01*
G01X42999Y14635D01*
G01X42999Y14376D01*
G01X42948Y14219D01*
G01X42894Y14115D01*
G01X42790Y14011D01*
G01X42686Y13960D01*
G01X42478Y13960D01*
G01X42376Y14011D01*
G01X42272Y14115D01*
G01X42219Y14219D01*
G01X41149Y15049D02*
G01X41668Y13960D01*
G01X41876Y15049D02*
G01X41149Y15049D01*
G01X26622Y14490D02*
G01X26675Y14594D01*
G01X26780Y14699D01*
G01X26881Y14749D01*
G01X27090Y14749D01*
G01X27194Y14699D01*
G01X27298Y14594D01*
G01X27351Y14490D01*
G01X27402Y14335D01*
G01X27402Y14076D01*
G01X27351Y13919D01*
G01X27298Y13815D01*
G01X27194Y13711D01*
G01X27090Y13660D01*
G01X26881Y13660D01*
G01X26780Y13711D01*
G01X26675Y13815D01*
G01X26622Y13919D01*
G01X25761Y14749D02*
G01X26279Y14023D01*
G01X25499Y14023D01*
G01X25761Y14749D02*
G01X25761Y13660D01*
G01X6519Y14640D02*
G01X6572Y14744D01*
G01X6676Y14849D01*
G01X6778Y14899D01*
G01X6986Y14899D01*
G01X7090Y14849D01*
G01X7194Y14744D01*
G01X7248Y14640D01*
G01X7299Y14485D01*
G01X7299Y14226D01*
G01X7248Y14069D01*
G01X7194Y13965D01*
G01X7090Y13861D01*
G01X6986Y13810D01*
G01X6778Y13810D01*
G01X6676Y13861D01*
G01X6572Y13965D01*
G01X6519Y14069D01*
G01X6125Y14640D02*
G01X6125Y14694D01*
G01X6072Y14798D01*
G01X6021Y14849D01*
G01X5917Y14899D01*
G01X5709Y14899D01*
G01X5604Y14849D01*
G01X5554Y14798D01*
G01X5500Y14694D01*
G01X5500Y14590D01*
G01X5554Y14485D01*
G01X5658Y14328D01*
G01X6176Y13810D01*
G01X5450Y13810D01*
G01X6301Y11840D02*
G01X6355Y11944D01*
G01X6459Y12049D01*
G01X6560Y12099D01*
G01X6769Y12099D01*
G01X6873Y12049D01*
G01X6977Y11944D01*
G01X7030Y11840D01*
G01X7081Y11685D01*
G01X7081Y11426D01*
G01X7030Y11269D01*
G01X6977Y11165D01*
G01X6873Y11061D01*
G01X6769Y11010D01*
G01X6560Y11010D01*
G01X6459Y11061D01*
G01X6355Y11165D01*
G01X6301Y11269D01*
G01X5959Y11894D02*
G01X5854Y11944D01*
G01X5699Y12099D01*
G01X5699Y11010D01*
G01X7618Y29940D02*
G01X7671Y30044D01*
G01X7776Y30149D01*
G01X7877Y30199D01*
G01X8085Y30199D01*
G01X8190Y30149D01*
G01X8294Y30044D01*
G01X8347Y29940D01*
G01X8398Y29785D01*
G01X8398Y29526D01*
G01X8347Y29369D01*
G01X8294Y29265D01*
G01X8190Y29161D01*
G01X8085Y29110D01*
G01X7877Y29110D01*
G01X7776Y29161D01*
G01X7671Y29265D01*
G01X7618Y29369D01*
G01X6653Y30044D02*
G01X6704Y30149D01*
G01X6861Y30199D01*
G01X6963Y30199D01*
G01X7120Y30149D01*
G01X7224Y29994D01*
G01X7275Y29732D01*
G01X7275Y29473D01*
G01X7224Y29265D01*
G01X7120Y29161D01*
G01X6963Y29110D01*
G01X6912Y29110D01*
G01X6757Y29161D01*
G01X6653Y29265D01*
G01X6599Y29422D01*
G01X6599Y29473D01*
G01X6653Y29628D01*
G01X6757Y29732D01*
G01X6912Y29785D01*
G01X6963Y29785D01*
G01X7120Y29732D01*
G01X7224Y29628D01*
G01X7275Y29473D01*
G01X7619Y32340D02*
G01X7672Y32444D01*
G01X7776Y32549D01*
G01X7878Y32599D01*
G01X8086Y32599D01*
G01X8190Y32549D01*
G01X8294Y32444D01*
G01X8348Y32340D01*
G01X8399Y32185D01*
G01X8399Y31926D01*
G01X8348Y31769D01*
G01X8294Y31665D01*
G01X8190Y31561D01*
G01X8086Y31510D01*
G01X7878Y31510D01*
G01X7776Y31561D01*
G01X7672Y31665D01*
G01X7619Y31769D01*
G01X6654Y32599D02*
G01X7172Y32599D01*
G01X7225Y32132D01*
G01X7172Y32185D01*
G01X7017Y32236D01*
G01X6862Y32236D01*
G01X6704Y32185D01*
G01X6600Y32081D01*
G01X6549Y31926D01*
G01X6549Y31822D01*
G01X6600Y31665D01*
G01X6704Y31561D01*
G01X6862Y31510D01*
G01X7017Y31510D01*
G01X7172Y31561D01*
G01X7225Y31614D01*
G01X7276Y31718D01*
G54D38*
G01X35927Y25249D02*
G01X35552Y24264D01*
G01X35177Y25249D02*
G01X35552Y24264D01*
G01X34867Y24640D02*
G01X34304Y24640D01*
G01X34304Y24733D01*
G01X34351Y24827D01*
G01X34398Y24874D01*
G01X34492Y24921D01*
G01X34633Y24921D01*
G01X34726Y24874D01*
G01X34820Y24780D01*
G01X34867Y24640D01*
G01X34867Y24546D01*
G01X34820Y24405D01*
G01X34726Y24311D01*
G01X34633Y24264D01*
G01X34492Y24264D01*
G01X34398Y24311D01*
G01X34304Y24405D01*
G01X33995Y24921D02*
G01X33995Y24264D01*
G01X33995Y24640D02*
G01X33948Y24780D01*
G01X33854Y24874D01*
G01X33760Y24921D01*
G01X33619Y24921D01*
G01X33263Y24499D02*
G01X33310Y24452D01*
G01X33263Y24405D01*
G01X33216Y24452D01*
G01X33263Y24499D01*
G01X32184Y25062D02*
G01X32090Y25109D01*
G01X31949Y25249D01*
G01X31949Y24264D01*
G01X42286Y32899D02*
G01X42286Y31914D01*
G01X42286Y32899D02*
G01X41676Y32899D01*
G01X42286Y32430D02*
G01X41910Y32430D01*
G01X42286Y31914D02*
G01X41676Y31914D01*
G01X40803Y32571D02*
G01X40803Y31914D01*
G01X40803Y32430D02*
G01X40897Y32524D01*
G01X40991Y32571D01*
G01X41132Y32571D01*
G01X41226Y32524D01*
G01X41319Y32430D01*
G01X41366Y32290D01*
G01X41366Y32196D01*
G01X41319Y32055D01*
G01X41226Y31961D01*
G01X41132Y31914D01*
G01X40991Y31914D01*
G01X40897Y31961D01*
G01X40803Y32055D01*
G01X40353Y32899D02*
G01X40353Y32102D01*
G01X40306Y31961D01*
G01X40212Y31914D01*
G01X40118Y31914D01*
G01X40494Y32571D02*
G01X40165Y32571D01*
G01X39809Y32290D02*
G01X39246Y32290D01*
G01X39246Y32383D01*
G01X39293Y32477D01*
G01X39340Y32524D01*
G01X39434Y32571D01*
G01X39574Y32571D01*
G01X39668Y32524D01*
G01X39762Y32430D01*
G01X39809Y32290D01*
G01X39809Y32196D01*
G01X39762Y32055D01*
G01X39668Y31961D01*
G01X39574Y31914D01*
G01X39434Y31914D01*
G01X39340Y31961D01*
G01X39246Y32055D01*
G01X38936Y32571D02*
G01X38936Y31914D01*
G01X38936Y32290D02*
G01X38889Y32430D01*
G01X38796Y32524D01*
G01X38702Y32571D01*
G01X38561Y32571D01*
G01X38251Y32571D02*
G01X38251Y31914D01*
G01X38251Y32383D02*
G01X38111Y32524D01*
G01X38017Y32571D01*
G01X37876Y32571D01*
G01X37782Y32524D01*
G01X37735Y32383D01*
G01X37735Y31914D01*
G01X36703Y32290D02*
G01X36141Y32290D01*
G01X36141Y32383D01*
G01X36187Y32477D01*
G01X36234Y32524D01*
G01X36328Y32571D01*
G01X36469Y32571D01*
G01X36563Y32524D01*
G01X36657Y32430D01*
G01X36703Y32290D01*
G01X36703Y32196D01*
G01X36657Y32055D01*
G01X36563Y31961D01*
G01X36469Y31914D01*
G01X36328Y31914D01*
G01X36234Y31961D01*
G01X36141Y32055D01*
G01X35268Y32571D02*
G01X35268Y31820D01*
G01X35315Y31680D01*
G01X35362Y31633D01*
G01X35456Y31586D01*
G01X35596Y31586D01*
G01X35690Y31633D01*
G01X35268Y32430D02*
G01X35362Y32524D01*
G01X35456Y32571D01*
G01X35596Y32571D01*
G01X35690Y32524D01*
G01X35784Y32430D01*
G01X35831Y32290D01*
G01X35831Y32196D01*
G01X35784Y32055D01*
G01X35690Y31961D01*
G01X35596Y31914D01*
G01X35456Y31914D01*
G01X35362Y31961D01*
G01X35268Y32055D01*
G01X34396Y32571D02*
G01X34396Y31820D01*
G01X34442Y31680D01*
G01X34489Y31633D01*
G01X34583Y31586D01*
G01X34724Y31586D01*
G01X34818Y31633D01*
G01X34396Y32430D02*
G01X34489Y32524D01*
G01X34583Y32571D01*
G01X34724Y32571D01*
G01X34818Y32524D01*
G01X34912Y32430D01*
G01X34958Y32290D01*
G01X34958Y32196D01*
G01X34912Y32055D01*
G01X34818Y31961D01*
G01X34724Y31914D01*
G01X34583Y31914D01*
G01X34489Y31961D01*
G01X34396Y32055D01*
G01X33317Y32477D02*
G01X33364Y32430D01*
G01X33317Y32383D01*
G01X33270Y32430D01*
G01X33317Y32477D01*
G01X33317Y32149D02*
G01X33364Y32102D01*
G01X33317Y32055D01*
G01X33270Y32102D01*
G01X33317Y32149D01*
G01X32960Y32336D02*
G01X32116Y32336D01*
G01X31806Y32899D02*
G01X31806Y31914D01*
G01X31806Y32899D02*
G01X31478Y32899D01*
G01X31337Y32852D01*
G01X31243Y32759D01*
G01X31196Y32665D01*
G01X31149Y32524D01*
G01X31149Y32290D01*
G01X31196Y32149D01*
G01X31243Y32055D01*
G01X31337Y31961D01*
G01X31478Y31914D01*
G01X31806Y31914D01*
G54D45*
G75*
G01X44100Y28200D02*
G03X44100Y28200I-11500J0D01*
G01*
M00*
M02*
