;PTH Drill file created by EasyEDA 
M48
METRIC,LZ,000.000
;Holesize 1 = 0.501 METRIC
T01C0.501
;Holesize 2 = 0.600 METRIC
T02C0.600
;Holesize 3 = 0.889 METRIC
T03C0.889
;Holesize 4 = 0.914 METRIC
T04C0.914
;Holesize 5 = 0.915 METRIC
T05C0.915
;Holesize 6 = 1.000 METRIC
T06C1.000
;Holesize 7 = 1.032 METRIC
T07C1.032
;Holesize 8 = 1.200 METRIC
T08C1.200
%
G05
G90
T01
X018800Y009949
X015951Y021148
X017800Y021149
X024400Y022499
X026150Y022249
X013500Y005449
X008100Y005449
X015750Y015700
X005347Y008742
X021599Y016549
T02
X017999Y008949
X021899Y014099
X035450Y015899
X040099Y015449
X033549Y022050
X002802Y028198
X023901Y015498
T03
X036619Y044399
X034079Y044399
X031539Y044399
X028999Y044399
X026459Y044399
X023919Y044399
X021379Y044399
X018839Y044399
T04
X015250Y031998
T05
X015249Y029459
X014950Y014150
X014950Y011609
T06
X016104Y005356
X018644Y005356
X021184Y005356
X023724Y005356
X026264Y005356
X028804Y005356
X031344Y005356
X033884Y005356
X008246Y039887
X019500Y025799
X006050Y024999
X006999Y028249
T07
X032599Y018199
X032599Y038199
T08
X018496Y039947
X015859Y039947
X013341Y039887
X010823Y039887
X005608Y039887
M30
