G04 ---------------------------- Layer name :TOP SOLDER LAYER*
G04 EasyEDA v5.5.14, Thu, 21 Jun 2018 15:21:40 GMT*
G04 9a38f802714640338dee6b1ee23c8345*
G04 Gerber Generator version 0.2*
G04 Scale: 100 percent, Rotated: No, Reflected: No *
G04 Dimensions in millimeters *
G04 leading zeros omitted , absolute positions ,3 integer and 3 decimal *
%FSLAX33Y33*%
%MOMM*%
G90*
G71D02*

%ADD11C,0.903199*%
%ADD18C,0.653212*%
%ADD22R,1.803400X2.004060*%
%ADD23R,2.004060X1.803400*%
%ADD24R,1.453210X0.903199*%
%ADD25R,0.903199X1.453210*%
%ADD26R,2.019300X1.562100*%
%ADD27R,1.562100X2.019300*%
%ADD28R,1.727200X1.727200*%
%ADD29C,1.727200*%
%ADD30R,1.778000X1.778000*%
%ADD31C,1.778000*%
%ADD32C,2.133600*%
%ADD33C,2.524760*%
%ADD34C,2.203196*%

%LPD*%
G54D18*
G01X18899Y21154D02*
G01X18899Y19954D01*
G01X19699Y21154D02*
G01X19699Y19954D01*
G01X20500Y21154D02*
G01X20500Y19954D01*
G01X21300Y21154D02*
G01X21300Y19954D01*
G01X22097Y21154D02*
G01X22097Y19954D01*
G01X22897Y21154D02*
G01X22897Y19954D01*
G01X23697Y21154D02*
G01X23697Y19954D01*
G01X24498Y21154D02*
G01X24498Y19954D01*
G01X25462Y18979D02*
G01X26662Y18979D01*
G01X25462Y18179D02*
G01X26662Y18179D01*
G01X25462Y17379D02*
G01X26662Y17379D01*
G01X25462Y16579D02*
G01X26662Y16579D01*
G01X25462Y15781D02*
G01X26662Y15781D01*
G01X25462Y14981D02*
G01X26662Y14981D01*
G01X25462Y14181D02*
G01X26662Y14181D01*
G01X25462Y13381D02*
G01X26662Y13381D01*
G01X24487Y12391D02*
G01X24487Y11191D01*
G01X23687Y12391D02*
G01X23687Y11191D01*
G01X22887Y12391D02*
G01X22887Y11191D01*
G01X22087Y12391D02*
G01X22087Y11191D01*
G01X21290Y12391D02*
G01X21290Y11191D01*
G01X20489Y12391D02*
G01X20489Y11191D01*
G01X19689Y12391D02*
G01X19689Y11191D01*
G01X18889Y11966D02*
G01X18889Y11616D01*
G01X16725Y13391D02*
G01X17925Y13391D01*
G01X16725Y14191D02*
G01X17925Y14191D01*
G01X16725Y14991D02*
G01X17925Y14991D01*
G01X16725Y15791D02*
G01X17925Y15791D01*
G01X16725Y16589D02*
G01X17925Y16589D01*
G01X16725Y17389D02*
G01X17925Y17389D01*
G01X16725Y18189D02*
G01X17925Y18189D01*
G01X16725Y18989D02*
G01X17925Y18989D01*
G54D11*
G01X24358Y27799D02*
G01X25458Y27799D01*
G01X24358Y29069D02*
G01X25458Y29069D01*
G01X24358Y30339D02*
G01X25458Y30339D01*
G01X24358Y31609D02*
G01X25458Y31609D01*
G01X18161Y27799D02*
G01X19261Y27799D01*
G01X18161Y29069D02*
G01X19261Y29069D01*
G01X18161Y30339D02*
G01X19261Y30339D01*
G01X18161Y31609D02*
G01X19261Y31609D01*
G54D22*
G01X28204Y30346D03*
G01X30998Y30346D03*
G54D23*
G01X36299Y24048D03*
G01X36299Y21254D03*
G54D22*
G01X28202Y24050D03*
G01X30996Y24050D03*
G01X28202Y27049D03*
G01X30996Y27049D03*
G36*
G01X5210Y32331D02*
G01X6340Y33461D01*
G01X7615Y32189D01*
G01X6482Y31056D01*
G01X5210Y32331D01*
G37*
G36*
G01X7186Y34307D02*
G01X8316Y35438D01*
G01X9589Y34165D01*
G01X8458Y33032D01*
G01X7186Y34307D01*
G37*
G01X11402Y18299D03*
G01X14196Y18299D03*
G54D23*
G01X5348Y14396D03*
G01X5348Y11602D03*
G01X26198Y40747D03*
G01X26198Y37953D03*
G54D24*
G01X12482Y25651D03*
G01X9982Y24701D03*
G01X9982Y26601D03*
G54D25*
G01X12250Y5920D03*
G01X11300Y8420D03*
G01X13200Y8420D03*
G54D28*
G01X15250Y31998D03*
G54D29*
G01X15249Y29459D03*
G54D28*
G01X14950Y14150D03*
G54D29*
G01X14950Y11609D03*
G54D23*
G01X6400Y19001D03*
G01X6400Y21795D03*
G54D22*
G01X8298Y42701D03*
G01X5504Y42701D03*
G54D30*
G01X36619Y44399D03*
G54D31*
G01X34079Y44399D03*
G01X31539Y44399D03*
G01X28999Y44399D03*
G01X26459Y44399D03*
G01X23919Y44399D03*
G01X21379Y44399D03*
G01X18839Y44399D03*
G54D26*
G01X10025Y21174D03*
G01X13302Y21174D03*
G54D27*
G01X22174Y41173D03*
G01X22174Y37897D03*
G54D32*
G01X16104Y5356D03*
G01X18644Y5356D03*
G01X21184Y5356D03*
G01X23724Y5356D03*
G01X26264Y5356D03*
G01X28804Y5356D03*
G01X31344Y5356D03*
G01X33884Y5356D03*
G54D33*
G01X32599Y18199D03*
G01X32599Y38199D03*
G54D34*
G01X18496Y39947D03*
G01X15859Y39947D03*
G01X13341Y39887D03*
G01X10823Y39887D03*
G01X8246Y39887D03*
G01X5608Y39887D03*
M00*
M02*
